<svg width="98" height="69" viewBox="0 0 98 69" fill="none" xmlns="http://www.w3.org/2000/svg">
<g clip-path="url(#clip0_2596_5559)">
<path d="M95.6415 65.2036C95.2169 65.2036 94.856 65.4684 94.7074 65.8396H87.0449V66.5838H94.7074C94.856 66.9569 95.2169 67.2198 95.6415 67.2198C96.1974 67.2198 96.649 66.7674 96.649 66.2107C96.649 65.654 96.1974 65.2017 95.6415 65.2017V65.2036Z" fill="#DD5742"/>
<path d="M2.84295 65.2036C3.26757 65.2036 3.6285 65.4684 3.77711 65.8396H11.4395V66.5838H3.77711C3.6285 66.9569 3.26757 67.2198 2.84295 67.2198C2.28709 67.2198 1.83545 66.7674 1.83545 66.2107C1.83545 65.654 2.28709 65.2017 2.84295 65.2017V65.2036Z" fill="#DD5742"/>
<path d="M8.83033 40.0914C7.98302 41.4774 7.65491 48.5582 9.51551 49.8436C10.5404 50.526 12.9028 50.325 12.318 51.8965L1.23545 52.0512C0.52518 50.6169 2.51703 50.5473 3.22151 49.7431C5.13229 46.2018 4.24445 34.5397 3.86423 30.9559C3.80632 28.8682 -0.646381 29.7806 0.0831907 27.9461C1.38214 27.95 12.4994 26.6587 11.019 28.8489C7.40786 29.3882 8.25903 34.4431 8.34009 37.1049C9.39392 39.2274 16.9927 37.7834 19.0694 37.9748C20.9416 37.188 20.1619 30.9114 18.8436 29.6801C18.1295 29.2219 15.2247 29.3244 16.1589 27.9075C18.0156 27.1942 21.2002 28.3289 23.3156 27.9229C24.1031 27.8997 26.5948 27.287 26.9789 27.9113C22.3486 31.7233 24.1224 41.1411 24.1784 47.147C23.6379 50.5357 28.0559 49.6948 27.7587 51.8985H17.1162C16.707 50.5144 18.5888 50.4526 19.2624 49.5749C20.5556 47.5298 19.938 43.5149 19.938 41.1469C21.0922 38.9761 9.27618 40.5418 8.83033 40.0934V40.0914ZM3.5226 50.5299C6.74777 50.2418 6.493 29.7458 3.62103 29.0712C6.38491 33.3103 4.73276 40.4278 4.68644 47.7366C4.68258 48.4866 3.9009 49.9036 3.52067 50.5318L3.5226 50.5299ZM19.3493 50.7232C22.4104 50.8546 22.5127 27.8978 19.1563 29.1678C22.393 33.1711 21.2253 46.5091 19.3493 50.7232Z" fill="#563223"/>
<path d="M75.3174 44.5374C75.524 40.1011 77.5795 29.2625 71.4438 28.9938C71.1851 28.6613 71.1292 28.0911 71.5847 27.9422C74.2964 28.468 77.925 27.5092 80.3241 28.2225C74.6342 33.4185 78.614 43.7584 77.2572 51.0189C76.1396 57.0887 61.9844 31.992 59.6934 34.1937C59.4483 38.9896 58.7921 45.3937 60.643 49.8591C69.4751 53.0003 56.9102 51.7593 54.8894 52.0473C54.7775 51.9758 54.5787 51.0924 54.6906 50.9377C59.2823 49.6059 57.7556 37.8761 57.9583 33.9927C58.1551 28.1897 54.6327 30.6292 54.1753 28.2979C62.602 24.1148 69.9846 41.2435 75.3174 44.5355V44.5374ZM75.8386 29.5215C72.4802 28.2322 75.8675 30.0956 75.8791 31.5184C76.2921 33.0745 76.6183 29.8714 75.8386 29.5215ZM75.7054 50.5298C71.0404 43.4472 64.5128 34.0448 57.1804 29.4616C60.5851 31.9862 72.5902 47.7637 75.7054 50.5298ZM56.5995 51.1098C58.6936 50.4293 58.6627 48.5214 58.3327 46.6657C57.6417 47.8622 57.6089 49.8378 56.5995 51.1098Z" fill="#563223"/>
<path d="M46.7832 39.8671C47.8004 40.1589 54.9012 39.3432 54.2835 40.8626C45.6406 39.436 48.1401 44.5528 51.4791 49.9556C52.2164 50.5394 54.8259 50.7752 53.5096 52.1709L43.4905 52.0568C43.5311 50.0735 45.8066 51.0884 45.8047 48.6914C44.3841 40.2189 41.1339 42.5521 35.8532 46.6675C31.8676 49.8474 34.4847 49.8338 37.3007 51.4015C38.0979 52.7585 29.3546 52.111 28.5034 51.8809C33.6722 48.8364 39.0996 25.8196 41.8828 28.2437L46.7813 39.8651L46.7832 39.8671ZM40.9332 32.5872C39.6516 33.747 46.4783 45.0669 46.5748 48.7494C45.8433 50.5935 47.0071 50.145 47.148 48.6972C47.7348 47.3924 41.379 34.0099 40.9312 32.5872H40.9332ZM42.703 40.6712C39.088 28.2243 38.7039 37.5822 35.5617 43.5708C37.5767 42.4535 40.3406 40.7137 42.703 40.6712ZM40.771 41.6397C35.5405 42.5617 32.9098 47.4446 30.3505 51.1096C34.4983 49.3834 31.7131 45.6237 40.771 41.6397Z" fill="#563223"/>
<path d="M97.7817 42.7319C100.175 54.4113 82.0361 56.1704 82.4665 44.4136C83.6033 41.2144 86.0314 51.1658 89.7449 50.6748C94.0104 51.3997 97.4498 46.9285 93.9389 43.768C90.7948 40.9361 83.7037 40.4625 83.0571 35.5294C82.067 27.6213 89.6542 26.5021 95.4463 28.64C97.4208 27.3081 96.892 29.9719 96.9402 31.2902C97.9516 34.3405 96.9653 37.8761 95.429 32.8038C92.9218 26.0401 80.826 30.2599 88.1506 35.6492C92.2887 38.0501 96.0852 37.2073 97.7837 42.73L97.7817 42.7319ZM96.3554 32.9391C96.3651 30.7663 94.7052 29.0169 92.4972 29.0749C94.1532 29.9912 95.1954 31.5299 96.3554 32.9391ZM96.3554 47.4369C98.0828 38.4927 82.2542 40.9651 84.2017 31.2013C80.1987 41.4638 96.1971 38.9992 96.3554 47.4369ZM83.4258 44.1507C82.8931 44.0328 82.9973 44.4098 83.0571 44.8118C83.474 45.7339 83.7249 50.8487 85.1629 50.1432L83.4258 44.1507Z" fill="#563223"/>
<path d="M53.1563 65.4103C53.2296 65.4257 53.3261 65.2982 53.3918 65.2402C54.021 64.5945 54.9551 64.2736 55.3103 65.0952C55.3508 65.1802 55.3913 65.275 55.4454 65.3446C55.5033 65.4354 55.621 65.447 55.7233 65.3658C57.7016 63.7363 58.4351 64.8864 57.773 67.5908C57.7499 67.7106 57.6804 67.9155 57.7151 68.0006C57.7306 68.0411 57.7673 68.0489 57.8116 68.0431C58.0124 68.0141 58.5123 67.7377 58.6802 67.7338C58.7207 67.7435 58.7033 67.7744 58.6879 67.8131C58.5219 68.0817 58.2305 68.565 57.966 68.7815C57.6707 69.0657 57.1458 68.9864 56.9142 68.6829C56.5417 68.1823 56.8871 66.9954 57.0087 66.1081C57.0821 65.6596 57.1091 65.2247 56.6343 65.2904C55.4029 65.5746 55.2446 68.1707 54.9242 68.7448C54.8818 68.8298 54.8258 68.8782 54.7274 68.9052C54.3877 68.9671 53.7913 69.0057 53.9804 68.4684C54.2198 67.5096 54.6444 66.574 54.6637 65.5939C54.6714 65.3716 54.5247 65.1764 54.2931 65.186C52.7857 65.3059 52.834 68.364 52.4634 68.882C52.3148 68.9671 52.004 68.9303 51.8129 68.9284C51.6585 68.9149 51.5041 68.9284 51.5408 68.7622C51.618 68.3852 51.8728 67.1945 52.0619 66.3033L52.2491 65.418C52.2723 65.3098 52.2762 65.2189 52.143 65.2402C51.9365 65.2904 51.8033 65.5031 51.757 65.6983C51.7222 65.8181 51.6875 65.9206 51.618 65.9573C51.5176 66.0231 51.3748 65.8819 51.3671 65.7505C51.3574 65.6519 51.3632 65.6558 51.3671 65.6055C51.4559 64.8594 52.7722 64.0823 53.0463 65.1184C53.081 65.2247 53.0733 65.3291 53.1466 65.4064L53.1601 65.4122L53.1563 65.4103Z" fill="#DD5742"/>
<path d="M64.9898 65.4103C65.0631 65.4257 65.1596 65.2982 65.2252 65.2402C65.8545 64.5945 66.7886 64.2736 67.1438 65.0952C67.1843 65.1802 67.2248 65.275 67.2789 65.3446C67.3368 65.4354 67.4545 65.447 67.5568 65.3658C69.5351 63.7363 70.2686 64.8864 69.6065 67.5908C69.5834 67.7106 69.5139 67.9155 69.5486 68.0006C69.5641 68.0411 69.6007 68.0489 69.6451 68.0431C69.8459 68.0141 70.3458 67.7377 70.5137 67.7338C70.5542 67.7435 70.5368 67.7744 70.5214 67.8131C70.3554 68.0817 70.064 68.565 69.7996 68.7815C69.5042 69.0657 68.9793 68.9864 68.7477 68.6829C68.3751 68.1823 68.7206 66.9954 68.8422 66.1081C68.9156 65.6596 68.9426 65.2247 68.4678 65.2904C67.2364 65.5746 67.0781 68.1707 66.7577 68.7448C66.7153 68.8298 66.6593 68.8782 66.5609 68.9052C66.2212 68.9671 65.6248 69.0057 65.8139 68.4684C66.0533 67.5096 66.4779 66.574 66.4972 65.5939C66.5049 65.3716 66.3582 65.1764 66.1266 65.186C64.6192 65.3059 64.6675 68.364 64.2969 68.882C64.1483 68.9671 63.8375 68.9303 63.6464 68.9284C63.492 68.9149 63.3376 68.9284 63.3743 68.7622C63.4515 68.3852 63.7063 67.1945 63.8954 66.3033L64.0826 65.418C64.1058 65.3098 64.1097 65.2189 63.9765 65.2402C63.77 65.2904 63.6368 65.5031 63.5905 65.6983C63.5557 65.8181 63.521 65.9206 63.4515 65.9573C63.3511 66.0231 63.2083 65.8819 63.2006 65.7505C63.1909 65.6519 63.1967 65.6558 63.2006 65.6055C63.2894 64.8594 64.6057 64.0823 64.8798 65.1184C64.9145 65.2247 64.9068 65.3291 64.9801 65.4064L64.9936 65.4122L64.9898 65.4103Z" fill="#DD5742"/>
<path d="M42.8403 64.8247C45.4053 64.0921 44.8379 66.4774 44.3226 67.7629C44.201 68.0664 44.5098 68.1631 44.6931 68.3718C45.0618 68.915 43.7513 69.06 43.5447 68.7797C43.4656 68.6946 43.4367 68.5632 43.427 68.4414C43.3845 67.7127 43.6374 66.9781 43.7744 66.2861C43.8767 65.7816 44.008 65.0103 43.2919 65.3563C42.1918 65.9787 42.0509 67.8035 41.717 68.7932C41.5645 69.002 41.0414 68.915 40.8484 68.9034C40.7577 68.8841 40.7481 68.8512 40.7654 68.7797C40.9719 67.9524 42.323 62.6249 42.4678 62.0237C42.4639 61.8826 42.1802 61.9329 42.0026 61.8613C41.8038 61.8014 41.9196 61.699 42.0412 61.6545C42.5353 61.4477 43.1317 61.5791 43.6644 61.554" fill="#DD5742"/>
<path d="M15.6857 68.7603C15.6953 68.6327 16.0562 68.3466 16.2724 68.1746C16.6044 67.931 16.7897 67.6314 16.8997 67.2467C17.2104 66.257 17.83 64.0147 17.9265 63.2395C17.9902 62.9341 17.664 62.8239 17.4826 62.6538C17.139 62.2788 17.9825 62.389 18.2932 62.4025C18.5596 62.476 20.3275 62.1261 19.7716 62.7331C19.5362 62.9419 19.1868 63.139 19.0575 63.4618C18.6039 64.3897 18.2643 66.3846 17.9728 67.5792C17.9323 67.7455 17.8898 67.9716 17.9516 68.1031C18.079 68.3698 18.4785 68.3486 18.7487 68.3447C20.1229 68.308 21.2018 67.6817 22.1051 66.7113C22.4081 66.4484 22.1302 67.1018 22.0183 67.5058C21.8928 67.8982 21.7712 68.3041 21.6882 68.5438C21.5956 68.8357 21.4971 68.9343 21.2211 68.9246C20.3082 68.9246 17.0309 68.9246 15.9925 68.9246C15.869 68.9246 15.6683 68.9053 15.6818 68.7738V68.7603H15.6857Z" fill="#DD5742"/>
<path d="M76.192 65.3833C76.3001 65.4625 76.4236 65.3968 76.5799 65.2499C76.9505 64.844 77.5913 64.4631 78.1626 64.6951C79.1855 65.0856 78.2243 67.5058 78.1259 68.1321C78.1066 68.2268 78.1607 68.2654 78.2437 68.2268C78.6065 68.0683 79.4905 67.3337 79.0543 68.248C78.3266 69.5471 77.2284 69.0503 77.2883 67.6662C77.2998 67.094 77.4986 66.5315 77.599 65.969C77.6318 65.739 77.6916 65.3678 77.4021 65.2982C77.1416 65.2364 76.6687 65.6442 76.4487 65.9767C75.8542 66.7828 75.6631 68.1572 75.5242 68.6637C75.445 68.9903 74.9915 69.0116 74.7212 68.8724C74.5012 68.7526 74.5089 68.4839 74.5553 68.2635C74.7174 67.3975 75.1632 66.5663 75.1941 65.6732C75.1825 65.5283 75.1555 65.2963 74.9992 65.2924C74.8756 65.2538 74.5746 65.94 74.5321 65.5901C74.5051 64.9097 75.4219 64.264 75.8233 64.8285C75.9546 64.9986 76.0202 65.2286 76.1765 65.3755L76.1939 65.3891L76.192 65.3833Z" fill="#DD5742"/>
<path d="M23.265 68.7565C21.9526 67.7069 22.9871 65.6598 24.1799 64.9156C24.8728 64.4265 25.8726 64.3801 26.4091 65.0934C27.1715 66.058 26.3609 67.9272 25.3071 68.6019C24.7396 68.944 23.8846 69.1006 23.2921 68.7739L23.2631 68.7565H23.265ZM25.0446 64.8653C24.0216 65.0818 23.6954 66.692 23.734 67.6199C23.7688 68.0065 23.8055 68.3738 24.1509 68.5052C25.4441 68.801 26.3918 64.8808 25.0735 64.8614H25.0446V64.8653Z" fill="#DD5742"/>
<path d="M59.4657 68.7565C58.1533 67.7069 59.1878 65.6598 60.3806 64.9156C61.0735 64.4265 62.0733 64.3801 62.6098 65.0934C63.3722 66.058 62.5616 67.9272 61.5077 68.6019C60.9403 68.944 60.0853 69.1006 59.4927 68.7739L59.4638 68.7565H59.4657ZM61.2453 64.8653C60.2223 65.0818 59.8961 66.692 59.9347 67.6199C59.9695 68.0065 60.0061 68.3738 60.3516 68.5052C61.6448 68.801 62.5925 64.8808 61.2742 64.8614H61.2453V64.8653Z" fill="#DD5742"/>
<path d="M66.0358 15.4141C65.947 15.4779 65.9624 15.6016 66.0396 15.8278C66.1844 16.3284 66.526 17.1461 66.5781 17.5521C66.5299 17.7647 66.1361 17.612 65.9759 17.6023C65.7443 17.5579 65.5185 17.496 65.4548 17.2524C65.3757 16.9895 65.3043 16.4695 65.1576 16.0462C65.0553 15.7002 64.8179 15.3754 64.6558 15.8258C64.5187 16.2105 64.5573 16.7344 64.2659 16.8678C64.0825 16.9644 63.5537 17.0611 63.5518 16.7537C63.7197 15.8974 64.1134 14.3838 64.3238 13.4521C64.372 13.2568 64.4049 13.0945 64.4396 12.9881C64.4782 12.8741 64.5303 12.8258 64.6345 12.8277C65.009 12.878 65.4452 13.0384 65.8235 13.1505C66.3021 13.309 66.8657 13.5101 66.9892 13.9102C67.1707 14.4031 66.9584 15.0546 66.4527 15.2537C66.2905 15.3233 66.1342 15.3484 66.0512 15.4006L66.0358 15.4122V15.4141ZM64.9472 14.9366C65.4375 15.1744 66.5453 14.7259 66.1728 14.0397C65.8737 13.4985 65.3081 13.1621 65.0553 13.9508C64.9781 14.2079 64.8468 14.6795 64.9298 14.9134L64.9472 14.9366Z" fill="#603D2F"/>
<path d="M39.1731 63.5934C39.7309 63.5857 39.7347 63.951 39.6498 64.3975C39.6382 64.4536 39.561 64.6237 39.6228 64.6527C39.8911 64.6817 40.225 64.6856 40.4759 64.7938C40.8638 64.9581 40.6786 65.1205 40.445 65.1765C40.1729 65.2423 39.6247 65.2384 39.3468 65.25C39.287 65.2519 39.2368 65.2925 39.2213 65.3505C39.0631 65.9266 38.8566 66.4949 38.7446 67.0845C38.6925 67.359 38.5304 68.2539 38.9222 68.3332C39.1577 68.3796 39.7772 68.051 39.9007 67.8499C39.9335 67.7939 39.9548 67.734 39.9702 67.6721C39.9895 67.6006 40.0629 67.5561 40.1343 67.5735C40.3813 67.6354 40.5087 67.7842 40.3273 68.0722C40.0629 68.4898 39.2078 68.8822 38.7253 68.9112C37.0268 69.0117 37.8626 66.6283 38.1965 65.7623C38.2312 65.6695 38.3818 65.3853 38.3605 65.3061C38.3007 65.0954 37.5171 65.1456 37.4148 64.9736C37.3569 64.8769 37.4437 64.7319 37.5267 64.6952C37.7448 64.5986 38.3798 64.6778 38.5014 64.4768C38.6134 64.2893 38.5555 63.808 38.7253 63.69C38.8083 63.632 39.0727 63.5972 39.175 63.5972L39.1731 63.5934Z" fill="#DD5742"/>
<path d="M81.1331 63.5934C81.6908 63.5857 81.6947 63.951 81.6098 64.3975C81.5982 64.4536 81.521 64.6237 81.5828 64.6527C81.851 64.6817 82.1849 64.6856 82.4359 64.7938C82.8238 64.9581 82.6385 65.1205 82.405 65.1765C82.1328 65.2423 81.5847 65.2384 81.3068 65.25C81.2469 65.2519 81.1967 65.2925 81.1813 65.3505C81.023 65.9266 80.8165 66.4949 80.7046 67.0845C80.6525 67.359 80.4903 68.2539 80.8821 68.3332C81.1176 68.3796 81.7372 68.051 81.8607 67.8499C81.8935 67.7939 81.9147 67.734 81.9302 67.6721C81.9495 67.6006 82.0228 67.5561 82.0942 67.5735C82.3413 67.6354 82.4687 67.7842 82.2872 68.0722C82.0228 68.4898 81.1678 68.8822 80.6853 68.9112C78.9868 69.0117 79.8225 66.6283 80.1564 65.7623C80.1912 65.6695 80.3417 65.3853 80.3205 65.3061C80.2607 65.0954 79.477 65.1456 79.3748 64.9736C79.3168 64.8769 79.4037 64.7319 79.4867 64.6952C79.7048 64.5986 80.3398 64.6778 80.4614 64.4768C80.5733 64.2893 80.5154 63.808 80.6853 63.69C80.7683 63.632 81.0327 63.5972 81.135 63.5972L81.1331 63.5934Z" fill="#DD5742"/>
<path d="M48.6034 67.5425C48.9102 67.4652 48.8292 68.0025 48.5667 68.2403C47.2658 69.4871 45.3357 68.9343 45.7739 66.9336C46.0672 65.8723 47.5708 64.1674 48.5937 64.7048C49.1168 65.0431 48.9566 65.7583 48.5744 66.1816C48.2926 66.5218 47.8699 66.7287 47.4781 66.9026C47.1481 67.038 46.8007 67.2893 46.8586 67.614C46.8952 67.9098 47.1596 68.1804 47.4646 68.1862C47.9047 68.2171 48.2501 67.6565 48.5821 67.5483L48.6014 67.5425H48.6034ZM46.9917 66.7422C47.4743 66.9046 48.4296 65.8027 48.4335 65.3195C48.447 65.0991 48.2347 64.9909 48.0378 65.0121C47.482 65.0489 47.0303 65.8839 46.9473 66.4793C46.9358 66.5605 46.9319 66.6707 46.9763 66.7267L46.9898 66.7422H46.9917Z" fill="#DD5742"/>
<path d="M73.7098 67.5425C74.0167 67.4652 73.9356 68.0025 73.6731 68.2403C72.3723 69.4871 70.4422 68.9343 70.8803 66.9336C71.1737 65.8723 72.6772 64.1674 73.7002 64.7048C74.2232 65.0431 74.063 65.7583 73.6808 66.1816C73.3991 66.5218 72.9764 66.7287 72.5846 66.9026C72.2545 67.038 71.9071 67.2893 71.965 67.614C72.0017 67.9098 72.2661 68.1804 72.5711 68.1862C73.0111 68.2171 73.3566 67.6565 73.6886 67.5483L73.7079 67.5425H73.7098ZM72.0982 66.7422C72.5807 66.9046 73.5361 65.8027 73.54 65.3195C73.5535 65.0991 73.3412 64.9909 73.1443 65.0121C72.5884 65.0489 72.1368 65.8839 72.0538 66.4793C72.0422 66.5605 72.0383 66.6707 72.0827 66.7267L72.0963 66.7422H72.0982Z" fill="#DD5742"/>
<path d="M34.6468 67.5425C34.9537 67.4652 34.8726 68.0025 34.6101 68.2403C33.3093 69.4871 31.3792 68.9343 31.8173 66.9336C32.1107 65.8723 33.6142 64.1674 34.6372 64.7048C35.1602 65.0431 35 65.7583 34.6179 66.1816C34.3361 66.5218 33.9134 66.7287 33.5216 66.9026C33.1915 67.038 32.8441 67.2893 32.902 67.614C32.9387 67.9098 33.2031 68.1804 33.5081 68.1862C33.9481 68.2171 34.2936 67.6565 34.6256 67.5483L34.6449 67.5425H34.6468ZM33.0352 66.7422C33.5177 66.9046 34.4731 65.8027 34.477 65.3195C34.4905 65.0991 34.2782 64.9909 34.0813 65.0121C33.5254 65.0489 33.0738 65.8839 32.9908 66.4793C32.9792 66.5605 32.9754 66.6707 33.0197 66.7267L33.0333 66.7422H33.0352Z" fill="#DD5742"/>
<path d="M29.407 17.6043C29.6212 17.7957 29.7756 18.2422 29.3935 18.3138C28.8723 18.3969 28.2123 17.5077 27.4769 17.5869C26.8612 17.6217 26.6528 18.2287 26.6335 18.7564C26.6142 19.0754 26.3768 19.3557 26.0853 19.4001C25.9849 19.4137 25.873 19.3905 25.8691 19.2687C25.9174 18.3872 26.0699 16.8833 26.1451 15.9013C26.2552 15.2422 26.01 14.3452 26.9326 14.9348C27.7838 15.6346 28.7122 16.8369 29.3858 17.5811L29.407 17.6043ZM27.0311 16.085C26.5678 15.8182 26.6277 17.0766 26.4983 17.2235C26.4868 17.2583 26.4752 17.2835 26.5176 17.2835C26.8284 17.2409 27.3051 17.1617 27.6081 17.1095C27.639 17.1017 27.6506 17.0901 27.6429 17.0708C27.5445 16.9316 27.4055 16.7654 27.3051 16.5586C27.1797 16.3421 27.1526 16.2087 27.0484 16.1004L27.0291 16.0869L27.0311 16.085Z" fill="#603D2F"/>
<path d="M45.1136 0.0909266C45.322 0.255235 45.3761 0.576121 45.4745 0.817751C45.8451 1.79394 46.6711 2.80105 46.9664 3.83523C47.0784 4.28563 46.4781 4.2779 46.2176 4.11166C45.9705 3.96861 45.9088 3.66706 45.7949 3.42543C45.5826 2.90157 44.7797 2.91124 44.3454 3.11034C43.9324 3.34617 44.0038 3.98794 43.6737 4.29143C43.527 4.43448 43.3688 4.43061 43.2993 4.33589C43.2433 4.2663 43.2433 4.15032 43.2626 4.0556C43.4151 3.33071 44.2508 1.42279 44.4033 0.471736C44.4245 0.104458 44.7449 -0.127507 45.0904 0.0735292L45.1136 0.0889935V0.0909266ZM44.2489 2.59422C44.4014 2.57102 44.7526 2.4705 44.9611 2.42218C45.1271 2.37772 45.2545 2.35452 45.3761 2.31393C45.3896 2.30619 45.3973 2.29846 45.3973 2.28686C45.3761 2.20568 44.8935 1.3474 44.8414 1.25462C44.8125 1.22369 44.8067 1.26428 44.7874 1.30295C44.6426 1.65476 44.3628 2.26367 44.245 2.58842L44.2489 2.59229V2.59422Z" fill="#603D2F"/>
<path d="M20.9722 19.6901C20.8796 19.7944 20.9298 19.982 21.0301 20.2332C21.1556 20.6237 21.532 21.0587 21.3833 21.4491C21.2753 21.6482 20.9394 21.7256 20.7638 21.6618C20.648 21.6231 20.5804 21.5226 20.5225 21.4163C20.1558 20.7242 19.2738 18.6694 19.1676 18.0644C19.129 17.7338 19.4629 17.7164 19.7794 17.5579C20.4202 17.2912 21.0958 17.0592 21.6671 17.5367C22.1824 17.9523 22.2364 18.7854 21.7404 19.2261C21.4934 19.4639 21.117 19.5393 20.9857 19.6688L20.9703 19.6862L20.9722 19.6901ZM21.0494 17.8827C20.841 17.7648 20.0863 17.8421 19.9609 18.0856C19.9416 18.134 19.9493 18.1939 19.9532 18.2441C20.0439 18.5631 20.179 18.8685 20.3951 19.1295C21.061 19.9317 21.6323 18.2905 21.0726 17.8923L21.0494 17.8788V17.8827Z" fill="#603D2F"/>
<path d="M53.5212 11.3586C53.581 11.5423 53.4942 11.8071 53.3224 11.9057C53.1159 12.0352 52.5716 11.606 52.1914 11.6756C52.0408 11.6911 51.8999 11.7626 51.8381 11.896C51.6471 12.4315 52.3747 12.6789 52.7665 12.8703C53.195 13.0597 53.5443 13.4463 53.5656 13.9276C53.6602 15.2228 51.4907 15.9071 50.9156 14.8729C50.8229 14.7356 50.7843 14.4051 50.9465 14.378C51.124 14.3413 51.4656 14.7298 51.732 14.7588C52.4654 14.927 53.1081 14.2833 52.338 13.7517C51.9038 13.4057 51.2379 13.1274 51.0179 12.5726C50.8731 12.1724 51.0468 11.6872 51.3846 11.434C51.7918 11.0938 53.2317 10.9082 53.5135 11.3354L53.5231 11.3586H53.5212Z" fill="#603D2F"/>
<path d="M46.8354 11.3625C46.8721 11.4688 46.8354 11.579 46.7428 11.6428C46.4707 11.8535 46.0499 11.5364 45.6504 11.6273C45.4786 11.6582 45.2952 11.7742 45.2817 11.9598C45.3319 12.501 46.2448 12.7117 46.6444 13.0461C47.538 13.5661 47.1636 14.8187 46.3356 15.1918C45.5056 15.6132 44.3939 15.1164 44.3456 14.6796C44.3128 14.378 44.6274 14.4611 44.8629 14.5327C45.1756 14.6254 45.6156 14.7569 45.9341 14.7066C46.2873 14.6602 46.4514 14.3162 46.3722 14.0262C46.2429 13.6724 45.855 13.657 45.5153 13.4811C45.0829 13.2955 44.6178 13.0345 44.4827 12.5919C44.1835 11.434 45.3087 10.8947 46.351 11.115C46.5208 11.1421 46.7389 11.1904 46.8258 11.3412L46.8354 11.3625Z" fill="#603D2F"/>
<path d="M60.0312 11.9906C60.1392 12.1202 60.0485 12.2651 59.8806 12.3463C59.5583 12.5145 59.1375 12.2381 58.8133 12.3386C58.599 12.5145 58.5527 12.9958 58.6241 13.2297C58.7978 13.5467 59.2881 13.5158 59.5506 13.7284C59.7822 13.8908 59.7841 14.0957 59.4849 14.1093C59.2032 14.1286 58.8519 13.9739 58.572 14.0725C58.2941 14.1788 58.3134 14.5944 58.3211 14.9327C58.3308 15.0564 58.352 15.1879 58.435 15.2787C58.5836 15.5107 59.8208 15.474 59.5274 15.8915C59.151 16.1447 58.2593 15.9572 57.7575 15.8645C57.5491 15.8065 57.4101 15.8007 57.3425 15.6286C57.275 14.9405 57.6031 12.9108 57.7421 12.1356C57.854 11.4591 58.7631 11.8128 59.29 11.8263C59.6085 11.8611 59.8941 11.8611 60.0157 11.9752L60.0312 11.9906Z" fill="#603D2F"/>
<path d="M39.2945 1.13267C39.4837 1.28732 39.4431 1.64106 39.2463 1.66813C39.0899 1.69906 38.8487 1.52895 38.6229 1.50382C38.0187 1.48256 37.2197 1.93682 37.0846 2.56699C36.7912 3.70749 37.8778 5.33898 39.1787 4.67014C39.4489 4.55609 39.7191 4.22554 39.9353 4.1115C40.0144 4.07477 40.082 4.0767 40.1302 4.12116C40.4043 4.54063 39.8272 4.9659 39.4316 5.13794C35.7161 6.50074 34.8148 1.44389 38.5727 0.979964C38.8024 0.966433 39.1073 0.968366 39.2694 1.11141L39.2945 1.13267Z" fill="#603D2F"/>
<path d="M60.0756 1.52528C60.1451 1.67412 60.0563 1.85583 59.8999 1.90222C59.6973 1.97761 59.2765 1.80557 58.9851 1.90609C58.6338 2.0008 58.4929 2.4802 58.6493 2.78369C58.7689 3.00019 59.1202 2.94413 59.3808 3.14323C59.4599 3.20316 59.5757 3.29594 59.5506 3.3984C59.5313 3.45252 59.4483 3.48538 59.3171 3.48732C59.0256 3.49698 58.6666 3.3578 58.4041 3.53951C58.1243 3.77534 58.02 4.5041 58.3539 4.77086C58.5778 4.94096 58.9253 4.92163 59.1607 5.08401C59.2476 5.14587 59.2804 5.22319 59.2456 5.29471C58.9021 5.73158 57.7769 5.21352 57.3368 5.07048C57.1071 4.98156 57.0222 4.85978 57.082 4.63554C57.2442 3.93192 57.7344 1.82683 57.8714 1.24112C57.9004 1.06135 58.0162 1.01882 58.1822 1.05168C58.4794 1.09614 59.2263 1.23532 59.6645 1.31457C59.8092 1.34357 59.9849 1.38416 60.064 1.50595L60.0756 1.52528Z" fill="#603D2F"/>
<path d="M77.346 18.1166C77.1337 18.3002 77.0063 18.7564 76.9986 18.9884C77.0314 19.2725 77.4097 19.2648 77.6027 19.4156C77.8787 19.5915 77.952 19.8814 77.7108 19.9104C76.8499 19.8254 76.516 19.1855 76.1937 20.4633C75.9428 21.163 76.7554 21.0103 77.124 21.2635C77.3498 21.424 77.1626 21.6985 76.9445 21.7217C76.5836 21.7429 76.269 21.5303 75.9331 21.3873C75.6533 21.2461 75.1978 21.0741 75.1187 20.8209C75.0608 20.6488 75.1109 20.4729 75.1785 20.3028C75.4719 19.5818 76.24 18.5554 76.5257 17.7299C76.6048 17.525 76.6666 17.2563 76.9175 17.2641C77.4927 17.3298 78.7125 17.8653 78.7704 18.2306C78.726 18.6849 77.786 18.074 77.5467 18.076C77.483 18.0663 77.4193 18.0721 77.3653 18.103L77.344 18.1166H77.346Z" fill="#603D2F"/>
<path d="M53.523 0.183619C53.8183 1.15787 52.6776 0.599223 52.1873 0.713273C51.921 0.790595 51.9519 1.12888 51.9692 1.4343C51.9827 2.09733 53.0153 1.75905 53.2199 2.22491C53.2199 2.29064 53.1389 2.34476 53.0018 2.37376C52.6949 2.45301 52.2568 2.3119 51.9982 2.53227C51.699 2.84155 52.0484 4.03038 51.3458 4.18115C50.9598 4.27587 50.8015 3.98398 50.8807 3.63797C51.0756 2.68304 51.1818 1.69913 51.1702 0.717139C51.0949 -0.129534 51.5079 0.0715026 52.2838 0.046373C52.5348 0.046373 52.8339 0.046373 53.0482 0.046373C53.2933 0.046373 53.4438 0.0521722 53.5094 0.164289L53.521 0.183619H53.523Z" fill="#563223"/>
<path d="M34.7705 12.7311C34.8477 12.8857 34.7628 13.0829 34.6026 13.1467C34.3922 13.2492 33.9599 13.1718 33.8229 13.2917C33.68 13.4077 33.7785 13.6087 33.819 13.7633C33.9753 14.3143 34.7454 16.5199 34.2012 16.8427C33.9985 16.9625 33.6588 16.9451 33.5874 16.6938C33.4291 16.197 33.2709 14.6332 32.991 13.9721C32.8327 13.6454 32.4081 13.6802 32.0935 13.7285C31.9623 13.7459 31.8561 13.7401 31.7866 13.688C31.5685 13.514 31.7268 13.1448 31.9951 13.1061C32.5722 12.9437 34.0197 12.6615 34.5389 12.6286C34.6296 12.6248 34.7146 12.6344 34.7628 12.7118L34.7725 12.7292L34.7705 12.7311Z" fill="#603D2F"/>
<path d="M39.7116 11.7104C39.8545 11.8399 39.8139 12.3986 39.8969 12.6808C40.061 13.6087 40.4277 14.842 40.4335 15.4238C40.4451 15.7834 40.0185 15.88 39.7058 15.9109C39.6036 15.9109 39.5244 15.8839 39.4762 15.8239C39.399 15.7312 39.3893 15.5804 39.3816 15.4528C39.3353 14.724 39.316 13.9721 39.2098 13.2588C39.1635 12.9669 39.0689 12.6596 38.9666 12.3851C38.9068 12.1956 38.8142 11.9985 38.9589 11.8477C39.1037 11.7162 39.4897 11.5944 39.6981 11.6969L39.7155 11.7104H39.7116Z" fill="#603D2F"/>
<path d="M72.3955 15.3445C72.4302 15.4083 72.3839 15.4759 72.3549 15.5378C71.9052 16.4077 71.5887 17.5907 71.2548 18.5514C71.1293 18.88 71.1274 19.0521 70.8514 19.0811C70.4615 19.1275 70.0485 18.8375 70.1855 18.4122C70.4442 17.5172 71.1911 16.5005 71.4053 15.5397C71.4381 15.4141 71.4632 15.2691 71.5752 15.2092C71.7585 15.1241 72.2333 15.215 72.3858 15.331L72.3955 15.3445Z" fill="#563223"/>
<path d="M27.4688 14.0783C27.9398 14.9926 26.5018 14.1208 26.0406 14.1885C25.8089 14.2445 25.863 14.5422 25.7819 14.7375C25.7337 14.9752 25.4885 15.4353 25.2338 15.327C25.1508 15.2845 25.1392 15.1415 25.1489 15.041C25.2898 13.133 26.1274 13.0016 27.4514 14.0551L27.4688 14.0783Z" fill="#603D2F"/>
<path d="M31.2386 64.7086C31.0823 64.5636 30.7696 64.61 30.677 64.7975C30.5843 64.9734 30.6712 65.217 30.733 65.4084C31.1074 66.1835 30.7696 66.9258 30.3276 67.614C29.6946 68.712 28.3319 68.625 28.7604 67.1501C28.9168 66.429 29.2622 65.7795 29.0769 65.1165C28.7199 64.119 27.2607 64.8807 27.2607 65.6945C27.2607 65.7621 27.2955 65.8105 27.363 65.795C27.5117 65.7795 27.8706 65.4161 28.0366 65.3794C28.3165 65.3253 28.0637 66.025 28.027 66.2667C27.6989 67.4168 27.5483 69.3228 29.3491 68.8801C29.9127 68.7506 30.3469 68.3369 30.6828 67.902C31.1267 67.384 31.6652 65.2711 31.2599 64.726L31.2386 64.7067V64.7086Z" fill="#DD5742"/>
</g>
<defs>
<clipPath id="clip0_2596_5559">
<rect width="98" height="69" fill="white"/>
</clipPath>
</defs>
</svg>
