<?xml version="1.0" encoding="UTF-8"?>
<svg id="_레이어_1" data-name="레이어_1" xmlns="http://www.w3.org/2000/svg" version="1.1" viewBox="0 0 145.5 227.4">
  <!-- Generator: Adobe Illustrator 29.5.1, SVG Export Plug-In . SVG Version: 2.1.0 Build 141)  -->
  <defs>
    <style>
      .st0 {
        fill: #1d1d1b;
      }
    </style>
  </defs>
  <g>
    <path class="st0" d="M319.1,78c2.1,1.4,4.5,2.1,7.3,2.1,4.4,0,8.1-1.7,8.5-1.9.6-.3,1.1-.8,1.3-1.5.2-.7.2-1.4-.1-2-.6-1.3-2.2-1.9-3.5-1.2-.3.1-6.5,3-10.6.2-.6-.4-1.3-.5-2-.4-.7.1-1.3.5-1.7,1.1-.8,1.2-.5,2.8.7,3.6Z"/>
    <path class="st0" d="M300.7,76.7c.2-.7.2-1.4-.1-2-.6-1.3-2.2-1.9-3.5-1.2-.3.1-6.5,3-10.6.2-1.2-.8-2.8-.5-3.6.7-.8,1.2-.5,2.8.7,3.6,2.1,1.4,4.5,2.1,7.3,2.1,4.4,0,8.1-1.7,8.5-1.9.6-.3,1.1-.8,1.3-1.5Z"/>
    <path class="st0" d="M312.3,85.8c-.8-1.2-2.4-1.6-3.6-.8-1,.7-2.1.2-2.6,0-1-.6-1.7-1.6-1.7-2.6,0-1.6,1.5-3,3.3-3s2.6-1.2,2.6-2.6-1.2-2.6-2.6-2.6c-4.7,0-8.5,3.7-8.5,8.2s1.7,5.7,4.4,7.2c1.2.7,2.6,1,3.9,1s2.8-.4,4-1.2c1.2-.8,1.6-2.4.8-3.6Z"/>
    <path class="st0" d="M384.6,59.5c0-14.2-5.8-27.4-16.3-37.2-10.5-9.8-24.5-15.2-39.4-15.2s-26.2,3.8-35.9,10.9c-10,7.3-16.4,17.6-18.6,29.8-.4,2-.3,5.3-.2,8.5,0,.5,0,1,0,1.5v22.6c0,4.6.3,11.5,3.1,18.2,1.1,2.6,2.5,5,4.2,7.2l-3.2,2.5-3,2.4c-2.2,1.6-3.4,4.1-3.4,6.8,0,.2,0,.3,0,.5v24.9h-19.6c-2.4,0-4.7,1-6.3,2.8-1.7,1.9-2.5,4.5-2.2,7.1l1.8,15.2c-.9.6-1.7,1.4-2.6,2.4-2.6,3.3-4,8.2-4,14.6s0,1.6,0,2.4c0,9.7,0,17.3,4.4,21.8,1.9,1.9,4.4,3,7.2,3.1l1.7,14.5c.5,4.5,4.2,7.8,8.5,7.8h33.1c4.4,0,8-3.4,8.5-7.9l3.9-37.1v-.2s3.9-36.6,3.9-36.6c.3-2.6-.6-5.2-2.3-7.1-1.6-1.8-3.9-2.8-6.2-2.8h-13.7v-21.5l4.5-3.6,2.7-2.2c.6.2,1.2.4,1.8.7,7.7,2.8,15.4,3.7,22.2,3.7,14,0,24.6-3.8,24.7-3.9,3.1-1.2,9.5-4.6,13.7-9.8h7.8c1.2,0,2.3-1,2.3-2.2v-3.1c2.8-.5,5.2-1.8,7-3.7,2.6-2.7,3.9-6.7,3.8-11.2,0-.9-.1-1.8-.3-2.7,4.3-6.9,6.4-14.8,6.4-23.9ZM307,96.7c-1.5-2.2-4-3.5-6.6-3.5s-3.1.4-4.4,1.3c-.1,0-.3.2-.4.3l-8.6,6.7c0,0-.1-.2-.2-.3-5.1-6.6-5.7-15.1-5.7-20.9v-27.4h61.6l13.9,26.2c.3.7.9,1.2,1.5,1.5.2,0,.4.2.6.2.9.2,1.9,0,2.7-.4,1.1-.7,2.3-1,3.5-1,3.8,0,6.5,2.8,6.6,6.9,0,2.6-.6,4.8-1.9,6.2-1.1,1.2-2.7,1.8-4.8,1.8,0,0-.1,0-.2,0-1.4,0-2.8-.4-3.7-.7-.5-.2-.8-.3-1-.4-.8-.4-1.8-.4-2.7,0-.9.3-1.6,1-1.9,1.9-.9,2.3-2.1,5.2-2.5,5.8-2.8,4.3-8.4,7.6-11.5,8.7-.2,0-21,8-38.8,1.8h-.1c0,0-.1,0-.2,0-.1,0-.3-.1-.4-.2l-.9-.4,3.7-2.9c3.6-2.5,4.4-7.5,2-11.1ZM257.6,205c-.1.1-.3.2-.5.3-.3.2-.6.3-1,.4,0,0,0,0-.1,0h0c-.1,0-.2,0-.4.1,0,0,0,0,0,0-.1,0-.2,0-.3,0,0,0,0,0,0,0-.1,0-.2,0-.3,0,0,0,0,0,0,0-.1,0-.2,0-.3,0,0,0,0,0,0,0-.1,0-.2,0-.3,0,0,0,0,0,0,0,0,0-.1,0-.2,0,0,0,0,0-.1,0,0,0,0,0,0,0-.1,0-.2,0-.3,0,0,0,0,0,0,0,0,0-.2,0-.3,0,0,0,0,0,0,0,0,0-.2,0-.3,0,0,0,0,0,0,0,0,0-.2,0-.3,0,0,0,0,0,0,0,0,0-.2,0-.2,0,0,0,0,0,0,0,0,0-.1,0-.2,0,0,0,0,0,0,0,0,0-.1,0-.2,0,0,0,0,0,0,0,0,0-.1,0-.2,0h0c-.1,0-.2,0-.2,0h0c-.2,0-.4,0-.6,0s-.4,0-.6,0c0,0-.2,0-.3,0,0,0-.2,0-.3,0-.2,0-.3-.1-.5-.2-.2-.1-.5-.2-.7-.4-.3-.2-.6-.4-.8-.7-.2-.2-.4-.4-.5-.6-.1-.2-.2-.3-.3-.5-.1-.2-.2-.5-.4-.7,0-.1-.1-.2-.2-.4,0-.2-.2-.4-.2-.6,0-.1,0-.2,0-.3,0-.2-.1-.4-.2-.6,0-.1,0-.3-.1-.4,0-.2-.1-.5-.1-.7,0-.1,0-.3,0-.4,0-.4-.1-.7-.2-1.1,0-.1,0-.3,0-.4,0-.3,0-.5,0-.8,0-.2,0-.3,0-.5,0-.3,0-.6,0-.9,0-.3,0-.6,0-.9,0-.5,0-.9,0-1.4,0-.5,0-1,0-1.5,0-.3,0-.7,0-1,0-.3,0-.7,0-1,0-.2,0-.3,0-.5,0-.3,0-.7,0-1.1s0-.7,0-1.1c0-.9,0-1.8,0-2.8,0-2.6.2-4.7.6-6.4,0-.2.1-.5.2-.7,0-.2.1-.4.2-.6s.1-.4.2-.6c.1-.4.3-.7.4-1,0,0,0,0,0,0,.2-.3.3-.6.5-.9,0,0,0-.1.1-.2.1-.2.3-.4.4-.5,0,0,0-.1.1-.2.1-.2.3-.3.4-.4,0,0,.2-.2.3-.2,0,0,.2-.2.3-.2,0,0,0,0,.1,0,.1,0,.3-.2.4-.3.1,0,.3-.1.4-.2,0,0,.2,0,.2-.1,0,0,.1,0,.2,0,.2,0,.4-.1.5-.2,0,0,.1,0,.2,0,.2,0,.3,0,.4,0h.1s0,0,.1,0h0c.1,0,.2,0,.4,0h0c0,0,.1,0,.2,0,0,0,0,0,0,0h0s0,0,.1,0h.5s0,0,0,0c0,0,.2,0,.3,0h0c0,0,.1,0,.2,0,0,0,0,0,0,0,0,0,.2,0,.3,0,0,0,0,0,0,0,0,0,0,0,0,0,0,0,.1,0,.2,0,0,0,0,0,0,0,0,0,.2,0,.3,0,0,0,0,0,0,0,.1,0,.2,0,.3,0,0,0,0,0,0,0,0,0,.2,0,.3,0,0,0,0,0,0,0,.1,0,.2,0,.3,0,0,0,0,0,0,0,0,0,.2,0,.3,0,0,0,0,0,0,0,.1,0,.2,0,.3,0,0,0,0,0,0,0,.1,0,.2,0,.4,0h0c0,0,.2,0,.3,0,0,0,0,0,0,0,.1,0,.2,0,.4,0,0,0,0,0,0,0,.1,0,.2,0,.3,0,0,0,0,0,0,0,.1,0,.2,0,.4,0,.2,0,.4,0,.6.1.2,0,.4.1.6.2.3,0,.5.2.7.3.2.1.4.3.6.4.2.2.4.3.5.5,0,0,.1.2.2.3,0,.1.2.3.2.4,0,.1.1.3.2.5,0,.3.1.7.1,1,0,.1,0,.3,0,.5,0,.1,0,.2,0,.4,0,0,0,0,0,.1,0,0,0,.2,0,.2,0,0,0,0,0,.1,0,0,0,.1,0,.2,0,0,0,0,0,.1,0,0,0,.1,0,.2,0,0,0,0,0,.1,0,0,0,.1-.1.2,0,0,0,0,0,0-.2,0-.4,0-.6,0h-7.3c-1.5,0-2.7,1.2-2.7,2.7s0,0,0,0c0,.2,0,.4,0,.6.3,1.2,1.3,2.1,2.6,2.1h7.3c0,0,.1,0,.2,0,0,0,0,0,0,0,0,0,0,0,0,0,0,0,0,.2,0,.3,0,0,0,0,0,.1,0,0,0,.2,0,.2,0,0,0,0,0,.1,0,0,0,.2,0,.3,0,0,0,0,0,.1,0,.1,0,.3,0,.4s0,.3,0,.4c0,0,0,0,0,.1,0,0,0,.2,0,.3,0,0,0,0,0,0,0,.1,0,.2,0,.3,0,0,0,0,0,0,0,0,0,.2,0,.3,0,0,0,0,0,0,0,0,0,.1,0,.2,0,0,0,0-.1,0h-7.3c-.7,0-1.4.3-1.9.8-.5.5-.8,1.2-.8,1.9s.5,1.8,1.3,2.3c.4.2.9.4,1.4.4h6.8s0,0,0,.1c0,0,0,0,0,0,0,0,0,.2,0,.2,0,0,0,0,0,0,0,.1,0,.2,0,.3,0,.8-.2,1.6-.6,2.2h-6.4c-.3,0-.6,0-.9.1-1.1.4-1.8,1.4-1.8,2.5s1.1,2.5,2.4,2.7c0,0,.2,0,.3,0h5.7c0,0,0,.1,0,.2,0,0,0,0,0,.1,0,0,0,.1,0,.2,0,0,0,0,0,.1,0,.1,0,.2,0,.3,0,.7-.1,1.4-.4,2-.1.2-.2.4-.4.6-.2.3-.6.6-.9.9ZM301.8,150.4c.2,0,.4,0,.6.3.1.1.4.5.3,1.2l-.7,7h-13.4c-.2,0-.4,0-.7,0-1.6.3-2.8,1.7-2.8,3.4s0,.6.1.9c.4,1.5,1.7,2.5,3.3,2.5h12.7l-.7,6.5h-11.4c-1.9,0-3.4,1.5-3.4,3.4s1.5,3.4,3.4,3.4h10.7l-.7,6.5h-9.4c-1.9,0-3.4,1.5-3.4,3.4s1.5,3.4,3.4,3.4h8.6l-.7,6.5h-7.3c-1.9,0-3.4,1.5-3.4,3.4s1.5,3.4,3.4,3.4h6.6l-2.1,20c0,.6-.5,1.1-.9,1.1h-33.1c-.4,0-.8-.5-.9-1.1l-1.7-14.8c1.2-.5,2.4-1.1,3.3-1.9,2.2-1.9,3.5-4.6,3.5-7.7s-.2-2.1-.4-3c1.1-1.6,1.6-3.4,1.6-5.4s-.2-2-.5-3c.9-1.5,1.4-3.2,1.4-5.1s-.2-2.7-.7-3.9c.8-1.3,1.3-2.7,1.4-4.3.2-2.5-.5-4.9-2-6.8-.1-.2-.3-.4-.5-.5-1.6-1.7-3.8-2.7-6.4-3-1.8-.2-3.7-.3-5.8-.3l-1.6-14.3c0-.6.2-1,.3-1.2.2-.2.4-.3.6-.3h49.4ZM290,112.4l-3.2,2.6-4.4,3.5v24.3h-4.6v-24.9c0,0,0-.1,0-.2h0c0-.1,0-.3,0-.3,0,0,0-.2,0-.2,0-.2,0-.3,0-.4,0,0,0-.1,0-.2,0-.2.1-.3.2-.5.2-.3.4-.5.6-.7h0s0,0,0,0l3.8-3,3.1-2.4,3.1-2.5,10.2-8c0,0,.1,0,.2-.1,0,0,.2,0,.2-.1.2,0,.3-.1.5-.1.1,0,.2,0,.3,0,.2,0,.4,0,.6,0,0,0,.1,0,.2,0,.2,0,.3.2.5.3.2.1.3.2.4.4,0,0,.1.1.2.2.2.3.4.7.4,1.1,0,.8-.3,1.7-1,2.1h0s-8.3,6.7-8.3,6.7l-3.3,2.6Z"/>
  </g>
  <g>
    <path class="st0" d="M65.5,70.9c-2.1,1.4-4.5,2.1-7.3,2.1-4.4,0-8.1-1.7-8.5-1.9-.6-.3-1.1-.8-1.3-1.5-.2-.7-.2-1.4.1-2,.6-1.3,2.2-1.9,3.5-1.2.3.1,6.5,3,10.6.2.6-.4,1.3-.5,2-.4.7.1,1.3.5,1.7,1.1.8,1.2.5,2.8-.7,3.6Z"/>
    <path class="st0" d="M83.9,69.6c-.2-.7-.2-1.4.1-2,.6-1.3,2.2-1.9,3.5-1.2.3.1,6.5,3,10.6.2,1.2-.8,2.8-.5,3.6.7.8,1.2.5,2.8-.7,3.6-2.1,1.4-4.5,2.1-7.3,2.1-4.4,0-8.1-1.7-8.5-1.9-.6-.3-1.1-.8-1.3-1.5Z"/>
    <path class="st0" d="M72.3,78.7c.8-1.2,2.4-1.6,3.6-.8,1,.7,2.1.2,2.6,0,1-.6,1.7-1.6,1.7-2.6,0-1.6-1.5-3-3.3-3s-2.6-1.2-2.6-2.6,1.2-2.6,2.6-2.6c4.7,0,8.5,3.7,8.5,8.2s-1.7,5.7-4.4,7.2c-1.2.7-2.6,1-3.9,1s-2.8-.4-4-1.2c-1.2-.8-1.6-2.4-.8-3.6Z"/>
    <path class="st0" d="M6.4,76.2c-.2.9-.3,1.8-.3,2.7-.2,4.5,1.2,8.4,3.8,11.2,1.8,1.9,4.2,3.2,7,3.7v3.1c0,1.2,1.1,2.2,2.3,2.2h7.8c4.2,5.3,10.5,8.6,13.7,9.8.2,0,10.8,3.9,24.7,3.9,6.9,0,14.6-.9,22.2-3.7.7-.2,1.2-.5,1.8-.7l2.7,2.2,4.5,3.6v18.2s0,3.4,0,3.4h-8.9s-4.8,0-4.8,0c-2.4,0-4.6,1-6.2,2.8-1.7,1.9-2.5,4.5-2.3,7.1l3.9,36.6v.2s3.9,37.1,3.9,37.1c.5,4.5,4.1,7.9,8.5,7.9h33.1c4.3,0,8-3.4,8.5-7.8l1.7-14.5c2.8-.1,5.3-1.2,7.2-3.1,4.5-4.5,4.5-12.1,4.4-21.8,0-.8,0-1.6,0-2.4,0-6.4-1.3-11.3-4-14.6-.8-1-1.7-1.8-2.6-2.4l1.8-15.2c.3-2.6-.5-5.2-2.2-7.1-1.6-1.8-3.9-2.8-6.3-2.8h-19.6v-24.9c0-.2,0-.3,0-.5,0-2.7-1.2-5.2-3.4-6.8l-3-2.4-3.2-2.5c1.7-2.2,3.1-4.6,4.2-7.2,2.8-6.7,3.1-13.6,3.1-18.2v-22.6c0-.5,0-1,0-1.5,0-3.2.2-6.5-.2-8.5-2.1-12.2-8.6-22.5-18.6-29.8C81.9,3.8,69.5,0,55.8,0S26.8,5.4,16.3,15.2C5.8,25,0,38.2,0,52.3s2.1,16.9,6.4,23.9ZM79.6,100.6l3.7,2.9-.9.4c-.1,0-.3.1-.4.2,0,0-.1,0-.2,0h-.1c-17.8,6.2-38.6-1.7-38.8-1.8-3.1-1.1-8.6-4.4-11.5-8.7-.3-.6-1.5-3.5-2.5-5.8-.3-.9-1-1.6-1.9-1.9-.9-.3-1.9-.3-2.7,0-.2,0-.5.2-1,.4-.9.3-2.3.7-3.7.7s-.1,0-.2,0c-2.1,0-3.7-.7-4.8-1.8-1.3-1.4-2-3.6-1.9-6.2.1-4.1,2.9-6.9,6.6-6.9s2.5.4,3.5,1c.8.5,1.8.7,2.7.4.2,0,.4-.1.6-.2.7-.3,1.2-.8,1.5-1.5l13.9-26.2h61.6v27.4c0,5.8-.6,14.3-5.7,20.9,0,.1-.1.2-.2.3l-8.6-6.7c-.1-.1-.3-.2-.4-.3-1.3-.8-2.8-1.3-4.4-1.3-2.7,0-5.1,1.3-6.6,3.5-2.5,3.6-1.6,8.6,2,11.1ZM126.1,197c-.1-.2-.3-.4-.4-.6-.3-.6-.4-1.3-.4-2s0-.2,0-.3c0,0,0,0,0-.1,0,0,0-.1,0-.2,0,0,0,0,0-.1,0,0,0-.1,0-.2h2.1s3.6,0,3.6,0c0,0,.2,0,.3,0,1.4-.1,2.4-1.3,2.4-2.7s-.8-2.2-1.8-2.5c-.3,0-.6-.1-.9-.1h-3s-3.4,0-3.4,0c-.4-.6-.6-1.3-.6-2.2s0-.2,0-.3c0,0,0,0,0,0,0,0,0-.2,0-.2,0,0,0,0,0,0,0,0,0,0,0-.1h4.3s2.5,0,2.5,0c.5,0,1-.1,1.4-.4.8-.5,1.3-1.3,1.3-2.3s-.3-1.4-.8-1.9c-.5-.5-1.1-.8-1.9-.8h-1.9s-5.4,0-5.4,0c0,0,0,0-.1,0,0,0,0-.1,0-.2,0,0,0,0,0,0,0,0,0-.2,0-.3,0,0,0,0,0,0,0-.1,0-.2,0-.3,0,0,0,0,0,0,0,0,0-.2,0-.3,0,0,0,0,0-.1,0-.1,0-.3,0-.4s0-.3,0-.4c0,0,0,0,0-.1,0,0,0-.2,0-.3,0,0,0,0,0-.1,0,0,0-.2,0-.2,0,0,0,0,0-.1,0,0,0-.2,0-.3,0,0,0,0,0,0,0,0,0,0,0,0,0,0,.1,0,.2,0h5.8s1.5,0,1.5,0c1.3,0,2.3-.9,2.6-2.1,0-.2,0-.4,0-.6,0,0,0,0,0,0,0-1.5-1.2-2.7-2.7-2.7h-.9s-6.5,0-6.5,0c-.2,0-.4,0-.6,0,0,0,0,0,0,0,0,0,0-.1-.1-.2,0,0,0,0,0-.1,0,0,0-.1,0-.2,0,0,0,0,0-.1,0,0,0-.1,0-.2,0,0,0,0,0-.1,0,0,0-.1,0-.2,0,0,0,0,0-.1,0-.1,0-.2,0-.4,0-.2,0-.3,0-.5,0-.4,0-.7.1-1,0-.2,0-.3.2-.5,0-.1.1-.3.2-.4,0-.1.1-.2.2-.3.1-.2.3-.4.5-.5.2-.2.4-.3.6-.4.2-.1.5-.2.7-.3.2,0,.4-.1.6-.2.2,0,.4,0,.6-.1.1,0,.2,0,.4,0,0,0,0,0,0,0,.1,0,.2,0,.3,0,0,0,0,0,0,0,.1,0,.2,0,.4,0,0,0,0,0,0,0,0,0,.2,0,.3,0h0c.1,0,.2,0,.4,0,0,0,0,0,0,0,.1,0,.2,0,.3,0,0,0,0,0,0,0,0,0,.2,0,.3,0,0,0,0,0,0,0,.1,0,.2,0,.3,0,0,0,0,0,0,0,0,0,.2,0,.3,0,0,0,0,0,0,0,.1,0,.2,0,.3,0,0,0,0,0,0,0,0,0,.2,0,.3,0,0,0,0,0,0,0,0,0,.1,0,.2,0,0,0,0,0,0,0,0,0,0,0,0,0,0,0,.2,0,.3,0,0,0,0,0,0,0,0,0,.1,0,.2,0h0c0,0,.2,0,.3,0s0,0,0,0h.5s0,0,.1,0h0s0,0,0,0c0,0,.1,0,.2,0h0c.1,0,.3,0,.4,0h0s0,0,.1,0h.1c.1,0,.2,0,.4,0,0,0,.1,0,.2,0,.2,0,.3,0,.5.2,0,0,.1,0,.2,0,0,0,.2,0,.2.1.1,0,.2.1.4.2.1,0,.3.2.4.3,0,0,0,0,.1,0,0,0,.2.1.3.2,0,0,.2.2.3.2.1.1.3.3.4.4,0,0,0,.1.1.2.1.2.3.3.4.5,0,0,0,.1.1.2.2.3.3.6.5.9,0,0,0,0,0,0,.2.3.3.7.4,1,0,.2.1.4.2.6s.1.4.2.6c0,.2.1.5.2.7.4,1.7.6,3.8.6,6.4s0,1.9,0,2.8c0,.4,0,.7,0,1.1s0,.7,0,1.1c0,.2,0,.3,0,.5,0,.3,0,.7,0,1,0,.3,0,.7,0,1,0,.5,0,1,0,1.5,0,.5,0,.9,0,1.4,0,.3,0,.6,0,.9,0,.3,0,.6,0,.9,0,.2,0,.3,0,.5,0,.3,0,.5,0,.8,0,.1,0,.3,0,.4,0,.4-.1.7-.2,1.1,0,.1,0,.3,0,.4,0,.2,0,.5-.1.7,0,.1,0,.3-.1.4,0,.2-.1.4-.2.6,0,.1,0,.2,0,.3,0,.2-.1.4-.2.6,0,.1-.1.2-.2.4-.1.2-.2.5-.4.7,0,.2-.2.3-.3.5-.2.2-.3.4-.5.6-.2.3-.5.5-.8.7-.2.1-.4.3-.7.4-.2,0-.3.1-.5.2,0,0-.2,0-.3,0,0,0-.2,0-.3,0-.2,0-.4,0-.6,0s-.4,0-.6,0h0c0,0-.1,0-.2,0h0s-.1,0-.2,0c0,0,0,0,0,0,0,0-.1,0-.2,0,0,0,0,0,0,0,0,0-.1,0-.2,0,0,0,0,0,0,0,0,0-.2,0-.2,0,0,0,0,0,0,0,0,0-.2,0-.3,0,0,0,0,0,0,0,0,0-.2,0-.3,0,0,0,0,0,0,0,0,0-.2,0-.3,0,0,0,0,0,0,0,0,0-.2,0-.3,0,0,0,0,0,0,0,0,0,0,0-.1,0,0,0-.1,0-.2,0,0,0,0,0,0,0-.1,0-.2,0-.3,0,0,0,0,0,0,0-.1,0-.2,0-.3,0,0,0,0,0,0,0-.1,0-.2,0-.3,0,0,0,0,0,0,0-.1,0-.2,0-.3,0,0,0,0,0,0,0-.1,0-.2,0-.4-.1h0s0,0-.1,0c-.4-.1-.7-.3-1-.4-.2,0-.3-.2-.5-.3-.4-.3-.7-.6-.9-.9ZM96.5,143.3h1.2s4.5,0,4.5,0h4.6s1.2,0,1.2,0h4.6s19.6,0,19.6,0c.2,0,.4,0,.6.3.1.1.4.5.3,1.2l-1.6,14.3c-2.1,0-4.1.1-5.8.3-2.5.3-4.7,1.3-6.4,3-.2.2-.3.4-.5.5-1.5,1.9-2.2,4.2-2,6.8.1,1.6.6,3,1.4,4.3-.5,1.2-.7,2.5-.7,3.9s.5,3.6,1.4,5.1c-.3.9-.5,1.9-.5,3,0,2,.6,3.8,1.6,5.4-.3.9-.4,1.9-.4,3,0,3.1,1.3,5.8,3.5,7.7.9.8,2,1.4,3.3,1.9l-1.7,14.8c0,.6-.5,1.1-.9,1.1h-33.1c-.4,0-.8-.5-.9-1.1l-2.1-20h6.6c1.9,0,3.4-1.5,3.4-3.4s-1.5-3.4-3.4-3.4h-7.3s-.7-6.5-.7-6.5h8.6c1.9,0,3.4-1.5,3.4-3.4s-1.5-3.4-3.4-3.4h-9.4s-.7-6.5-.7-6.5h10.7c1.9,0,3.4-1.5,3.4-3.4s-1.5-3.4-3.4-3.4h-11.4s-.7-6.5-.7-6.5h12.7c1.6,0,2.9-1.1,3.3-2.5,0-.3.1-.6.1-.9,0-1.7-1.2-3.1-2.8-3.4-.2,0-.4,0-.7,0h-13.4s-.7-7-.7-7c0-.6.2-1,.3-1.2.2-.2.4-.3.6-.3h13.7ZM91.3,102.7l-8.3-6.6h0c-.7-.5-1.1-1.4-1-2.2,0-.4.2-.7.4-1.1,0,0,.1-.2.2-.2.1-.1.3-.3.4-.4.2-.1.3-.2.5-.3,0,0,.1,0,.2,0,.2,0,.4,0,.6,0s.2,0,.3,0c.2,0,.3,0,.5.1,0,0,.2,0,.2.1,0,0,.1,0,.2.1l10.2,8,3.1,2.5,3.1,2.4,3.8,3h0s0,0,0,0c.3.2.5.4.6.7,0,.2.2.3.2.5,0,0,0,.1,0,.2,0,.1,0,.3,0,.4,0,0,0,.2,0,.2h0c0,.1,0,.3,0,.3,0,0,0,.1,0,.2v24.9h-4.6v-24.3s-4.4-3.5-4.4-3.5l-3.2-2.6-3.3-2.6Z"/>
  </g>
</svg>