<svg width="25" height="24" viewBox="0 0 25 24" fill="none" xmlns="http://www.w3.org/2000/svg">
<g clip-path="url(#clip0_2569_6021)">
<path d="M23.78 8.46L24.5 8.25V5C24.5 3.35 23.15 2 21.5 2H3.5C1.85 2 0.5 3.35 0.5 5V8.24L1.21 8.46C1.34 8.5 2.5 8.89 2.5 10C2.5 11.11 1.35 11.5 1.22 11.54L0.5 11.75V22H24.5V11.76L23.79 11.54C23.66 11.5 22.5 11.11 22.5 10C22.5 8.89 23.65 8.5 23.78 8.46ZM2.5 18H5.5V20H2.5V18ZM17.5 20H15.5V18H17.5V20ZM13.5 20H11.5V18H13.5V20ZM9.5 20H7.5V18H9.5V20ZM19.5 20V18H22.5V20H19.5ZM22.5 6.84C21.58 7.34 20.5 8.35 20.5 10C20.5 11.65 21.58 12.66 22.5 13.16V16H2.5V13.16C3.42 12.66 4.5 11.65 4.5 10C4.5 8.35 3.42 7.34 2.5 6.84V5C2.5 4.45 2.95 4 3.5 4H21.5C22.05 4 22.5 4.45 22.5 5V6.84ZM11.5 6H13.5V14H11.5V6ZM6.5 6H8.5V14H6.5V6ZM16.5 6H18.5V14H16.5V6Z" fill="#868793"/>
</g>
<defs>
<clipPath id="clip0_2569_6021">
<rect width="24" height="24" fill="white" transform="translate(0.5)"/>
</clipPath>
</defs>
</svg>
