<svg width="24" height="24" viewBox="0 0 24 24" fill="none" xmlns="http://www.w3.org/2000/svg">
<path d="M12 13.5C12.8284 13.5 13.5 12.8284 13.5 12C13.5 11.1716 12.8284 10.5 12 10.5C11.1716 10.5 10.5 11.1716 10.5 12C10.5 12.8284 11.1716 13.5 12 13.5Z" fill="#8C8B97"/>
<path d="M15.2901 18.1199L14.0001 16.7799L13.9301 16.7099L12.6601 15.4399C12.4585 15.4752 12.2546 15.4952 12.0501 15.4999C11.5863 15.5065 11.1257 15.4209 10.6953 15.2479C10.2649 15.075 9.87313 14.8183 9.54281 14.4926C9.21249 14.1669 8.9502 13.7788 8.77119 13.3509C8.59218 12.923 8.50002 12.4637 8.50007 11.9999C8.50471 11.7953 8.52477 11.5914 8.56007 11.3899L6.56007 9.38987L5.00007 7.86987C3.87139 8.93334 2.90448 10.1563 2.13007 11.4999C2.0423 11.6519 1.99609 11.8243 1.99609 11.9999C1.99609 12.1754 2.0423 12.3479 2.13007 12.4999C2.76007 13.5899 6.13007 18.9999 12.0201 18.9999H12.2701C13.3776 18.967 14.4708 18.7403 15.5001 18.3299L15.2901 18.1199Z" fill="#8C8B97"/>
<path d="M8.59 5.75987L11.39 8.55987C11.5915 8.52457 11.7954 8.50451 12 8.49987C12.9283 8.49987 13.8185 8.86862 14.4749 9.525C15.1313 10.1814 15.5 11.0716 15.5 11.9999C15.4954 12.2044 15.4753 12.4083 15.44 12.6099L18.12 15.2899L18.96 16.1299C20.1028 15.0692 21.0834 13.8461 21.87 12.4999C21.9578 12.3479 22.004 12.1754 22.004 11.9999C22.004 11.8243 21.9578 11.6519 21.87 11.4999C21.23 10.3899 17.71 4.81987 11.73 4.99987C10.6225 5.03273 9.52924 5.25949 8.5 5.66987L8.59 5.75987Z" fill="#8C8B97"/>
<path d="M20.7102 19.2899L19.4102 17.9999L17.4102 15.9999L7.89019 6.46994L6.42019 4.99994L4.71019 3.28994C4.61695 3.1967 4.50626 3.12274 4.38443 3.07228C4.26261 3.02182 4.13204 2.99585 4.00019 2.99585C3.86833 2.99585 3.73776 3.02182 3.61594 3.07228C3.49411 3.12274 3.38342 3.1967 3.29019 3.28994C3.10188 3.47825 2.99609 3.73364 2.99609 3.99994C2.99609 4.26624 3.10188 4.52164 3.29019 4.70994L5.53019 6.99994L7.28019 8.69994L14.5902 15.9999L14.6602 16.0699L16.0002 17.4099L16.5902 17.9999L19.2902 20.7099C19.3831 20.8037 19.4937 20.8781 19.6156 20.9288C19.7375 20.9796 19.8682 21.0057 20.0002 21.0057C20.1322 21.0057 20.2629 20.9796 20.3848 20.9288C20.5066 20.8781 20.6172 20.8037 20.7102 20.7099C20.8039 20.617 20.8783 20.5064 20.9291 20.3845C20.9798 20.2627 21.006 20.132 21.006 19.9999C21.006 19.8679 20.9798 19.7372 20.9291 19.6154C20.8783 19.4935 20.8039 19.3829 20.7102 19.2899Z" fill="#8C8B97"/>
</svg>
