<svg width="98" height="42" viewBox="0 0 98 42" fill="none" xmlns="http://www.w3.org/2000/svg">
<path d="M95.6396 37.6321C95.2149 37.6321 94.854 37.8969 94.7054 38.268H87.043V39.0123H94.7054C94.854 39.3853 95.2149 39.6482 95.6396 39.6482C96.1954 39.6482 96.6471 39.1959 96.6471 38.6392C96.6471 38.0825 96.1954 37.6301 95.6396 37.6301V37.6321Z" fill="#DD5742"/>
<path d="M2.84149 37.6321C3.26611 37.6321 3.62703 37.8969 3.77565 38.268H11.4381V39.0123H3.77565C3.62703 39.3853 3.26611 39.6482 2.84149 39.6482C2.28562 39.6482 1.83398 39.1959 1.83398 38.6392C1.83398 38.0825 2.28562 37.6301 2.84149 37.6301V37.6321Z" fill="#DD5742"/>
<path d="M8.82789 12.5199C7.98058 13.9059 7.65247 20.9866 9.51307 22.2721C10.5379 22.9545 12.9004 22.7534 12.3156 24.325L1.23301 24.4796C0.522739 23.0453 2.51459 22.9757 3.21907 22.1716C5.12985 18.6303 4.24201 6.9682 3.86178 3.38434C3.80388 1.29665 -0.648822 2.20905 0.0807493 0.374593C1.3797 0.378459 12.497 -0.912815 11.0166 1.27732C7.40542 1.81664 8.25658 6.87155 8.33765 9.53335C9.39147 11.6558 16.9902 10.2119 19.067 10.4032C20.9392 9.61647 20.1594 3.33988 18.8412 2.10853C18.127 1.6504 15.2223 1.75285 16.1564 0.335929C18.0132 -0.377364 21.1978 0.757333 23.3132 0.351394C24.1006 0.328198 26.5924 -0.284577 26.9765 0.339796C22.3462 4.15176 24.1199 13.5695 24.1759 19.5755C23.6355 22.9641 28.0535 22.1233 27.7562 24.3269H17.1137C16.7046 22.9429 18.5864 22.881 19.26 22.0034C20.5531 19.9583 19.9355 15.9433 19.9355 13.5753C21.0897 11.4045 9.27374 12.9703 8.82789 12.5218V12.5199ZM3.52016 22.9583C6.74533 22.6703 6.49056 2.17425 3.61859 1.49962C6.38247 5.73879 4.73032 12.8563 4.684 20.1651C4.68014 20.9151 3.89846 22.332 3.51823 22.9603L3.52016 22.9583ZM19.3468 23.1516C22.408 23.2831 22.5103 0.326265 19.1538 1.59627C22.3906 5.59961 21.2229 18.9376 19.3468 23.1516Z" fill="#563223"/>
<path d="M75.316 16.9659C75.5225 12.5295 77.578 1.69097 71.4423 1.42227C71.1837 1.08979 71.1277 0.51954 71.5832 0.370696C74.295 0.896484 77.9235 -0.0623067 80.3226 0.650987C74.6327 5.84701 78.6125 16.1869 77.2557 23.4474C76.1382 29.5171 61.9829 4.42042 59.6919 6.62216C59.4468 11.418 58.7906 17.8222 60.6415 22.2875C69.4736 25.4287 56.9088 24.1877 54.888 24.4758C54.776 24.4042 54.5772 23.5208 54.6892 23.3662C59.2808 22.0343 57.7541 10.3046 57.9568 6.42112C58.1537 0.618126 54.6313 3.05763 54.1738 0.726375C62.6006 -3.45673 69.9831 13.672 75.316 16.9639V16.9659ZM75.8371 1.94999C72.4787 0.660652 75.866 2.52411 75.8776 3.94683C76.2907 5.50293 76.6168 2.29987 75.8371 1.94999ZM75.7039 22.9583C71.0389 15.8756 64.5114 6.47332 57.179 1.89007C60.5836 4.41462 72.5888 20.1921 75.7039 22.9583ZM56.598 23.5382C58.6922 22.8578 58.6613 20.9499 58.3312 19.0942C57.6403 20.2907 57.6074 22.2663 56.598 23.5382Z" fill="#563223"/>
<path d="M46.7818 12.2955C47.7989 12.5874 54.8997 11.7717 54.2821 13.291C45.6392 11.8645 48.1386 16.9812 51.4777 22.3841C52.215 22.9679 54.8244 23.2037 53.5081 24.5993L43.4891 24.4853C43.5296 22.502 45.8052 23.5168 45.8032 21.1199C44.3827 12.6473 41.1324 14.9805 35.8517 19.096C31.8661 22.2758 34.4833 22.2623 37.2993 23.83C38.0964 25.187 29.3531 24.5394 28.502 24.3094C33.6707 21.2648 39.0981 -1.75191 41.8813 0.67213L46.7798 12.2936L46.7818 12.2955ZM40.9317 5.01568C39.6501 6.17551 46.4768 17.4954 46.5733 21.1779C45.8418 23.022 47.0057 22.5735 47.1466 21.1257C47.7333 19.8209 41.3775 6.4384 40.9298 5.01568H40.9317ZM42.7016 13.0997C39.0865 0.652799 38.7024 10.0107 35.5603 15.9992C37.5753 14.8819 40.3392 13.1422 42.7016 13.0997ZM40.7696 14.0681C35.539 14.9902 32.9083 19.8731 30.349 23.5381C34.4968 21.8119 31.7117 18.0521 40.7696 14.0681Z" fill="#563223"/>
<path d="M97.7798 15.1604C100.173 26.8398 82.0342 28.5989 82.4646 16.8421C83.6014 13.6429 86.0294 23.5942 89.7429 23.1032C94.0084 23.8281 97.4478 19.357 93.937 16.1965C90.7929 13.3646 83.7018 12.891 83.0552 7.95784C82.065 0.0497544 89.6522 -1.06948 95.4444 1.06847C97.4189 -0.263399 96.89 2.40033 96.9383 3.71867C97.9496 6.76901 96.9634 10.3045 95.427 5.23224C92.9198 -1.53148 80.824 2.68836 88.1487 8.07768C92.2868 10.4785 96.0832 9.63572 97.7817 15.1584L97.7798 15.1604ZM96.3535 5.36756C96.3631 3.19481 94.7032 1.44541 92.4952 1.5034C94.1512 2.41967 95.1935 3.95837 96.3535 5.36756ZM96.3535 19.8654C98.0809 10.9212 82.2523 13.3936 84.1997 3.62975C80.1967 13.8923 96.1952 11.4276 96.3535 19.8654ZM83.4238 16.5792C82.8911 16.4613 82.9953 16.8382 83.0552 17.2403C83.4721 18.1624 83.723 23.2772 85.1609 22.5716L83.4238 16.5792Z" fill="#563223"/>
<path d="M53.1548 37.8387C53.2282 37.8542 53.3247 37.7266 53.3903 37.6686C54.0195 37.023 54.9537 36.7021 55.3088 37.5237C55.3493 37.6087 55.3899 37.7034 55.4439 37.773C55.5018 37.8639 55.6195 37.8755 55.7218 37.7943C57.7002 36.1647 58.4336 37.3149 57.7716 40.0192C57.7484 40.1391 57.6789 40.344 57.7137 40.429C57.7291 40.4696 57.7658 40.4773 57.8102 40.4715C58.0109 40.4426 58.5108 40.1661 58.6787 40.1623C58.7192 40.1719 58.7019 40.2029 58.6864 40.2415C58.5205 40.5102 58.229 40.9935 57.9646 41.21C57.6693 41.4941 57.1443 41.4149 56.9127 41.1114C56.5402 40.6107 56.8857 39.4238 57.0073 38.5366C57.0806 38.0881 57.1076 37.6532 56.6328 37.7189C55.4014 38.0031 55.2432 40.5991 54.9228 41.1732C54.8803 41.2583 54.8243 41.3066 54.7259 41.3337C54.3862 41.3955 53.7898 41.4342 53.979 40.8968C54.2183 39.938 54.6429 39.0024 54.6622 38.0224C54.6699 37.8001 54.5232 37.6048 54.2916 37.6145C52.7842 37.7344 52.8325 40.7924 52.4619 41.3105C52.3133 41.3955 52.0026 41.3588 51.8115 41.3569C51.6571 41.3433 51.5027 41.3569 51.5393 41.1906C51.6165 40.8137 51.8713 39.6229 52.0605 38.7318L52.2477 37.8465C52.2708 37.7382 52.2747 37.6474 52.1415 37.6686C51.935 37.7189 51.8018 37.9315 51.7555 38.1268C51.7208 38.2466 51.686 38.3491 51.6165 38.3858C51.5162 38.4515 51.3734 38.3104 51.3656 38.179C51.356 38.0804 51.3618 38.0842 51.3656 38.034C51.4544 37.2878 52.7707 36.5107 53.0448 37.5469C53.0795 37.6532 53.0718 37.7576 53.1452 37.8349L53.1587 37.8407L53.1548 37.8387Z" fill="#DD5742"/>
<path d="M64.9878 37.8387C65.0612 37.8542 65.1577 37.7266 65.2233 37.6686C65.8525 37.023 66.7867 36.7021 67.1418 37.5237C67.1823 37.6087 67.2229 37.7034 67.2769 37.773C67.3348 37.8639 67.4525 37.8755 67.5548 37.7943C69.5332 36.1647 70.2666 37.3149 69.6046 40.0192C69.5814 40.1391 69.5119 40.344 69.5467 40.429C69.5621 40.4696 69.5988 40.4773 69.6432 40.4715C69.8439 40.4426 70.3438 40.1661 70.5117 40.1623C70.5523 40.1719 70.5349 40.2029 70.5194 40.2415C70.3535 40.5102 70.062 40.9935 69.7976 41.21C69.5023 41.4941 68.9773 41.4149 68.7457 41.1114C68.3732 40.6107 68.7187 39.4238 68.8403 38.5366C68.9136 38.0881 68.9406 37.6532 68.4658 37.7189C67.2344 38.0031 67.0762 40.5991 66.7558 41.1732C66.7133 41.2583 66.6573 41.3066 66.5589 41.3337C66.2192 41.3955 65.6228 41.4342 65.812 40.8968C66.0513 39.938 66.4759 39.0024 66.4952 38.0224C66.5029 37.8001 66.3563 37.6048 66.1246 37.6145C64.6172 37.7344 64.6655 40.7924 64.2949 41.3105C64.1463 41.3955 63.8356 41.3588 63.6445 41.3569C63.4901 41.3433 63.3357 41.3569 63.3723 41.1906C63.4496 40.8137 63.7043 39.6229 63.8935 38.7318L64.0807 37.8465C64.1038 37.7382 64.1077 37.6474 63.9745 37.6686C63.768 37.7189 63.6348 37.9315 63.5885 38.1268C63.5538 38.2466 63.519 38.3491 63.4495 38.3858C63.3492 38.4515 63.2064 38.3104 63.1986 38.179C63.189 38.0804 63.1948 38.0842 63.1986 38.034C63.2874 37.2878 64.6037 36.5107 64.8778 37.5469C64.9126 37.6532 64.9048 37.7576 64.9782 37.8349L64.9917 37.8407L64.9878 37.8387Z" fill="#DD5742"/>
<path d="M42.8378 37.2532C45.4029 36.5205 44.8355 38.9059 44.3201 40.1914C44.1985 40.4949 44.5073 40.5915 44.6907 40.8003C45.0593 41.3435 43.7488 41.4885 43.5423 41.2082C43.4632 41.1231 43.4342 40.9917 43.4246 40.8699C43.3821 40.1411 43.6349 39.4066 43.772 38.7145C43.8743 38.21 44.0055 37.4387 43.2895 37.7848C42.1893 38.4072 42.0484 40.232 41.7145 41.2217C41.562 41.4305 41.039 41.3435 40.846 41.3319C40.7553 41.3126 40.7456 41.2797 40.763 41.2082C40.9695 40.3808 42.3206 35.0534 42.4653 34.4522C42.4615 34.3111 42.1777 34.3613 42.0002 34.2898C41.8014 34.2299 41.9172 34.1274 42.0388 34.083C42.5329 33.8761 43.1293 34.0076 43.662 33.9825" fill="#DD5742"/>
<path d="M15.6842 41.1888C15.6938 41.0612 16.0548 40.7751 16.2709 40.6031C16.6029 40.3595 16.7882 40.0599 16.8982 39.6752C17.209 38.6855 17.8285 36.4432 17.925 35.668C17.9887 35.3626 17.6625 35.2524 17.4811 35.0823C17.1375 34.7073 17.981 34.8175 18.2917 34.831C18.5581 34.9045 20.326 34.5546 19.7702 35.1616C19.5347 35.3703 19.1854 35.5675 19.0561 35.8903C18.6025 36.8182 18.2628 38.8131 17.9713 40.0077C17.9308 40.1739 17.8884 40.4001 17.9501 40.5315C18.0775 40.7983 18.477 40.777 18.7472 40.7732C20.1215 40.7364 21.2004 40.1101 22.1037 39.1398C22.4067 38.8769 22.1287 39.5302 22.0168 39.9342C21.8913 40.3266 21.7698 40.7326 21.6868 40.9723C21.5941 41.2642 21.4957 41.3628 21.2197 41.3531C20.3067 41.3531 17.0295 41.3531 15.9911 41.3531C15.8676 41.3531 15.6668 41.3338 15.6803 41.2023V41.1888H15.6842Z" fill="#DD5742"/>
<path d="M76.1905 37.8117C76.2986 37.891 76.4221 37.8253 76.5784 37.6784C76.949 37.2724 77.5898 36.8916 78.1611 37.1236C79.1841 37.5141 78.2229 39.9342 78.1244 40.5605C78.1051 40.6553 78.1592 40.6939 78.2422 40.6553C78.605 40.4967 79.489 39.7622 79.0528 40.6765C78.3252 41.9755 77.227 41.4787 77.2868 40.0947C77.2984 39.5225 77.4972 38.96 77.5975 38.3975C77.6303 38.1674 77.6902 37.7963 77.4007 37.7267C77.1401 37.6648 76.6672 38.0727 76.4472 38.4052C75.8527 39.2113 75.6617 40.5857 75.5227 41.0921C75.4436 41.4188 74.99 41.4401 74.7198 41.3009C74.4998 41.181 74.5075 40.9123 74.5538 40.692C74.7159 39.826 75.1618 38.9948 75.1927 38.1017C75.1811 37.9567 75.154 37.7248 74.9977 37.7209C74.8742 37.6822 74.5731 38.3685 74.5306 38.0186C74.5036 37.3381 75.4204 36.6925 75.8219 37.257C75.9531 37.4271 76.0187 37.6571 76.1751 37.804L76.1924 37.8175L76.1905 37.8117Z" fill="#DD5742"/>
<path d="M23.2636 41.185C21.9511 40.1353 22.9856 38.0883 24.1784 37.344C24.8713 36.855 25.8711 36.8086 26.4077 37.5219C27.1701 38.4865 26.3594 40.3557 25.3056 41.0303C24.7382 41.3725 23.8831 41.5291 23.2906 41.2024L23.2616 41.185H23.2636ZM25.0431 37.2938C24.0202 37.5103 23.694 39.1205 23.7326 40.0484C23.7673 40.435 23.804 40.8022 24.1495 40.9337C25.4426 41.2294 26.3903 37.3092 25.0721 37.2899H25.0431V37.2938Z" fill="#DD5742"/>
<path d="M59.4638 41.185C58.1513 40.1353 59.1858 38.0883 60.3786 37.344C61.0715 36.855 62.0713 36.8086 62.6079 37.5219C63.3703 38.4865 62.5596 40.3557 61.5058 41.0303C60.9384 41.3725 60.0833 41.5291 59.4908 41.2024L59.4618 41.185H59.4638ZM61.2433 37.2938C60.2204 37.5103 59.8942 39.1205 59.9328 40.0484C59.9675 40.435 60.0042 40.8022 60.3497 40.9337C61.6428 41.2294 62.5905 37.3092 61.2723 37.2899H61.2433V37.2938Z" fill="#DD5742"/>
<path d="M39.1707 36.0218C39.7284 36.0141 39.7323 36.3795 39.6474 36.826C39.6358 36.8821 39.5586 37.0522 39.6204 37.0812C39.8886 37.1101 40.2225 37.114 40.4735 37.2223C40.8614 37.3866 40.6761 37.549 40.4426 37.605C40.1704 37.6707 39.6223 37.6669 39.3444 37.6785C39.2845 37.6804 39.2343 37.721 39.2189 37.779C39.0606 38.355 38.8541 38.9233 38.7422 39.5129C38.6901 39.7874 38.5279 40.6824 38.9197 40.7617C39.1552 40.8081 39.7748 40.4794 39.8983 40.2784C39.9311 40.2224 39.9523 40.1624 39.9678 40.1006C39.9871 40.029 40.0604 39.9846 40.1318 40.002C40.3789 40.0638 40.5063 40.2127 40.3248 40.5007C40.0604 40.9182 39.2054 41.3107 38.7229 41.3396C37.0244 41.4402 37.8601 39.0567 38.194 38.1907C38.2288 38.0979 38.3793 37.8138 38.3581 37.7345C38.2983 37.5238 37.5146 37.5741 37.4123 37.402C37.3544 37.3054 37.4413 37.1604 37.5243 37.1237C37.7424 37.027 38.3774 37.1063 38.499 36.9052C38.6109 36.7177 38.553 36.2364 38.7229 36.1185C38.8059 36.0605 39.0703 36.0257 39.1726 36.0257L39.1707 36.0218Z" fill="#DD5742"/>
<path d="M81.1306 36.0218C81.6884 36.0141 81.6923 36.3795 81.6073 36.826C81.5958 36.8821 81.5186 37.0522 81.5803 37.0812C81.8486 37.1101 82.1825 37.114 82.4334 37.2223C82.8214 37.3866 82.6361 37.549 82.4025 37.605C82.1304 37.6707 81.5823 37.6669 81.3043 37.6785C81.2445 37.6804 81.1943 37.721 81.1789 37.779C81.0206 38.355 80.8141 38.9233 80.7021 39.5129C80.65 39.7874 80.4879 40.6824 80.8797 40.7617C81.1152 40.8081 81.7347 40.4794 81.8583 40.2784C81.8911 40.2224 81.9123 40.1624 81.9277 40.1006C81.947 40.029 82.0204 39.9846 82.0918 40.002C82.3388 40.0638 82.4662 40.2127 82.2848 40.5007C82.0204 40.9182 81.1654 41.3107 80.6828 41.3396C78.9844 41.4402 79.8201 39.0567 80.154 38.1907C80.1887 38.0979 80.3393 37.8138 80.318 37.7345C80.2582 37.5238 79.4746 37.5741 79.3723 37.402C79.3144 37.3054 79.4013 37.1604 79.4843 37.1237C79.7024 37.027 80.3374 37.1063 80.4589 36.9052C80.5709 36.7177 80.513 36.2364 80.6828 36.1185C80.7658 36.0605 81.0302 36.0257 81.1325 36.0257L81.1306 36.0218Z" fill="#DD5742"/>
<path d="M48.6019 39.971C48.9088 39.8936 48.8277 40.431 48.5652 40.6688C47.2643 41.9156 45.3343 41.3627 45.7724 39.362C46.0658 38.3008 47.5693 36.5959 48.5922 37.1332C49.1153 37.4715 48.9551 38.1868 48.5729 38.6101C48.2911 38.9503 47.8685 39.1571 47.4766 39.3311C47.1466 39.4664 46.7992 39.7177 46.8571 40.0425C46.8938 40.3382 47.1582 40.6089 47.4631 40.6147C47.9032 40.6456 48.2487 40.085 48.5807 39.9768L48.6 39.971H48.6019ZM46.9903 39.1707C47.4728 39.333 48.4282 38.2312 48.432 37.748C48.4456 37.5276 48.2332 37.4193 48.0364 37.4406C47.4805 37.4773 47.0289 38.3124 46.9459 38.9078C46.9343 38.989 46.9304 39.0991 46.9748 39.1552L46.9883 39.1707H46.9903Z" fill="#DD5742"/>
<path d="M73.7083 39.971C74.0152 39.8936 73.9342 40.431 73.6717 40.6688C72.3708 41.9156 70.4407 41.3627 70.8788 39.362C71.1722 38.3008 72.6757 36.5959 73.6987 37.1332C74.2217 37.4715 74.0615 38.1868 73.6794 38.6101C73.3976 38.9503 72.9749 39.1571 72.5831 39.3311C72.2531 39.4664 71.9056 39.7177 71.9635 40.0425C72.0002 40.3382 72.2646 40.6089 72.5696 40.6147C73.0096 40.6456 73.3551 40.085 73.6871 39.9768L73.7064 39.971H73.7083ZM72.0967 39.1707C72.5792 39.333 73.5346 38.2312 73.5385 37.748C73.552 37.5276 73.3397 37.4193 73.1428 37.4406C72.587 37.4773 72.1353 38.3124 72.0523 38.9078C72.0407 38.989 72.0369 39.0991 72.0813 39.1552L72.0948 39.1707H72.0967Z" fill="#DD5742"/>
<path d="M34.6449 39.971C34.9517 39.8936 34.8707 40.431 34.6082 40.6688C33.3073 41.9156 31.3772 41.3627 31.8154 39.362C32.1087 38.3008 33.6123 36.5959 34.6352 37.1332C35.1583 37.4715 34.9981 38.1868 34.6159 38.6101C34.3341 38.9503 33.9114 39.1571 33.5196 39.3311C33.1896 39.4664 32.8422 39.7177 32.9001 40.0425C32.9367 40.3382 33.2012 40.6089 33.5061 40.6147C33.9462 40.6456 34.2916 40.085 34.6236 39.9768L34.6429 39.971H34.6449ZM33.0332 39.1707C33.5158 39.333 34.4711 38.2312 34.475 37.748C34.4885 37.5276 34.2762 37.4193 34.0793 37.4406C33.5235 37.4773 33.0718 38.3124 32.9888 38.9078C32.9773 38.989 32.9734 39.0991 33.0178 39.1552L33.0313 39.1707H33.0332Z" fill="#DD5742"/>
<path d="M31.2367 37.1371C31.0804 36.9921 30.7677 37.0385 30.675 37.226C30.5824 37.4019 30.6692 37.6455 30.731 37.8369C31.1054 38.612 30.7677 39.3543 30.3257 40.0425C29.6926 41.1404 28.33 41.0534 28.7585 39.5785C28.9148 38.8575 29.2603 38.208 29.075 37.545C28.7179 36.5475 27.2588 37.3091 27.2588 38.1229C27.2588 38.1906 27.2935 38.2389 27.3611 38.2235C27.5097 38.208 27.8687 37.8446 28.0347 37.8079C28.3145 37.7537 28.0617 38.4535 28.025 38.6951C27.6969 39.8453 27.5464 41.7513 29.3471 41.3086C29.9107 41.1791 30.345 40.7654 30.6808 40.3305C31.1247 39.8124 31.6632 37.6996 31.2579 37.1545L31.2367 37.1352V37.1371Z" fill="#DD5742"/>
</svg>
