<svg width="25" height="25" viewBox="0 0 25 25" fill="none" xmlns="http://www.w3.org/2000/svg">
<path opacity="0.12" d="M14.3351 13.2154C13.6739 13.6783 13.3433 13.9097 12.9837 13.9993C12.6661 14.0785 12.3339 14.0785 12.0163 13.9993C11.6567 13.9097 11.3261 13.6783 10.6649 13.2154L2.5 7.5C2.5 5.84315 3.84315 4.5 5.5 4.5H19.5C21.1569 4.5 22.5 5.84315 22.5 7.5L14.3351 13.2154Z" fill="#FF6B9D"/>
<path d="M22 18.5L15.3571 12.5M9.64286 12.5L3.00003 18.5M2.5 7.5L10.6649 13.2154C11.3261 13.6783 11.6567 13.9097 12.0163 13.9993C12.3339 14.0785 12.6661 14.0785 12.9837 13.9993C13.3433 13.9097 13.6739 13.6783 14.3351 13.2154L22.5 7.5M7.3 20.5H17.7C19.3802 20.5 20.2202 20.5 20.862 20.173C21.4265 19.8854 21.8854 19.4265 22.173 18.862C22.5 18.2202 22.5 17.3802 22.5 15.7V9.3C22.5 7.61984 22.5 6.77976 22.173 6.13803C21.8854 5.57354 21.4265 5.1146 20.862 4.82698C20.2202 4.5 19.3802 4.5 17.7 4.5H7.3C5.61984 4.5 4.77976 4.5 4.13803 4.82698C3.57354 5.1146 3.1146 5.57354 2.82698 6.13803C2.5 6.77976 2.5 7.61984 2.5 9.3V15.7C2.5 17.3802 2.5 18.2202 2.82698 18.862C3.1146 19.4265 3.57354 19.8854 4.13803 20.173C4.77976 20.5 5.61984 20.5 7.3 20.5Z" stroke="#FF6B9D" stroke-width="2" stroke-linecap="round" stroke-linejoin="round"/>
</svg>
