<svg width="25" height="25" viewBox="0 0 25 25" fill="none" xmlns="http://www.w3.org/2000/svg">
<path opacity="0.12" d="M18.4998 8.5C18.4998 6.9087 17.8676 5.38258 16.7424 4.25736C15.6172 3.13214 14.0911 2.5 12.4998 2.5C10.9085 2.5 9.38235 3.13214 8.25713 4.25736C7.13192 5.38258 6.49977 6.9087 6.49977 8.5C6.49977 11.5902 5.72024 13.706 4.84944 15.1054C4.1149 16.2859 3.74763 16.8761 3.7611 17.0408C3.77601 17.2231 3.81463 17.2926 3.96155 17.4016C4.09423 17.5 4.69237 17.5 5.88863 17.5H19.1109C20.3072 17.5 20.9053 17.5 21.038 17.4016C21.1849 17.2926 21.2235 17.2231 21.2384 17.0408C21.2519 16.8761 20.8846 16.2859 20.1501 15.1054C19.2793 13.706 18.4998 11.5902 18.4998 8.5Z" fill="#FF6B9D"/>
<path d="M9.85395 21.5C10.5591 22.1224 11.4853 22.5 12.4998 22.5C13.5142 22.5 14.4405 22.1224 15.1456 21.5M18.4998 8.5C18.4998 6.9087 17.8676 5.38258 16.7424 4.25736C15.6172 3.13214 14.0911 2.5 12.4998 2.5C10.9085 2.5 9.38235 3.13214 8.25713 4.25736C7.13192 5.38258 6.49977 6.9087 6.49977 8.5C6.49977 11.5902 5.72024 13.706 4.84944 15.1054C4.1149 16.2859 3.74763 16.8761 3.7611 17.0408C3.77601 17.2231 3.81463 17.2926 3.96155 17.4016C4.09423 17.5 4.69237 17.5 5.88863 17.5H19.1109C20.3072 17.5 20.9053 17.5 21.038 17.4016C21.1849 17.2926 21.2235 17.2231 21.2384 17.0408C21.2519 16.8761 20.8846 16.2859 20.1501 15.1054C19.2793 13.706 18.4998 11.5902 18.4998 8.5Z" stroke="#FF6B9D" stroke-width="2" stroke-linecap="round" stroke-linejoin="round"/>
</svg>
