<svg width="148" height="44" viewBox="0 0 148 44" fill="none" xmlns="http://www.w3.org/2000/svg">
<path d="M139.186 31.04C137.799 31.04 136.493 30.7734 135.266 30.24C134.066 29.7067 132.999 28.9867 132.066 28.08C131.159 27.1734 130.453 26.1467 129.946 25C129.439 23.8534 129.186 22.6534 129.186 21.4C129.186 19.8534 129.586 18.3734 130.386 16.96C131.186 15.52 132.319 14.3467 133.786 13.44C135.253 12.5067 136.973 12.04 138.946 12.04C140.546 12.04 141.973 12.36 143.226 13C144.506 13.64 145.506 14.56 146.226 15.76C146.973 16.9334 147.346 18.3334 147.346 19.96V20.4H133.466V19.2H141.706V16.76C141.706 14.4667 140.746 13.32 138.826 13.32C137.999 13.32 137.333 13.5734 136.826 14.08C136.319 14.5867 135.946 15.4534 135.706 16.68C135.493 17.88 135.386 19.5334 135.386 21.64C135.386 23.8 135.506 25.4667 135.746 26.64C135.986 27.7867 136.399 28.5734 136.986 29C137.573 29.4267 138.373 29.64 139.386 29.64C140.799 29.64 142.079 29.2934 143.226 28.6C144.399 27.9067 145.373 26.7067 146.146 25H147.466C146.906 26.84 145.879 28.3067 144.386 29.4C142.919 30.4934 141.186 31.04 139.186 31.04Z" fill="black"/>
<path d="M118.852 29.9201V13.1601H124.372V29.9201H118.852ZM115.612 30.5201V29.3201H126.972V30.5201H115.612ZM115.612 13.7201V12.5201H124.372V13.7201H115.612ZM121.292 7.88006C120.439 7.88006 119.692 7.56006 119.052 6.92006C118.412 6.28006 118.092 5.5334 118.092 4.68006C118.092 3.80006 118.412 3.04007 119.052 2.40007C119.692 1.76006 120.439 1.44006 121.292 1.44006C122.172 1.44006 122.932 1.76006 123.572 2.40007C124.212 3.04007 124.532 3.80006 124.532 4.68006C124.532 5.5334 124.212 6.28006 123.572 6.92006C122.932 7.56006 122.172 7.88006 121.292 7.88006Z" fill="black"/>
<path d="M94.9531 30.52V29.32H98.1931V13.72H94.9531V12.52H103.713V15.6H103.873C104.753 14.1067 105.686 13.1467 106.673 12.72C107.66 12.2667 108.54 12.04 109.313 12.04C110.54 12.04 111.486 12.36 112.153 13C112.82 13.6134 113.153 14.5067 113.153 15.68C113.153 16.8267 112.86 17.6667 112.273 18.2C111.713 18.7334 111.006 19 110.153 19C109.38 19 108.673 18.7734 108.033 18.32C107.42 17.8667 107.113 17.1867 107.113 16.28C107.113 15.7467 107.193 15.36 107.353 15.12C107.54 14.88 107.633 14.6934 107.633 14.56C107.633 14.5067 107.606 14.4667 107.553 14.44C107.526 14.3867 107.446 14.36 107.313 14.36C106.886 14.36 106.38 14.64 105.793 15.2C105.233 15.76 104.74 16.4934 104.313 17.4C103.913 18.3067 103.713 19.2934 103.713 20.36V29.32H106.313V30.52H94.9531Z" fill="black"/>
<path d="M84.6688 31.0401C83.2821 31.0401 81.9754 30.7734 80.7488 30.2401C79.5488 29.7067 78.4821 28.9867 77.5488 28.0801C76.6421 27.1734 75.9354 26.1467 75.4288 25.0001C74.9221 23.8534 74.6688 22.6534 74.6688 21.4001C74.6688 19.8534 75.0688 18.3734 75.8688 16.9601C76.6688 15.5201 77.8021 14.3467 79.2688 13.4401C80.7354 12.5067 82.4554 12.0401 84.4288 12.0401C86.0288 12.0401 87.4554 12.3601 88.7088 13.0001C89.9888 13.6401 90.9888 14.5601 91.7088 15.7601C92.4554 16.9334 92.8288 18.3334 92.8288 19.9601V20.4001H78.9488V19.2001H87.1888V16.7601C87.1888 14.4667 86.2288 13.3201 84.3088 13.3201C83.4821 13.3201 82.8154 13.5734 82.3088 14.0801C81.8021 14.5867 81.4288 15.4534 81.1888 16.6801C80.9754 17.8801 80.8688 19.5334 80.8688 21.6401C80.8688 23.8001 80.9888 25.4667 81.2288 26.6401C81.4688 27.7867 81.8821 28.5734 82.4688 29.0001C83.0554 29.4267 83.8554 29.6401 84.8688 29.6401C86.2821 29.6401 87.5621 29.2934 88.7088 28.6001C89.8821 27.9067 90.8554 26.7067 91.6288 25.0001H92.9488C92.3888 26.8401 91.3621 28.3067 89.8688 29.4001C88.4021 30.4934 86.6688 31.0401 84.6688 31.0401ZM82.8288 9.56007L87.6688 3.00007C88.1754 2.30673 88.6554 1.8534 89.1088 1.64007C89.5888 1.42673 90.0554 1.32007 90.5088 1.32007C91.2821 1.32007 91.8421 1.50673 92.1888 1.88007C92.5621 2.2534 92.7488 2.68007 92.7488 3.16007C92.7488 3.50674 92.6154 3.8934 92.3488 4.32007C92.1088 4.74673 91.6021 5.22673 90.8288 5.76007L85.3488 9.56007H82.8288Z" fill="black"/>
<path d="M62.7181 31C61.4915 31 60.4115 30.7334 59.4781 30.2C58.5448 29.6667 57.8515 29 57.3981 28.2H56.4381L57.2381 22.12C57.2381 24.6534 57.6781 26.5067 58.5581 27.68C59.4648 28.8534 60.5715 29.44 61.8781 29.44C62.5981 29.44 63.1715 29.2267 63.5981 28.8C64.0515 28.3734 64.3715 27.6 64.5581 26.48C64.7714 25.3334 64.8781 23.7067 64.8781 21.6C64.8781 19.44 64.7714 17.7867 64.5581 16.64C64.3715 15.4667 64.0515 14.6667 63.5981 14.24C63.1448 13.8134 62.5581 13.6 61.8381 13.6C60.5315 13.6 59.4381 14.1867 58.5581 15.36C57.6781 16.5334 57.2381 18.3867 57.2381 20.92L56.4381 14.84H57.3981C57.8515 14.04 58.5448 13.3734 59.4781 12.84C60.4381 12.3067 61.5315 12.04 62.7581 12.04C64.2248 12.04 65.5848 12.44 66.8381 13.24C68.1181 14.0134 69.1448 15.12 69.9181 16.56C70.6915 17.9734 71.0781 19.6267 71.0781 21.52C71.0781 23.4134 70.6781 25.08 69.8781 26.52C69.1048 27.9334 68.0781 29.04 66.7981 29.84C65.5448 30.6134 64.1848 31 62.7181 31ZM48.7581 43.08V41.88H61.2381V43.08H48.7581ZM51.7181 42.48V13.16H57.2381V42.48H51.7181ZM48.4781 13.72V12.52H57.2381V13.72H48.4781Z" fill="black"/>
<path d="M33.3175 31C31.7442 31 30.4508 30.5867 29.4375 29.76C28.4242 28.9334 27.9175 27.84 27.9175 26.48C27.9175 25.2 28.3708 24.0934 29.2775 23.16C30.2108 22.2267 31.5175 21.52 33.1975 21.04C34.8775 20.5334 36.8375 20.28 39.0775 20.28V15.6C39.0775 14.9067 38.8242 14.36 38.3175 13.96C37.8108 13.56 37.1442 13.36 36.3175 13.36C35.6242 13.36 35.0242 13.4934 34.5175 13.76C34.0375 14.0267 33.7975 14.3734 33.7975 14.8C33.7975 15.1467 33.9308 15.4534 34.1975 15.72C34.4908 15.96 34.6375 16.36 34.6375 16.92C34.6375 17.6134 34.3575 18.2267 33.7975 18.76C33.2642 19.2934 32.6108 19.56 31.8375 19.56C31.0642 19.56 30.4242 19.2934 29.9175 18.76C29.4108 18.2267 29.1575 17.5734 29.1575 16.8C29.1575 15.8934 29.5042 15.08 30.1975 14.36C30.8908 13.64 31.8508 13.08 33.0775 12.68C34.3042 12.2534 35.6908 12.04 37.2375 12.04C39.3708 12.04 41.1308 12.4267 42.5175 13.2C43.9042 13.9467 44.5975 14.9334 44.5975 16.16V27.8C44.5975 28.04 44.6775 28.2534 44.8375 28.44C45.0242 28.6267 45.2508 28.72 45.5175 28.72C45.7308 28.72 45.9575 28.6267 46.1975 28.44C46.4642 28.2534 46.8242 27.9067 47.2775 27.4L48.0775 28.32C46.6108 30.1067 44.9442 31 43.0775 31C41.9842 31 41.1175 30.7467 40.4775 30.24C39.8642 29.7334 39.4508 29.0667 39.2375 28.24H39.0775C38.5975 28.9334 37.8508 29.5734 36.8375 30.16C35.8508 30.72 34.6775 31 33.3175 31ZM35.9975 28.8C36.8508 28.8 37.5708 28.4267 38.1575 27.68C38.7708 26.9067 39.0775 25.9067 39.0775 24.68V21.52C37.3708 21.52 36.0508 21.88 35.1175 22.6C34.1842 23.32 33.7175 24.3867 33.7175 25.8C33.7175 26.7067 33.9042 27.44 34.2775 28C34.6775 28.5334 35.2508 28.8 35.9975 28.8Z" fill="black"/>
<path d="M14.48 31.04C12.3733 31.04 10.44 30.6267 8.68 29.8C6.92 28.9733 5.38667 27.8533 4.08 26.44C2.8 25 1.8 23.36 1.08 21.52C0.36 19.6533 0 17.6933 0 15.64C0 13.5867 0.346667 11.6267 1.04 9.76C1.76 7.89333 2.77333 6.22667 4.08 4.76C5.38667 3.29333 6.93333 2.13333 8.72 1.28C10.5067 0.426667 12.48 0 14.64 0C16.0267 0 17.2133 0.2 18.2 0.599999C19.2133 0.973333 20.2533 1.56 21.32 2.36L23.08 0.36H24.08V9.6H22.88C22.5867 8.05333 22.0933 6.66667 21.4 5.44C20.7333 4.18667 19.8267 3.2 18.68 2.48C17.56 1.76 16.16 1.4 14.48 1.4C13.4933 1.4 12.5733 1.58667 11.72 1.96C10.8933 2.33333 10.1733 3.04 9.56 4.08C8.94667 5.09333 8.46667 6.57333 8.12 8.52C7.77333 10.44 7.6 12.96 7.6 16.08C7.6 18.8267 7.73333 21.0933 8 22.88C8.29333 24.64 8.73333 26.0133 9.32 27C9.90667 27.9867 10.6267 28.68 11.48 29.08C12.36 29.4533 13.3733 29.64 14.52 29.64C16.3333 29.64 17.84 29.28 19.04 28.56C20.2667 27.84 21.2267 26.8933 21.92 25.72C22.64 24.52 23.1467 23.2267 23.44 21.84H24.64V30.52H23.44L21.68 28.68C20.5333 29.5067 19.36 30.1067 18.16 30.48C16.9867 30.8533 15.76 31.04 14.48 31.04Z" fill="black"/>
</svg>
