<svg width="25" height="24" viewBox="0 0 25 24" fill="none" xmlns="http://www.w3.org/2000/svg">
<path opacity="0.2" d="M10.4027 5.73962C10.4027 3.39184 12.7505 1.82666 12.7505 1.82666C12.7505 1.82666 15.0983 3.39184 15.0983 5.73962C15.0983 6.36229 14.8509 6.95946 14.4106 7.39975C13.9703 7.84004 13.3731 8.0874 12.7505 8.0874C12.1278 8.0874 11.5306 7.84004 11.0904 7.39975C10.6501 6.95946 10.4027 6.36229 10.4027 5.73962ZM20.5764 10.4352H4.92456C4.50945 10.4352 4.11134 10.6001 3.81781 10.8936C3.52428 11.1871 3.35938 11.5852 3.35938 12.0004V14.2826C3.35938 15.9886 4.69663 17.4306 6.4017 17.4775C6.82005 17.4893 7.23652 17.4171 7.62647 17.2651C8.01642 17.1131 8.37193 16.8845 8.67199 16.5927C8.97205 16.301 9.21056 15.952 9.37341 15.5665C9.53626 15.1809 9.62015 14.7667 9.62011 14.3481C9.62011 15.1784 9.94992 15.9746 10.537 16.5616C11.124 17.1487 11.9203 17.4785 12.7505 17.4785C13.5807 17.4785 14.3769 17.1487 14.964 16.5616C15.551 15.9746 15.8808 15.1784 15.8808 14.3481C15.8807 14.7667 15.9645 15.1811 16.1273 15.5668C16.2901 15.9524 16.5285 16.3015 16.8286 16.5934C17.1287 16.8852 17.4842 17.1139 17.8743 17.266C18.2643 17.418 18.6808 17.4903 19.0993 17.4785C20.8043 17.4315 22.1416 15.9896 22.1416 14.2836V12.0004C22.1416 11.5852 21.9767 11.1871 21.6832 10.8936C21.3896 10.6001 20.9915 10.4352 20.5764 10.4352Z" fill="#FF6B9D"/>
<path d="M22.9236 12.0003C22.9236 11.3776 22.6762 10.7804 22.2359 10.3401C21.7956 9.89983 21.1985 9.65248 20.5758 9.65248H13.5325V8.77206C14.2042 8.59759 14.799 8.20524 15.2239 7.65647C15.6488 7.10771 15.8796 6.43352 15.8802 5.73952C15.8802 3.00045 13.2938 1.24842 13.1842 1.17505C13.0556 1.08925 12.9045 1.04346 12.7499 1.04346C12.5953 1.04346 12.4441 1.08925 12.3155 1.17505C12.206 1.24842 9.6195 3.00045 9.6195 5.73952C9.62016 6.43352 9.85099 7.10771 10.2758 7.65647C10.7007 8.20524 11.2956 8.59759 11.9673 8.77206V9.65248H4.92395C4.30128 9.65248 3.70411 9.89983 3.26382 10.3401C2.82353 10.7804 2.57617 11.3776 2.57617 12.0003V14.2825C2.57697 15.1362 2.85124 15.9672 3.35876 16.6537V20.6088C3.35876 21.2314 3.60612 21.8286 4.04641 22.2689C4.48671 22.7092 5.08387 22.9565 5.70654 22.9565H19.7932C20.4159 22.9565 21.013 22.7092 21.4533 22.2689C21.8936 21.8286 22.141 21.2314 22.141 20.6088V16.6537C22.6485 15.9672 22.9228 15.1362 22.9236 14.2825V12.0003ZM11.1847 5.73952C11.1847 4.41205 12.1629 3.34674 12.7499 2.82534C13.3368 3.34674 14.3151 4.41205 14.3151 5.73952C14.3151 6.15463 14.1502 6.55274 13.8566 6.84627C13.5631 7.1398 13.165 7.3047 12.7499 7.3047C12.3348 7.3047 11.9366 7.1398 11.6431 6.84627C11.3496 6.55274 11.1847 6.15463 11.1847 5.73952ZM4.14136 12.0003C4.14136 11.7927 4.22381 11.5936 4.37057 11.4469C4.51734 11.3001 4.71639 11.2177 4.92395 11.2177H20.5758C20.7833 11.2177 20.9824 11.3001 21.1292 11.4469C21.2759 11.5936 21.3584 11.7927 21.3584 12.0003V14.2825C21.3584 15.5787 20.3351 16.6606 19.0771 16.6948C18.7633 16.7037 18.451 16.6496 18.1585 16.5357C17.866 16.4217 17.5993 16.2503 17.3742 16.0315C17.1491 15.8127 16.9702 15.551 16.848 15.2618C16.7258 14.9727 16.6628 14.6619 16.6628 14.348C16.6628 14.1405 16.5804 13.9414 16.4336 13.7947C16.2868 13.6479 16.0878 13.5654 15.8802 13.5654C15.6727 13.5654 15.4736 13.6479 15.3269 13.7947C15.1801 13.9414 15.0976 14.1405 15.0976 14.348C15.0976 14.9707 14.8503 15.5679 14.41 16.0082C13.9697 16.4485 13.3725 16.6958 12.7499 16.6958C12.1272 16.6958 11.53 16.4485 11.0897 16.0082C10.6494 15.5679 10.4021 14.9707 10.4021 14.348C10.4021 14.1405 10.3196 13.9414 10.1729 13.7947C10.0261 13.6479 9.82706 13.5654 9.6195 13.5654C9.41194 13.5654 9.21289 13.6479 9.06612 13.7947C8.91936 13.9414 8.83691 14.1405 8.83691 14.348C8.83703 14.662 8.77418 14.9729 8.65205 15.2621C8.52993 15.5514 8.35102 15.8132 8.12591 16.0321C7.90081 16.251 7.63408 16.4226 7.34151 16.5366C7.04894 16.6506 6.73648 16.7047 6.42261 16.6958C5.1646 16.6606 4.14136 15.5787 4.14136 14.2825V12.0003ZM19.7932 21.3914H5.70654C5.49898 21.3914 5.29993 21.3089 5.15316 21.1621C5.0064 21.0154 4.92395 20.8163 4.92395 20.6088V17.9245C5.38207 18.132 5.87686 18.2464 6.37957 18.261C6.90258 18.2772 7.42347 18.1876 7.91097 17.9974C8.39847 17.8073 8.84253 17.5206 9.21647 17.1546C9.36244 17.0123 9.49719 16.8589 9.6195 16.6958C9.98398 17.1818 10.4566 17.5762 10.9999 17.8479C11.5433 18.1196 12.1424 18.261 12.7499 18.261C13.3573 18.261 13.9565 18.1196 14.4998 17.8479C15.0431 17.5762 15.5158 17.1818 15.8802 16.6958C16.0029 16.8583 16.138 17.011 16.2843 17.1526C17.0123 17.8657 17.9915 18.2638 19.0106 18.261H19.1221C19.6242 18.2461 20.1183 18.1317 20.5758 17.9245V20.6088C20.5758 20.8163 20.4933 21.0154 20.3466 21.1621C20.1998 21.3089 20.0008 21.3914 19.7932 21.3914Z" fill="#FF6B9D"/>
</svg>
