<svg width="24" height="24" viewBox="0 0 24 24" fill="none" xmlns="http://www.w3.org/2000/svg">
<path opacity="0.2" d="M9.91345 5.73962C9.91345 3.39184 12.2612 1.82666 12.2612 1.82666C12.2612 1.82666 14.609 3.39184 14.609 5.73962C14.609 6.36229 14.3616 6.95946 13.9214 7.39975C13.4811 7.84004 12.8839 8.0874 12.2612 8.0874C11.6386 8.0874 11.0414 7.84004 10.6011 7.39975C10.1608 6.95946 9.91345 6.36229 9.91345 5.73962ZM20.0871 10.4352H4.4353C4.02019 10.4352 3.62208 10.6001 3.32855 10.8936C3.03502 11.1871 2.87012 11.5852 2.87012 12.0004V14.2826C2.87012 15.9886 4.20737 17.4306 5.91244 17.4775C6.3308 17.4893 6.74726 17.4171 7.13721 17.2651C7.52716 17.1131 7.88268 16.8845 8.18273 16.5927C8.48279 16.301 8.7213 15.952 8.88415 15.5665C9.047 15.1809 9.13089 14.7667 9.13085 14.3481C9.13085 15.1784 9.46066 15.9746 10.0477 16.5616C10.6348 17.1487 11.431 17.4785 12.2612 17.4785C13.0914 17.4785 13.8877 17.1487 14.4747 16.5616C15.0618 15.9746 15.3916 15.1784 15.3916 14.3481C15.3914 14.7667 15.4752 15.1811 15.638 15.5668C15.8008 15.9524 16.0393 16.3015 16.3394 16.5934C16.6394 16.8852 16.995 17.1139 17.385 17.266C17.775 17.418 18.1916 17.4903 18.61 17.4785C20.3151 17.4315 21.6523 15.9896 21.6523 14.2836V12.0004C21.6523 11.5852 21.4874 11.1871 21.1939 10.8936C20.9004 10.6001 20.5023 10.4352 20.0871 10.4352Z" fill="#A6A6A6"/>
<path d="M22.4343 12.0003C22.4343 11.3776 22.187 10.7804 21.7467 10.3401C21.3064 9.89983 20.7092 9.65248 20.0865 9.65248H13.0432V8.77206C13.7149 8.59759 14.3098 8.20524 14.7346 7.65647C15.1595 7.10771 15.3903 6.43352 15.391 5.73952C15.391 3.00045 12.8045 1.24842 12.695 1.17505C12.5663 1.08925 12.4152 1.04346 12.2606 1.04346C12.106 1.04346 11.9549 1.08925 11.8263 1.17505C11.7167 1.24842 9.13024 3.00045 9.13024 5.73952C9.1309 6.43352 9.36173 7.10771 9.78658 7.65647C10.2114 8.20524 10.8063 8.59759 11.478 8.77206V9.65248H4.43469C3.81202 9.65248 3.21486 9.89983 2.77456 10.3401C2.33427 10.7804 2.08691 11.3776 2.08691 12.0003V14.2825C2.08772 15.1362 2.36198 15.9672 2.86951 16.6537V20.6088C2.86951 21.2314 3.11686 21.8286 3.55715 22.2689C3.99745 22.7092 4.59461 22.9565 5.21728 22.9565H19.3039C19.9266 22.9565 20.5238 22.7092 20.9641 22.2689C21.4044 21.8286 21.6517 21.2314 21.6517 20.6088V16.6537C22.1592 15.9672 22.4335 15.1362 22.4343 14.2825V12.0003ZM10.6954 5.73952C10.6954 4.41205 11.6737 3.34674 12.2606 2.82534C12.8476 3.34674 13.8258 4.41205 13.8258 5.73952C13.8258 6.15463 13.6609 6.55274 13.3674 6.84627C13.0738 7.1398 12.6757 7.3047 12.2606 7.3047C11.8455 7.3047 11.4474 7.1398 11.1539 6.84627C10.8603 6.55274 10.6954 6.15463 10.6954 5.73952ZM3.6521 12.0003C3.6521 11.7927 3.73455 11.5936 3.88131 11.4469C4.02808 11.3001 4.22713 11.2177 4.43469 11.2177H20.0865C20.2941 11.2177 20.4931 11.3001 20.6399 11.4469C20.7867 11.5936 20.8691 11.7927 20.8691 12.0003V14.2825C20.8691 15.5787 19.8459 16.6606 18.5879 16.6948C18.2741 16.7037 17.9617 16.6496 17.6692 16.5357C17.3767 16.4217 17.11 16.2503 16.8849 16.0315C16.6598 15.8127 16.4809 15.551 16.3587 15.2618C16.2365 14.9727 16.1736 14.6619 16.1736 14.348C16.1736 14.1405 16.0911 13.9414 15.9444 13.7947C15.7976 13.6479 15.5985 13.5654 15.391 13.5654C15.1834 13.5654 14.9844 13.6479 14.8376 13.7947C14.6908 13.9414 14.6084 14.1405 14.6084 14.348C14.6084 14.9707 14.361 15.5679 13.9207 16.0082C13.4804 16.4485 12.8833 16.6958 12.2606 16.6958C11.6379 16.6958 11.0408 16.4485 10.6005 16.0082C10.1602 15.5679 9.91284 14.9707 9.91284 14.348C9.91284 14.1405 9.83038 13.9414 9.68362 13.7947C9.53685 13.6479 9.3378 13.5654 9.13024 13.5654C8.92269 13.5654 8.72363 13.6479 8.57687 13.7947C8.4301 13.9414 8.34765 14.1405 8.34765 14.348C8.34778 14.662 8.28492 14.9729 8.16279 15.2621C8.04067 15.5514 7.86176 15.8132 7.63665 16.0321C7.41155 16.251 7.14482 16.4226 6.85225 16.5366C6.55968 16.6506 6.24722 16.7047 5.93335 16.6958C4.67534 16.6606 3.6521 15.5787 3.6521 14.2825V12.0003ZM19.3039 21.3914H5.21728C5.00973 21.3914 4.81067 21.3089 4.66391 21.1621C4.51714 21.0154 4.43469 20.8163 4.43469 20.6088V17.9245C4.89281 18.132 5.3876 18.2464 5.89031 18.261C6.41332 18.2772 6.93422 18.1876 7.42172 17.9974C7.90922 17.8073 8.35327 17.5206 8.72721 17.1546C8.87319 17.0123 9.00793 16.8589 9.13024 16.6958C9.49472 17.1818 9.96735 17.5762 10.5107 17.8479C11.054 18.1196 11.6531 18.261 12.2606 18.261C12.8681 18.261 13.4672 18.1196 14.0105 17.8479C14.5539 17.5762 15.0265 17.1818 15.391 16.6958C15.5137 16.8583 15.6488 17.011 15.795 17.1526C16.523 17.8657 17.5023 18.2638 18.5213 18.261H18.6329C19.1349 18.2461 19.629 18.1317 20.0865 17.9245V20.6088C20.0865 20.8163 20.0041 21.0154 19.8573 21.1621C19.7106 21.3089 19.5115 21.3914 19.3039 21.3914Z" fill="#A6A6A6"/>
</svg>
