<svg width="25" height="24" viewBox="0 0 25 24" fill="none" xmlns="http://www.w3.org/2000/svg">
<path d="M22.7491 10.442C23.3901 9.71302 23.6411 8.71302 23.4201 7.76702L23.3371 7.42402C23.0401 6.25702 22.0371 5.36702 20.8401 5.20902C20.0201 5.10102 19.1871 5.00902 18.3451 4.93402C18.3651 4.78402 18.3751 4.63202 18.3751 4.47902C18.3751 2.58302 16.8331 1.04102 14.9371 1.04102C13.9851 1.04102 13.1231 1.43002 12.4991 2.05702C11.8761 1.43002 11.0131 1.04102 10.0611 1.04102C8.16513 1.04102 6.62313 2.58302 6.62313 4.47902C6.62313 4.63302 6.63413 4.78602 6.65413 4.93702C5.81113 5.01302 4.97713 5.10502 4.15613 5.21402C2.95913 5.37302 1.95613 6.26402 1.66113 7.43002L1.57813 7.77202C1.35813 8.71902 1.60913 9.71902 2.25013 10.448C2.37613 10.592 2.51313 10.721 2.65913 10.835C2.05213 13.907 2.16213 17.418 2.96013 20.282C3.27813 21.419 4.23813 22.266 5.40813 22.438C7.76013 22.784 10.1291 22.956 12.4971 22.956C14.8651 22.956 17.2351 22.783 19.5871 22.438C20.7561 22.266 21.7171 21.419 22.0341 20.282C22.8331 17.417 22.9421 13.905 22.3361 10.83C22.4821 10.716 22.6201 10.586 22.7461 10.442H22.7491ZM20.5781 7.19102C20.9721 7.24302 21.3011 7.53402 21.3981 7.92002L21.4721 8.21902C21.5471 8.54402 21.4651 8.87301 21.2461 9.12201C21.0321 9.36401 20.7391 9.48702 20.4041 9.45302C18.1421 9.22502 15.8241 9.09801 13.4991 9.07001V6.68502C15.9001 6.72102 18.2901 6.89002 20.5771 7.19202L20.5781 7.19102ZM14.9381 3.04202C15.7311 3.04202 16.3761 3.68702 16.3761 4.48002C16.3761 4.56902 16.3751 4.69302 16.3611 4.78902C15.4191 4.73502 14.4701 4.70002 13.5181 4.68602C13.5101 4.61902 13.5011 4.53502 13.5011 4.48002C13.5011 3.68802 14.1461 3.04202 14.9391 3.04202H14.9381ZM10.0631 3.04202C10.8551 3.04202 11.5011 3.68702 11.5011 4.48002C11.5011 4.53502 11.4921 4.62002 11.4841 4.68702C10.5331 4.70202 9.58313 4.73702 8.64113 4.79202C8.62713 4.69402 8.62613 4.56902 8.62613 4.48002C8.62613 3.68802 9.27113 3.04202 10.0641 3.04202H10.0631ZM3.52713 8.22602L3.60113 7.92202C3.69813 7.54102 4.02713 7.24902 4.42013 7.19702C6.70813 6.89402 9.09813 6.72302 11.5001 6.68502V9.07001C9.17413 9.09902 6.85513 9.22902 4.59413 9.45802C4.26713 9.49502 3.96613 9.36901 3.75313 9.12702C3.53413 8.87802 3.45213 8.55002 3.52713 8.22602ZM4.88913 19.745C4.20213 17.281 4.08913 14.152 4.57813 11.461C4.65013 11.459 4.72313 11.455 4.79613 11.448C6.99213 11.225 9.24313 11.1 11.5011 11.07V20.945C9.56314 20.903 7.62713 20.742 5.70213 20.459C5.31413 20.402 4.99513 20.121 4.89013 19.744L4.88913 19.745ZM20.1111 19.745C20.0071 20.117 19.6801 20.404 19.2991 20.46C17.3751 20.743 15.4381 20.904 13.5001 20.946V11.069C15.7581 11.097 18.0091 11.221 20.2051 11.442C20.2771 11.449 20.3491 11.453 20.4211 11.455C20.9111 14.148 20.7991 17.279 20.1121 19.743L20.1111 19.745Z" fill="#868793"/>
</svg>
