<?xml version="1.0" encoding="UTF-8" standalone="no"?>
<!-- Created with Inkscape (http://www.inkscape.org/) -->

<svg
   xmlns:dc="http://purl.org/dc/elements/1.1/"
   xmlns:cc="http://creativecommons.org/ns#"
   xmlns:rdf="http://www.w3.org/1999/02/22-rdf-syntax-ns#"
   xmlns:svg="http://www.w3.org/2000/svg"
   xmlns="http://www.w3.org/2000/svg"
   xmlns:sodipodi="http://sodipodi.sourceforge.net/DTD/sodipodi-0.dtd"
   xmlns:inkscape="http://www.inkscape.org/namespaces/inkscape"
   width="298"
   height="213.45"
   id="svg4611"
   version="1.1"
   inkscape:version="0.48.0 r9654"
   sodipodi:docname="New document 3">
  <defs
     id="defs4613" />
  <sodipodi:namedview
     id="base"
     pagecolor="#ffffff"
     bordercolor="#666666"
     borderopacity="1.0"
     inkscape:pageopacity="0.0"
     inkscape:pageshadow="2"
     inkscape:zoom="1.979899"
     inkscape:cx="153.28794"
     inkscape:cy="93.287614"
     inkscape:document-units="px"
     inkscape:current-layer="layer1"
     showgrid="false"
     fit-margin-top="0"
     fit-margin-left="0"
     fit-margin-right="0"
     fit-margin-bottom="0"
     inkscape:window-width="1280"
     inkscape:window-height="750"
     inkscape:window-x="-8"
     inkscape:window-y="-8"
     inkscape:window-maximized="1" />
  <metadata
     id="metadata4616">
    <rdf:RDF>
      <cc:Work
         rdf:about="">
        <dc:format>image/svg+xml</dc:format>
        <dc:type
           rdf:resource="http://purl.org/dc/dcmitype/StillImage" />
        <dc:title></dc:title>
      </cc:Work>
    </rdf:RDF>
  </metadata>
  <g
     inkscape:label="Layer 1"
     inkscape:groupmode="layer"
     id="layer1"
     transform="translate(-346.95081,-288.03004)">
    <g
       transform="matrix(2.5121015,0,0,-2.5121015,-1674.9519,2142.8095)"
       id="g4390">
      <g
         transform="translate(866.9875,722.3215)"
         id="g568">
        <path
           inkscape:connector-curvature="0"
           id="path570"
           style="fill:#581b00;fill-opacity:1;fill-rule:nonzero;stroke:none"
           d="m 0,0 c 0.049,0.142 0.16,0.012 0.256,-0.155 0.101,-0.175 0.169,-0.304 0.179,-0.509 0.023,-0.459 -0.231,-1.021 -0.704,-1.165 -0.202,-0.062 -0.439,-0.001 -0.63,-0.108 -0.179,-0.102 -0.217,-0.305 -0.377,-0.424 -0.211,-0.157 -0.457,0.019 -0.686,-0.045 -0.27,-0.077 -0.398,-0.27 -0.704,-0.094 0.312,-0.041 0.472,0.231 0.752,0.279 0.399,0.066 0.53,0.041 0.726,0.428 0.055,0.107 0.139,0.192 0.242,0.254 0.176,0.107 0.384,0.124 0.567,0.211 0.23,0.109 0.329,0.232 0.369,0.481 0.037,0.23 -0.027,0.479 -0.012,0.712 C -0.018,-0.075 -0.011,-0.031 0,0" />
      </g>
      <g
         transform="translate(871.967,731.4139)"
         id="g572">
        <path
           inkscape:connector-curvature="0"
           id="path574"
           style="fill:#581b00;fill-opacity:1;fill-rule:nonzero;stroke:none"
           d="m 0,0 c -0.401,-0.205 -0.7,-0.57 -0.773,-0.988 0.014,0.323 0.101,0.709 0.159,1.053 0.005,0.031 0.008,0.062 0.012,0.092 0.354,0.44 0.49,1.18 0.495,1.371 0.016,0.687 0.214,1.852 -1.048,2.488 L -1.739,3.957 c 1.458,-0.389 1.307,-1.41 1.361,-2.355 0.021,-0.388 -0.188,-1.05 -0.495,-1.378 -0.029,-0.032 -0.414,-0.301 -0.442,-0.299 0.067,-0.005 0.195,-0.088 0.369,-0.034 -0.087,-0.624 -0.067,-1.161 0.349,-1.499 -0.126,0.103 -0.173,0.28 -0.178,0.494 0.189,0.509 0.656,0.787 1.18,0.874 C 0.343,-0.214 0.051,-0.073 0,0" />
      </g>
      <g
         transform="translate(867.0213,717.644)"
         id="g576">
        <path
           inkscape:connector-curvature="0"
           id="path578"
           style="fill:#581b00;fill-opacity:1;fill-rule:nonzero;stroke:none"
           d="m 0,0 c -0.06,0.094 -0.117,0.19 -0.17,0.288 -0.748,1.402 -0.213,2.95 0.737,3.594 0,0 -0.465,0.57 -0.466,0.571 C 0.109,4.442 -0.003,4.07 0,4.001 0.008,3.817 0.025,3.662 -0.098,3.507 -0.337,3.203 -0.794,3.14 -0.926,2.733 -1.027,2.421 -1.08,2.087 -1.091,1.76 -1.102,1.398 -1.057,1.037 -0.953,0.69 -0.919,0.573 -0.558,-0.396 -0.435,-0.361 -0.355,-0.339 -0.173,-0.264 0,0" />
      </g>
      <g
         transform="translate(868.7701,715.7297)"
         id="g580">
        <path
           inkscape:connector-curvature="0"
           id="path582"
           style="fill:#581b00;fill-opacity:1;fill-rule:nonzero;stroke:none"
           d="M 0,0 C 0.109,-0.102 0.217,-0.204 0.324,-0.306 0.87,-0.827 1.424,-1.34 1.983,-1.846 2.309,-2.141 2.923,-2.49 2.836,-3.011 2.791,-3.278 2.574,-3.463 2.415,-3.666 2.244,-3.883 2.086,-4.111 1.937,-4.344 1.335,-5.288 0.885,-6.326 0.513,-7.379 c -0.32,-0.904 -0.589,-1.831 -0.788,-2.77 -0.013,-0.065 -0.012,-0.154 -0.065,-0.202 -0.038,-0.036 -0.315,-0.328 -0.41,-0.444 -0.185,-0.225 -0.376,-0.454 -0.529,-0.702 -0.005,-0.008 -0.01,-0.016 -0.015,-0.025 -0.23,-0.403 0.24,-0.654 0.25,-1.117 0.006,-0.267 0.03,-0.533 0.055,-0.798 0.034,-0.367 0.075,-0.732 0.123,-1.097 0.024,-0.182 0.05,-0.362 0.08,-0.544 0.013,-0.083 0.027,-0.166 0.042,-0.249 0.007,-0.039 0.015,-0.078 0.022,-0.118 0.004,-0.019 0.007,-0.094 0.026,-0.103 0.041,-0.018 0.052,0.122 0.057,0.147 0.013,0.063 0.027,0.125 0.042,0.187 0.038,0.162 0.079,0.323 0.119,0.484 0.104,0.408 0.207,0.815 0.299,1.225 0.037,0.167 0.073,0.334 0.104,0.503 0.207,1.089 0.464,2.36 0.653,2.738 0.09,0.182 0.183,0.364 0.277,0.546 0.652,1.266 1.363,2.504 2.141,3.697 0.395,0.603 0.807,1.195 1.246,1.765 0.343,0.445 1.117,1.045 0.931,1.681 C 5.139,-2.458 5.064,-2.34 5.01,-2.232 4.861,-1.931 4.7,-1.637 4.535,-1.345 3.995,-0.388 3.407,0.544 2.772,1.44 2.542,1.764 2.245,2.083 1.975,2.411 1.971,2.416 2.388,2.651 2.402,2.631 3.07,1.721 3.711,0.793 4.329,-0.152 4.676,-0.684 5.016,-1.222 5.339,-1.77 5.675,-2.344 5.987,-2.967 5.551,-3.575 5.32,-3.897 5.068,-4.207 4.829,-4.524 4.18,-5.385 3.539,-6.25 2.912,-7.127 2.064,-8.315 1.128,-9.539 0.536,-10.883 0.483,-11.004 0.243,-12.92 0.113,-13.319 c -0.067,-0.207 -0.141,-0.412 -0.213,-0.617 -0.113,-0.321 -0.227,-0.641 -0.335,-0.963 -0.049,-0.145 -0.097,-0.29 -0.142,-0.436 -0.019,-0.059 -0.037,-0.119 -0.054,-0.179 -0.006,-0.024 -0.019,-0.103 -0.042,-0.115 -0.01,-0.005 -0.02,-0.001 -0.032,0.018 -0.014,0.022 -0.023,0.051 -0.034,0.075 -0.026,0.056 -0.052,0.112 -0.078,0.169 -0.038,0.085 -0.093,0.181 -0.105,0.274 -0.036,0.304 -0.259,1.702 -0.33,1.999 -0.111,0.455 -0.669,1.061 -0.572,1.529 0.071,0.339 1.234,0.918 1.358,1.233 0.129,0.329 0.134,0.715 0.19,1.063 0.109,0.68 0.148,0.905 0.313,1.574 0.336,1.35 0.797,2.743 1.634,3.873 0.235,0.318 0.53,0.593 0.797,0.883 0.318,0.344 -0.177,0.53 -0.444,0.736 -0.325,0.252 -0.647,0.508 -0.967,0.768 -0.455,0.37 -0.906,0.748 -1.349,1.134 L 0,0 z" />
      </g>
      <g
         transform="translate(882.6049,716.7542)"
         id="g584">
        <path
           inkscape:connector-curvature="0"
           id="path586"
           style="fill:#581b00;fill-opacity:1;fill-rule:nonzero;stroke:none"
           d="M 0,0 C -0.21,0.858 -0.109,1.501 -0.14,1.476 -0.22,1.413 -0.256,1.785 -0.301,1.68 -0.433,1.368 -0.54,0.87 -0.45,0.181 c 0.134,-1.032 0.471,-1.855 0.913,-2.766 1.499,-3.085 0.393,-5.739 -0.939,-6.283 0.695,-2.113 1.917,-4.134 2.126,-6.444 0.197,-2.204 0.576,-3.617 1.085,-5.404 -0.401,0.802 -1.004,1.741 -1.378,2.621 -1.007,2.381 -1.665,4.716 -2.207,5.673 -0.38,0.67 -0.868,1.645 -1.367,2.211 0.1,-0.521 -0.033,-0.964 -0.163,-1.128 1.173,-1.259 1.659,-3.029 2.429,-4.568 -0.029,-1.367 2.744,-5.959 3.342,-6.969 0.492,-0.832 0.807,-2.48 0.807,-2.48 0,0 2.193,-0.005 2.223,-0.004 -0.044,0.145 -0.487,0.806 -0.672,1.015 -0.283,0.322 -1.283,1.228 -1.469,1.504 -0.384,0.571 -0.717,1.179 -0.989,1.812 -0.608,1.41 -0.977,3.03 -0.921,4.572 0.082,2.245 -0.959,4.106 -1.43,6.219 -0.068,0.308 -0.231,0.919 -0.231,0.919 0.725,0.939 2.358,3.234 0.328,6.294 C 0.515,-2.239 0.247,-1.011 0,0" />
      </g>
      <g
         transform="translate(889.644,725.0645)"
         id="g588">
        <path
           inkscape:connector-curvature="0"
           id="path590"
           style="fill:#581b00;fill-opacity:1;fill-rule:nonzero;stroke:none"
           d="M 0,0 C 0.147,0.163 0.942,0.95 0.872,1.121 0.8,1.294 0.13,0.987 -0.553,0.652 c -0.207,0.267 -0.43,0.544 -0.544,0.665 -0.014,0.016 -0.03,0.03 -0.045,0.045 0.582,0.348 1.099,0.683 1.083,0.778 -0.052,0.326 -1.162,0.353 -2.277,0.209 -5.741,3.657 -13.606,0.044 -15.298,-6.264 -0.052,-0.194 0.068,-0.953 0.041,-1.157 -0.075,-0.787 -0.804,-1.442 -0.8,-1.445 0.046,-0.033 0.43,-0.076 0.43,-0.091 0.004,-0.347 0.011,-0.194 0.049,-0.553 0.034,-0.058 0.408,-0.552 0.408,-0.538 0,0.219 0.005,0.436 0.018,0.652 0.392,6.723 7.179,11.808 13.098,8.937 0.991,-0.481 1.742,-1.149 2.31,-1.891 -0.04,0.05 0.114,-1.365 0.071,-1.316 0.152,-0.549 0.063,-0.467 10e-4,-1.076 -0.023,-0.237 -0.35,-0.375 -0.597,-1.246 -0.226,-0.793 -0.319,-5.969 -0.252,-6.256 0.102,-0.44 -0.145,-0.468 -0.374,-0.764 -0.185,-0.241 -0.387,-0.465 -0.7,-0.525 -0.447,-0.087 -0.249,0.422 -1.522,0.57 -0.188,0.022 -0.56,2.07 -0.586,2.44 -0.176,2.402 -2.287,4.906 -2.381,5.272 -0.003,0.002 -0.101,-0.922 -0.08,-0.96 0.155,-0.272 1.615,-2.739 1.8,-3.161 0.238,-0.539 0.395,-1.101 0.521,-1.674 0.07,-0.316 0.232,-2.074 0.417,-2.243 0.291,-0.264 0.611,-0.381 0.977,-0.408 0.253,-0.019 0.493,-0.592 0.92,-0.559 0.637,0.049 0.692,0.541 0.887,0.69 0.832,0.633 0.51,2.009 0.526,2.445 0.054,1.426 0.325,4.079 0.387,4.45 0.185,1.114 0.308,0.509 0.559,0.958 0.142,0.256 -0.149,1.898 -10e-4,2.032 C -1.361,-0.851 -0.348,-0.386 0,0" />
      </g>
      <g
         transform="translate(861.2136,728.2494)"
         id="g592">
        <path
           inkscape:connector-curvature="0"
           id="path594"
           style="fill:#581b00;fill-opacity:1;fill-rule:nonzero;stroke:none"
           d="M 0,0 C 0.025,0.258 0.367,0.289 0.536,0.377 0.812,0.521 0.779,0.75 0.776,1.038 0.768,1.737 0.506,2.593 0.971,3.208 1.426,3.809 2.022,4.32 2.724,4.611 3.703,5.015 4.69,5.397 5.649,5.851 5.843,5.942 5.998,6.058 6.203,6.119 6.437,6.189 6.673,6.255 6.908,6.326 7.376,6.467 7.842,6.621 8.289,6.824 8.488,6.915 8.667,7.002 8.837,7.142 8.957,7.241 9.135,7.357 9.294,7.297 9.381,7.421 9.406,7.7 9.245,7.785 8.926,7.951 8.74,7.553 8.569,7.374 8.327,7.123 7.967,6.983 7.647,6.845 7.307,6.7 7.005,6.572 6.671,6.42 6.293,6.247 5.884,6.162 5.501,6.005 4.331,5.529 3.046,5.2 1.95,4.557 1.478,4.28 0.891,3.905 0.617,3.416 0.317,2.878 0.417,2.399 0.464,1.815 0.496,1.416 0.524,1.152 0.288,0.832 0.06,0.523 -0.001,0.399 0,0" />
      </g>
      <g
         transform="translate(864.7509,720.4547)"
         id="g596">
        <path
           inkscape:connector-curvature="0"
           id="path598"
           style="fill:#581b00;fill-opacity:1;fill-rule:nonzero;stroke:none"
           d="m 0,0 c -0.016,-0.052 -0.06,-0.093 -0.099,-0.136 -0.274,-0.299 -0.681,-0.101 -1.015,-0.034 -0.177,0.035 -0.412,0.046 -0.564,-0.059 0.228,0.157 0.215,0.234 0.495,0.279 0.206,0.033 0.504,-0.04 0.685,0.096 0.202,0.152 0.212,0.447 0.411,0.611 C 0.091,0.904 0.345,0.94 0.562,0.991 1.266,1.154 1.042,1.658 1.296,2.119 1.393,2.296 1.589,2.443 1.75,2.557 1.543,2.41 1.538,1.873 1.495,1.655 1.437,1.365 1.315,1.006 1.042,0.854 0.522,0.565 0.226,0.752 0,0" />
      </g>
      <g
         transform="translate(867.7788,735.5835)"
         id="g600">
        <path
           inkscape:connector-curvature="0"
           id="path602"
           style="fill:#581b00;fill-opacity:1;fill-rule:nonzero;stroke:none"
           d="m 0,0 c -0.529,-0.37 -1.045,-0.684 -1.638,-0.927 -1.17,-0.476 -2.456,-0.805 -3.552,-1.448 -1.058,-0.621 -1.994,-1.599 -2.142,-2.865 -0.058,-0.495 0.371,-1.242 0.208,-1.621 -0.207,-0.478 -1.153,-0.476 -1.454,-0.562 -0.904,-0.256 -1.573,-0.819 -1.438,-1.482 0.134,-0.664 0.169,-0.851 0.076,-1.27 -0.126,-0.572 -0.77,-0.563 -1.175,-0.837 -0.608,-0.413 -0.599,-0.753 -0.667,-1.434 -0.064,-0.638 -0.513,-0.663 -0.893,-1.084 -0.38,-0.423 -0.246,-0.71 -0.366,-1.213 -0.077,-0.325 -0.203,-0.507 -0.468,-0.617 -0.021,-0.008 -0.017,-0.033 0.006,-0.036 0.603,-0.077 0.605,0.674 0.694,0.974 0.157,0.529 0.242,0.75 0.807,1.016 0.249,0.117 0.641,0.141 0.761,0.425 0.256,0.599 -0.181,1.074 0.32,1.572 0.382,0.379 1.058,0.314 1.43,0.723 0.463,0.507 0.074,1.17 0.052,1.407 -0.045,0.472 0.053,1.112 0.577,1.447 0.217,0.139 0.748,0.184 1.179,0.191 0.216,0.003 0.441,0.014 0.637,0.115 0.106,0.055 0.174,0.138 0.233,0.207 0.323,0.382 0.114,0.783 0.069,1.317 -0.136,1.584 0.863,3.075 2.328,3.681 0.979,0.405 1.967,0.786 2.925,1.24 0.63,0.298 1.183,0.735 1.804,1.052 C 0.805,0.224 1.614,0.621 2.14,0.239 2.157,1.364 0.283,0.199 0,0" />
      </g>
      <g
         transform="translate(861.1777,724.1652)"
         id="g604">
        <path
           inkscape:connector-curvature="0"
           id="path606"
           style="fill:#581b00;fill-opacity:1;fill-rule:nonzero;stroke:none"
           d="M 0,0 C 0.175,-0.002 0.293,0.053 0.443,0.14 0.925,0.419 1.14,0.922 1.229,1.42 1.471,2.773 3.172,4.088 4.661,4.714 5.484,5.06 6.974,6.516 7.392,7.466 5.669,6.724 3.464,5.77 2.139,3.909 2.139,3.909 1.931,3.772 1.93,3.772 2.175,3.933 2.447,4.688 2.683,4.947 3.121,5.43 3.648,5.834 4.188,6.195 4.827,6.621 5.506,6.99 6.201,7.316 6.704,7.551 7.501,7.591 7.675,8.225 8.368,7.1 5.868,4.721 4.967,4.329 3.165,3.545 1.893,2.963 1.396,1.246 1.24,0.708 0.947,0.122 0.43,-0.151 0.37,-0.183 -0.01,-0.283 -0.224,-0.191 -0.52,-0.063 -1.089,0.173 -1.193,0.043 -1.083,0.181 -0.926,0.25 -0.669,0.191 -0.658,0.189 -0.248,0.004 0,0" />
      </g>
      <g
         transform="translate(859.6792,726.271)"
         id="g608">
        <path
           inkscape:connector-curvature="0"
           id="path610"
           style="fill:#581b00;fill-opacity:1;fill-rule:nonzero;stroke:none"
           d="M 0,0 C 0.004,0.093 0.013,0.19 0.042,0.291 0.168,0.722 0.479,0.947 0.915,0.991 1.345,1.035 1.715,0.7 2.09,0.746 2.293,0.77 2.488,0.902 2.631,1.042 2.922,1.329 3.097,1.739 3.168,2.136 3.41,3.488 5.029,4.97 6.562,5.481 8.358,6.081 9.335,7.546 9.293,8.233 7.569,7.492 5.365,6.537 4.04,4.677 L 3.831,4.539 C 4.075,4.7 4.348,5.454 4.583,5.714 5.021,6.198 5.549,6.6 6.089,6.962 6.728,7.389 7.407,7.758 8.102,8.083 8.605,8.318 9.402,8.359 9.576,8.992 10.269,7.867 8.904,5.966 6.867,5.095 5.06,4.324 3.794,3.73 3.296,2.014 3.125,1.422 2.804,0.685 2.157,0.506 1.681,0.375 1.32,0.863 0.828,0.656 0.45,0.497 0.371,0.128 0.312,-0.247 0.197,-0.981 -0.49,-0.788 -0.76,-1.286 c -0.027,0.384 0.356,0.417 0.565,0.628 C 0.011,-0.45 -0.009,-0.236 0,0" />
      </g>
      <g
         transform="translate(860.4835,723.8013)"
         id="g612">
        <path
           inkscape:connector-curvature="0"
           id="path614"
           style="fill:#581b00;fill-opacity:1;fill-rule:nonzero;stroke:none"
           d="m 0,0 c -0.056,0.01 -0.115,0.013 -0.181,0.009 0.007,-0.1 0.24,-0.163 0.317,-0.215 0.167,-0.112 0.284,-0.277 0.45,-0.394 0.165,-0.117 0.351,-0.204 0.545,-0.258 0.424,-0.119 0.883,-0.073 1.267,0.146 0.072,0.041 0.141,0.087 0.207,0.139 C 5.59,1.752 5.564,4.217 7.322,6.168 7.044,6.037 6.748,5.921 6.748,5.921 6.117,5.36 5.13,1.579 2.566,-0.198 2.212,-0.443 1.783,-0.571 1.353,-0.546 1.175,-0.535 0.996,-0.499 0.829,-0.434 0.662,-0.368 0.544,-0.253 0.391,-0.166 0.328,-0.13 0.261,-0.091 0.195,-0.063 0.127,-0.033 0.065,-0.012 0,0" />
      </g>
      <g
         transform="translate(857.4152,720.4029)"
         id="g616">
        <path
           inkscape:connector-curvature="0"
           id="path618"
           style="fill:#581b00;fill-opacity:1;fill-rule:nonzero;stroke:none"
           d="M 0,0 C 0.236,0.744 1.001,0.334 1.56,0.347 2.392,0.369 2.488,0.988 2.716,1.611 2.97,2.302 4.412,1.939 5.081,1.911 6.019,1.873 6.272,1.778 7.041,2.385 7.9,3.063 7.438,4.609 7.955,5.427 7.692,5.011 7.307,4.942 7.183,4.373 7.095,3.969 7.003,3.011 6.717,2.66 6.119,1.925 5.826,2.075 4.942,2.101 4.373,2.119 3.016,2.538 2.654,2.066 2.228,1.514 2.36,0.775 1.559,0.65 0.997,0.563 0.24,1.197 -0.122,0.009 -0.145,-0.068 -0.022,-0.067 0,0" />
      </g>
      <g
         transform="translate(859.9231,720.4231)"
         id="g620">
        <path
           inkscape:connector-curvature="0"
           id="path622"
           style="fill:#581b00;fill-opacity:1;fill-rule:nonzero;stroke:none"
           d="m 0,0 c -0.304,-0.076 -0.606,-0.039 -0.897,0.072 -0.141,0.053 -0.277,0.119 -0.414,0.183 -0.131,0.062 -0.275,0.096 -0.403,0.156 0.03,0.061 0.198,0.007 0.253,-0.012 C -1.373,0.37 -1.283,0.351 -1.192,0.331 -0.918,0.271 -0.597,0.132 -0.314,0.199 0.532,0.396 0.25,1.442 0.955,1.728 1.475,1.94 2.146,1.698 2.647,1.534 6.047,0.422 7.451,3.536 6.12,5.323 6.015,5.464 5.829,6.149 6,6.549 L 6.516,7.407 C 6.044,6.277 6.272,5.562 6.411,5.326 7.962,2.68 5.185,0.028 2.669,1.311 2.16,1.57 1.381,1.808 0.903,1.352 0.44,0.91 0.804,0.201 0,0" />
      </g>
      <g
         transform="translate(861.3136,716.8765)"
         id="g624">
        <path
           inkscape:connector-curvature="0"
           id="path626"
           style="fill:#581b00;fill-opacity:1;fill-rule:nonzero;stroke:none"
           d="m 0,0 c 0.152,-0.406 0.666,-0.068 0.957,-0.119 0.175,-0.031 0.28,-0.205 0.44,-0.21 0.228,-0.006 0.417,0.248 0.649,0.271 0.391,0.039 0.623,-0.339 0.978,-0.403 0.445,-0.081 0.609,0.411 0.848,0.688 0.594,0.69 1.093,0.182 1.753,0.577 0.473,0.284 0.427,1.048 0.547,1.525 0.136,0.537 0.462,0.934 1.016,1.052 0.511,0.109 1.043,0.033 1.56,0.074 0.257,0.02 0.588,0.066 0.807,0.206 C 9.951,3.912 10,4.392 10.033,4.919 10.083,4.721 10.182,4.227 9.902,3.757 9.608,3.26 9.013,3.042 8.468,2.983 7.66,2.894 7.001,3.106 6.508,2.289 6.221,1.815 6.452,1.127 6.105,0.691 5.719,0.205 5.104,0.475 4.606,0.215 4.281,0.045 4.18,-0.208 3.987,-0.505 3.75,-0.871 3.393,-1.115 2.957,-0.847 2.655,-0.663 2.432,-0.49 2.068,-0.472 1.793,-0.458 1.527,-0.683 1.258,-0.609 1.142,-0.576 1.047,-0.485 0.933,-0.455 0.719,-0.398 0.355,-0.445 0.13,-0.349 -0.075,-0.262 0.063,-0.17 0,0" />
      </g>
      <g
         transform="translate(870.5276,735.4785)"
         id="g628">
        <path
           inkscape:connector-curvature="0"
           id="path630"
           style="fill:#581b00;fill-opacity:1;fill-rule:nonzero;stroke:none"
           d="M 0,0 C -0.038,-0.041 -0.075,-0.082 -0.111,-0.121 -0.227,-0.016 -0.15,0.158 -0.076,0.257 0.355,0.829 1.082,0.522 1.655,0.463 2.148,0.412 1.978,0.817 2.161,1.045 2.302,1.222 2.606,1.133 2.724,0.963 2.878,0.74 2.59,0.242 2.77,0.217 2.811,0.021 2.573,-0.014 2.468,0.115 2.321,0.299 2.562,0.351 2.598,0.483 2.636,0.627 2.593,0.873 2.433,0.877 2.217,0.882 2.259,0.618 2.166,0.504 2.047,0.355 1.826,0.294 1.645,0.286 1.352,0.273 1.106,0.445 0.818,0.455 0.471,0.468 0.217,0.234 0,0" />
      </g>
      <g
         transform="translate(870.3406,736.1562)"
         id="g632">
        <path
           inkscape:connector-curvature="0"
           id="path634"
           style="fill:#581b00;fill-opacity:1;fill-rule:nonzero;stroke:none"
           d="M 0,0 C 0.098,0.247 0.292,0.473 0.486,0.582 0.804,0.761 1.258,0.716 1.573,0.545 1.701,0.475 2.203,0.053 2.103,-0.138 1.805,-0.195 1.79,0.184 1.606,0.313 1.372,0.478 0.941,0.378 0.703,0.246 0.542,0.157 0.408,0.028 0.297,-0.117 0.275,-0.147 0.029,-0.596 0.056,-0.599 c -0.011,0.001 -0.036,0 -0.047,0 C -0.096,-0.422 -0.081,-0.204 0,0" />
      </g>
      <g
         transform="translate(866.856,735.7584)"
         id="g636">
        <path
           inkscape:connector-curvature="0"
           id="path638"
           style="fill:#581b00;fill-opacity:1;fill-rule:nonzero;stroke:none"
           d="M 0,0 C 0.417,0.102 0.607,0.356 0.835,0.695 0.959,0.88 1.146,1.01 1.332,1.125 1.447,1.196 1.604,1.255 1.739,1.188 1.844,1.136 1.911,0.986 2.029,0.968 2.375,0.914 2.584,1.387 2.953,1.227 3.297,1.078 3.261,0.643 3.375,0.345 3.417,0.236 3.5,0.147 3.553,0.046 3.653,0.473 3.649,0.903 3.383,1.26 3.128,1.604 2.761,1.66 2.404,1.458 2.035,1.25 1.598,1.54 1.244,1.34 1.001,1.204 0.796,0.864 0.623,0.655 0.382,0.365 0.153,0.268 -0.219,0.365 c -0.388,0.1 -0.714,-0.232 -0.782,-0.592 -0.054,-0.287 -0.047,-0.795 -0.373,-0.933 0.337,-0.163 0.468,0.21 0.557,0.462 0.14,0.396 0.39,0.594 0.817,0.698" />
      </g>
      <g
         transform="translate(857.0864,721.8424)"
         id="g640">
        <path
           inkscape:connector-curvature="0"
           id="path642"
           style="fill:#581b00;fill-opacity:1;fill-rule:nonzero;stroke:none"
           d="M 0,0 C 0.609,0.008 0.647,0.682 1.327,0.801 2.05,0.928 1.624,2.011 3.156,1.991 3.293,1.988 3.404,1.931 3.532,1.897 3.642,1.868 3.733,1.832 3.807,1.739 3.837,1.7 3.882,1.66 3.906,1.618 3.942,1.558 3.925,1.547 3.921,1.484 3.538,1.688 3.042,1.838 2.624,1.64 2.293,1.482 2.073,1.206 1.976,0.855 1.798,0.212 1.482,0.451 1.155,0.296 0.734,0.096 0.503,-0.301 0,0" />
      </g>
      <g
         transform="translate(852.2601,719.0303)"
         id="g644">
        <path
           inkscape:connector-curvature="0"
           id="path646"
           style="fill:#581b00;fill-opacity:1;fill-rule:nonzero;stroke:none"
           d="M 0,0 C -0.165,0.004 -0.327,0.006 -0.489,0.009 -3.164,0.164 -4.002,1.04 -6.022,0.08 -6.079,0.053 -6.133,0.025 -6.185,-0.003 -8.16,-1.058 -7.473,-2.831 -8.767,-3.929 c -1.164,-0.989 -3.308,-1.538 -4.296,-2.325 -0.626,-0.498 -0.867,-1.256 -0.939,-1.585 -0.18,-0.818 -0.065,-1.887 0.55,-2.891 0.48,-0.782 -0.32,-1.262 -0.137,-2.044 0.168,0.59 0.574,0.916 0.686,1.451 0.092,0.447 -0.083,0.888 -0.336,1.276 -0.308,0.471 -0.473,1.48 -0.38,2.042 0.121,0.738 0.961,1.21 1.697,1.499 1.962,0.77 3.908,2.011 4.384,3.951 0.731,2.979 3.634,2.898 5.63,2.553 -1.335,-0.056 -2.545,-0.279 -3.639,-0.988 -1.162,-0.754 -1.568,-2.482 -2.01,-2.969 -2.325,-2.559 -5.249,-2.737 -5.09,-7.507 0.009,-0.246 -0.349,-0.99 -0.473,-1.342 -0.116,-0.332 -0.237,-0.661 -0.215,-1.016 0.008,-0.142 0.064,-0.633 0.439,-0.804 -0.117,0.206 -0.257,0.484 -0.257,0.718 0,0.311 0.108,0.496 0.211,0.783 0.136,0.381 0.292,0.753 0.404,1.143 0.182,0.627 0.278,1.276 0.334,1.925 0.244,2.841 2.154,3.562 4.656,5.118 0.629,0.392 0.882,0.936 1.058,1.465 0.097,0.291 0.178,0.592 0.207,0.893 0.035,0.354 0.11,0.727 0.382,1.013 0.061,0.066 0.499,0.4 0.575,0.452 0.728,0.509 1.655,0.656 2.547,0.825 0.727,0.136 1.34,0.085 2.008,0.058 0.058,-0.013 0.114,-0.025 0.167,-0.038 C -1.634,-0.337 -2.74,-0.512 -3.827,-0.962 -3.993,-1.03 -4.21,-1.111 -4.36,-1.202 -4.505,-1.29 -4.643,-1.37 -4.79,-1.457 -5.5,-1.871 -5.784,-2.528 -5.891,-3.226 -6.022,-4.08 -6.212,-4.892 -7.065,-5.291 c -5.644,-2.64 -4.163,-4.76 -4.948,-6.519 -0.457,-1.023 -0.827,-1.859 -0.531,-2.949 0.179,-0.663 1.455,-2.305 4.335,-2.676 -1.367,0.659 -4.577,1.305 -4.063,4.036 0.176,0.933 0.951,2.442 1.059,3.606 0.035,0.382 0.29,0.746 0.557,1.121 1.028,1.331 3.014,1.692 4.136,2.88 0.704,0.647 1.09,1.465 1.246,2.33 0.069,0.386 0.183,1.451 1.1,2.005 0.481,0.289 1.086,0.487 1.652,0.615 0.494,0.113 1.044,0.159 1.609,0.229 -0.118,-0.026 -0.266,-0.078 -0.34,-0.098 -0.206,-0.052 -0.408,-0.115 -0.608,-0.183 -0.406,-0.14 -0.8,-0.302 -1.187,-0.477 -0.801,-0.363 -1.511,-0.918 -1.613,-1.531 -0.572,-3.462 -3.392,-4.178 -5.357,-6.417 -0.235,-0.281 -0.397,-0.573 -0.494,-0.87 -0.107,-0.301 -0.15,-0.608 -0.403,-1.018 -1.281,-2.077 -1.068,-5.684 2.688,-5.258 -1.684,0.24 -3.319,1.448 -3.201,3.004 0.214,1.046 0.92,2.008 1.291,2.825 0.371,0.815 0.5,1.266 1.104,1.682 2.374,1.638 4.465,2.937 4.502,5.273 0.015,0.92 0.751,1.665 1.361,1.978 0.677,0.348 1.311,0.579 2.038,0.774 -0.152,-0.073 -1.373,-0.701 -2.312,-1.399 -0.461,-0.342 -0.959,-1.509 -1.007,-2.347 -0.148,-2.592 -1.73,-3.447 -4.16,-4.966 -1.187,-0.743 -1.926,-2.374 -2.048,-3.578 -0.069,-0.677 0.052,-1.4 0.644,-1.898 0.316,-0.266 0.711,-0.404 1.129,-0.511 0.724,-0.186 0.898,-0.244 1.333,-0.804 0.388,-0.5 0.654,-0.599 1.324,-0.836 -0.592,0.57 -0.537,1.293 -1.087,1.816 -0.447,0.425 -1.203,0.343 -1.728,0.653 -0.528,0.313 -0.731,0.834 -0.798,1.355 -0.172,1.34 0.566,2.692 1.705,3.591 0.127,0.109 0.355,0.164 0.513,0.229 0.981,0.404 1.896,0.926 2.568,1.668 0.463,0.51 0.788,1.103 0.962,1.73 0.105,0.38 0.157,0.769 0.165,1.159 0.01,0.478 0.044,0.874 0.166,1.363 0.256,1.03 1.088,1.56 1.58,1.913 0.332,0.239 0.73,0.385 1.133,0.513 0.181,0.058 0.864,0.279 0.864,0.279 0,0 0.654,0.729 0.709,0.834 C 0.586,-0.043 0.105,0.023 0,0" />
      </g>
      <g
         transform="translate(868.4896,705.7424)"
         id="g648">
        <path
           inkscape:connector-curvature="0"
           id="path650"
           style="fill:#581b00;fill-opacity:1;fill-rule:nonzero;stroke:none"
           d="m 0,0 c 0.004,0.006 0.081,0.697 0.075,0.701 -1.922,0.131 -4.689,0.69 -5.934,1.092 -0.059,0.015 -0.075,1.59 -1.303,2.434 -0.161,0.111 0.109,-0.452 0.19,-1.065 0.108,-0.825 0.063,-1.808 0.063,-1.901 -0.003,-2.154 -1.017,-6.14 -0.996,-6.266 0.117,-0.683 0.174,-1.26 1.307,-2.018 1.705,-1.14 4.845,-4.327 4.9,-4.584 -3.466,2.648 -5.949,4.152 -7.616,4.594 -0.505,0.133 -1.036,6.248 -3.863,8.409 -1.393,1.065 -2.933,1.975 -3.548,3.18 -1.754,3.437 -0.677,7.662 3.839,9.439 3.569,1.402 8.729,-0.19 10.541,-0.824 0.05,-0.018 0.051,0.377 -0.032,0.413 -1.442,0.608 -6.984,2.361 -11.298,0.819 -4.846,-1.731 -6.163,-6.415 -3.596,-10.606 1.674,-2.731 5.576,-3.075 6.04,-7.962 0.098,-1.034 0.18,-1.743 0.198,-2.223 0.031,-0.889 0.656,-1.16 1.149,-1.24 1.428,-0.233 8.692,-4.026 9.216,-6.122 0.042,-0.169 -0.023,-0.441 -0.106,-0.597 l 2.522,-0.017 c 0.007,0.219 -0.551,1.032 -0.8,1.419 -0.599,0.93 -4.877,4.1 -5.275,4.476 -2.554,2.407 -2.757,4.215 -2.747,4.516 0.005,0.151 0.701,4.629 0.765,5.057 0.004,0.029 0.005,0.04 0.002,0.028 0.069,-0.025 -0.071,1.181 0.002,1.156 C -6.253,2.29 -5.988,1.04 -5.933,1.022 -4.489,0.529 -1.096,0.029 0,0" />
      </g>
      <g
         transform="translate(869.5428,705.6539)"
         id="g652">
        <path
           inkscape:connector-curvature="0"
           id="path654"
           style="fill:#581b00;fill-opacity:1;fill-rule:nonzero;stroke:none"
           d="m 0,0 0.462,0.706 c 0,0 2.488,-0.066 3.681,0.324 0,0 2.452,-2.821 3.401,-3.662 0.642,-0.568 2.412,-2.234 2.702,-2.445 0.307,-0.226 0.623,-0.533 0.664,-0.937 0.036,-0.339 -0.216,-0.612 -0.369,-0.895 -0.171,-0.317 -0.882,-1.824 -1.072,-2.258 0.229,0 2.597,2.953 2.196,3.669 -0.554,0.989 -1.112,1.974 -1.711,2.937 -0.397,0.635 -0.806,1.264 -1.251,1.866 -0.108,0.145 0.461,0.505 0.866,1.073 0.419,0.587 0.677,1.379 0.723,1.317 0.017,-0.024 0.301,-1.035 0.074,-1.622 -0.099,-0.258 -0.574,-0.789 -0.542,-0.841 0.791,-1.287 1.66,-3.232 1.95,-3.786 0.21,-0.399 0.649,-0.796 0.679,-1.328 0.039,-0.711 -1.74,-2.771 -2.197,-3.251 -0.648,-0.681 -1.035,-1.478 -1.626,-2.04 -0.302,-0.287 -2.312,-1.432 -2.312,-1.432 0.057,0.201 -0.092,2.177 -0.034,2.464 0.005,0.028 1.934,0.244 2.083,0.38 0.613,0.557 1.013,1.586 1.419,2.292 0.219,0.381 0.557,0.805 0.601,1.253 0.05,0.504 -0.502,0.869 -0.866,1.1 C 8.575,-4.519 6.748,-2.792 6.198,-2.36 5.634,-1.917 4.083,-0.387 3.914,-0.001 2.582,-0.103 0,0 0,0" />
      </g>
      <g
         transform="translate(849.0389,705.1215)"
         id="g656">
        <path
           inkscape:connector-curvature="0"
           id="path658"
           style="fill:#581b00;fill-opacity:1;fill-rule:nonzero;stroke:none"
           d="M 0,0 C 0.049,0.009 -0.049,0.009 0,0" />
      </g>
      <g
         transform="translate(850.8433,704.1583)"
         id="g660">
        <path
           inkscape:connector-curvature="0"
           id="path662"
           style="fill:#581b00;fill-opacity:1;fill-rule:nonzero;stroke:none"
           d="m 0,0 c -0.717,0.057 -0.933,-0.797 -1.007,-0.914 -0.034,-0.054 -0.107,-1.839 -0.216,-3.135 -0.049,-0.582 -0.21,-1.25 -0.41,-1.885 0.297,2.07 -0.248,4.528 -0.512,5.448 -0.169,0.587 0.182,1.207 0.408,1.25 0.453,-0.037 2.394,1.56 3.599,3.031 0,0 1.662,-0.576 2.203,-1.175 C 4.605,2.021 5.436,1.053 5.436,1.053 3.967,-0.415 2.723,-0.214 0,0 M 5.632,0.76 C 4.833,1.664 1.275,4.48 1.275,4.48 1.163,4.242 1.008,3.862 0.818,3.608 -0.263,2.167 -1.768,1.283 -1.919,1.308 -2.22,1.25 -2.564,1.068 -2.754,0.798 -3.005,0.442 -3.024,-0.036 -2.869,-0.41 c 0.449,-1.086 0.708,-3.405 0.671,-4.39 -0.038,-1.011 0.075,-1.882 -0.306,-2.819 -0.452,-1.112 -2.493,-1.075 -2.651,-1.112 0,0 1.076,-2.274 1.076,-2.274 0.168,0.121 1.199,0.854 1.367,1.236 0.407,0.921 0.428,0.916 0.692,1.615 0.169,0.449 0.994,2.45 1.125,3.128 0.206,1.059 0.281,2.102 0.275,2.283 -0.001,0.017 0.071,0.939 0.139,1.047 0.099,0.157 0.256,0.342 0.423,0.418 0.22,0.1 1.183,0.179 1.466,0.158 0.178,-0.014 2.546,-0.196 3.813,0.919 0,0 0.69,0.645 0.411,0.961" />
      </g>
      <g
         transform="translate(884.4033,693.5594)"
         id="g664">
        <path
           inkscape:connector-curvature="0"
           id="path666"
           style="fill:#581b00;fill-opacity:1;fill-rule:nonzero;stroke:none"
           d="m 0,0 c 0.565,0 1.016,-0.46 1.016,-1.034 0,-0.583 -0.451,-1.039 -1.02,-1.039 -0.566,0 -1.025,0.456 -1.025,1.039 C -1.029,-0.46 -0.57,0 -0.004,0 L 0,0 z m -0.004,-0.161 c -0.455,0 -0.828,-0.39 -0.828,-0.873 0,-0.492 0.373,-0.878 0.832,-0.878 0.46,-0.005 0.827,0.386 0.827,0.873 0,0.488 -0.367,0.878 -0.827,0.878 l -0.004,0 z m -0.193,-1.475 -0.184,0 0,1.153 c 0.096,0.014 0.188,0.028 0.326,0.028 0.175,0 0.289,-0.037 0.359,-0.087 0.069,-0.051 0.105,-0.129 0.105,-0.239 0,-0.152 -0.101,-0.243 -0.225,-0.281 l 0,-0.009 c 0.102,-0.018 0.17,-0.11 0.193,-0.28 0.027,-0.179 0.055,-0.248 0.073,-0.285 l -0.192,0 C 0.23,-1.599 0.203,-1.494 0.18,-1.342 0.152,-1.195 0.078,-1.14 -0.069,-1.14 l -0.128,0 0,-0.496 z m 0,0.639 0.133,0 c 0.152,0 0.28,0.055 0.28,0.197 0,0.101 -0.074,0.203 -0.28,0.203 -0.06,0 -0.101,-0.005 -0.133,-0.01 l 0,-0.39 z" />
      </g>
      <g
         transform="translate(868.3485,724.7595)"
         id="g668">
        <path
           inkscape:connector-curvature="0"
           id="path670"
           style="fill:#581b00;fill-opacity:1;fill-rule:nonzero;stroke:none"
           d="M 0,0 -0.089,-0.314 C -0.092,-0.323 -0.094,-0.332 -0.097,-0.341 -0.102,0.007 -0.104,0.357 -0.093,0.705 -0.009,0.473 0.048,0.237 0,0 M 3.201,2.521 C 2.996,2.433 2.405,1.948 2.374,1.89 2.276,1.704 2.211,1.493 2.174,1.276 2.085,0.764 2.1,0.578 1.822,0.301 1.7,0.18 0.572,-0.556 0.058,-0.825 0.117,-0.685 0.163,-0.523 0.2,-0.401 L 0.296,-0.06 C 0.378,0.342 0.31,0.76 0.101,1.045 0.012,1.165 0.006,1.363 -0.022,1.502 -0.001,1.66 0.02,1.817 0.027,1.968 0.041,2.246 -0.101,2.516 -0.101,2.766 -0.101,2.598 -0.256,2.42 -0.263,2.237 -0.278,1.846 -0.619,-0.45 -0.261,-1.396 -0.188,-1.588 1.478,-0.224 1.906,0.129 2.441,0.57 2.337,1.032 2.523,1.633 2.573,1.794 3.096,2.301 3.272,2.424 3.503,2.586 3.953,2.705 4.045,2.768 3.914,2.806 3.364,2.59 3.201,2.521" />
      </g>
      <g
         transform="translate(871.424,734.4103)"
         id="g672">
        <path
           inkscape:connector-curvature="0"
           id="path674"
           style="fill:#581b00;fill-opacity:1;fill-rule:nonzero;stroke:none"
           d="m 0,0 c -0.18,-0.067 -0.511,-0.347 -0.525,-0.449 -0.022,-0.15 0.033,-0.359 0.092,-0.473 0.097,-0.188 0.106,-0.159 0.235,-0.372 0.033,0.093 -0.097,0.268 -0.11,0.328 -0.031,0.143 -0.054,0.147 -0.057,0.233 -0.013,0.326 0.33,0.188 0.295,0.593" />
      </g>
      <g
         transform="translate(871.46,725.8739)"
         id="g676">
        <path
           inkscape:connector-curvature="0"
           id="path678"
           style="fill:#581b00;fill-opacity:1;fill-rule:nonzero;stroke:none"
           d="m 0,0 c -0.171,-0.374 -0.065,-0.624 -0.338,-0.976 -0.707,-0.915 -3.339,-3.188 -3.468,-3.055 -0.63,0.652 -0.852,2.65 -0.853,4.096 -0.001,1.062 0.08,2.162 0.288,2.78 0.234,0.697 0.594,1.102 1.1,1.236 0.115,0.03 0.249,0.045 0.391,0.043 0.433,-0.003 1.403,-0.299 1.578,-0.783 -0.122,0.338 -0.387,0.616 -0.711,0.806 0.045,0.329 -0.052,1.507 -0.237,2.258 0,0 -0.009,-0.059 -0.174,-0.029 C -2.59,6.407 -2.655,6.638 -2.655,6.638 -2.57,6.328 -2.246,4.626 -2.24,4.26 -2.6,4.415 -3.001,4.464 -3.348,4.372 -3.951,4.213 -4.391,3.731 -4.657,2.941 -4.905,2.206 -4.987,0.885 -4.978,-0.297 c 0.011,-1.297 0.217,-3.491 0.988,-4.263 0.371,-0.37 3.619,3.082 3.889,3.722 0.111,0.261 0.195,0.635 0.438,1.088 0.215,0.4 0.382,1.016 0.597,1.403 C 0.735,1.501 0.222,0.486 0,0" />
      </g>
      <g
         transform="translate(872.229,719.7584)"
         id="g680">
        <path
           inkscape:connector-curvature="0"
           id="path682"
           style="fill:#581b00;fill-opacity:1;fill-rule:nonzero;stroke:none"
           d="m 0,0 c -0.358,-1.246 -0.305,-1.043 -1.054,-1.51 -0.875,-0.545 -0.828,-0.92 -0.693,-1.678 0.124,-0.691 -0.293,-0.869 -0.895,-0.746 -0.712,0.143 -0.874,-0.79 -1.519,-0.71 -0.327,0.04 -0.574,-0.198 -0.887,-0.361 -0.156,-0.081 -0.521,-0.214 -0.669,0.008 0.389,-0.056 0.481,0.297 0.743,0.476 0.291,0.199 0.665,0.121 0.984,0.283 0.24,0.122 0.318,0.417 0.57,0.516 0.289,0.114 0.617,-0.118 0.904,-0.023 0.436,0.145 0.341,0.793 0.251,1.126 -0.231,0.864 0.845,1.195 1.129,1.438 0.288,0.246 0.607,0.582 0.765,1.131 0.301,1.046 -0.027,1.684 0.019,2.381 0.022,0.321 0.023,0.508 0.202,0.788 C 0.035,3.41 0.394,3.56 0.646,3.794 0.848,3.983 1.206,4.222 1.426,4.345 1.145,3.999 0.585,3.653 0.317,3.378 -0.014,3.04 -0.195,2.675 -0.124,2.168 -0.027,1.481 0.195,0.678 0,0" />
      </g>
      <g
         transform="translate(876.754,729.1018)"
         id="g684">
        <path
           inkscape:connector-curvature="0"
           id="path686"
           style="fill:#581b00;fill-opacity:1;fill-rule:nonzero;stroke:none"
           d="m 0,0 c -0.316,0.248 -0.672,0.327 -0.48,0.852 0.099,0.267 0.263,0.513 0.186,0.862 -0.052,0.237 -0.174,0.45 -0.381,0.582 -0.218,0.139 -0.484,0.181 -0.736,0.205 -0.282,0.026 -0.566,0.027 -0.847,0.062 -0.134,0.017 -0.311,0.044 -0.439,0.086 -0.062,0.02 -0.214,0.08 -0.299,0.247 -0.133,0.259 0.213,0.336 0.37,0.456 0.122,0.092 0.223,0.212 0.292,0.349 0.179,0.355 0.097,0.799 -0.292,0.965 -0.163,0.071 -0.162,0.206 -0.066,0.315 0.289,0.327 0.242,1.211 -0.599,1.181 C -3.725,6.147 -3.822,5.877 -4.321,5.931 -4.588,5.959 -4.753,6.061 -4.85,6.439 -4.939,6.785 -5.281,6.951 -5.598,6.767 -5.767,6.669 -5.832,6.523 -5.903,6.352 c -0.023,-0.053 -0.133,-0.2 -0.02,-0.219 0.1,-0.017 0.088,0.129 0.128,0.18 0.03,0.038 0.077,0.068 0.119,0.09 0.174,0.091 0.409,0.054 0.451,-0.164 C -5.062,5.403 -4.877,5.101 -4.664,4.765 -4.546,4.58 -4.393,4.339 -4.56,4.171 -4.681,4.051 -4.887,4.036 -4.902,3.807 -4.916,3.59 -4.771,3.37 -4.524,3.406 c 0.293,0.041 0.264,0.479 -0.043,0.422 0.102,-0.003 0.163,-0.155 0.079,-0.214 -0.164,-0.116 -0.307,0.092 -0.205,0.23 0.071,0.095 0.238,0.177 0.325,0.246 0.344,0.276 0.126,0.611 -0.093,0.904 -0.293,0.395 -0.542,0.771 -0.559,1.138 0.375,-0.775 1.262,-0.235 1.753,-0.145 0.543,0.1 0.683,-0.574 0.253,-0.86 C -3.434,4.848 -3.216,4.605 -2.743,4.46 -2.668,4.437 -2.594,4.4 -2.541,4.339 -2.415,4.198 -2.462,3.995 -2.549,3.847 -2.604,3.752 -2.679,3.667 -2.764,3.596 -2.97,3.421 -3.277,3.198 -3.146,2.885 -3.049,2.657 -2.758,2.554 -2.544,2.48 -2.444,2.445 -2.333,2.416 -2.231,2.393 -1.873,2.309 -1.477,2.26 -1.148,2.083 -0.781,1.887 -0.545,1.662 -0.653,1 -0.711,0.65 -1.039,0.482 -0.816,0.142 c 0.152,-0.229 0.633,-0.273 0.769,-0.568 0.249,-0.536 -0.138,-0.701 -0.47,-0.929 -0.238,-0.162 -0.423,-0.275 -0.484,-0.554 -0.087,-0.397 0.297,-0.687 0.057,-1.103 -0.15,-0.26 -0.465,-0.378 -0.731,-0.471 -0.359,-0.126 -0.392,-0.328 -0.704,-0.546 -0.35,-0.246 -0.671,-0.608 -0.976,-0.9 -0.654,-0.63 -1.692,-0.234 -2.021,-0.897 -0.388,-0.78 0.278,-2.061 0.127,-2.86 -0.168,-0.881 -1.212,-0.971 -1.925,-1.033 -0.872,-0.075 -1.472,-0.429 -1.195,-1.349 0.194,-0.648 0.263,-0.67 0.264,-1.098 0.001,-0.658 -0.835,-0.412 -1.246,-0.574 -0.533,-0.211 -0.755,-0.941 -1.728,-0.959 -0.399,-0.006 -0.694,0.092 -1.095,-0.054 -0.425,-0.155 -0.805,-0.448 -1.281,-0.098 -0.147,0.108 -0.152,0.363 -0.348,0.422 -0.168,0.05 -0.337,-0.05 -0.502,-0.008 -0.132,0.034 -0.209,0.176 -0.338,0.204 -0.111,0.024 -0.337,-0.056 -0.356,0.117 -0.005,-0.104 0.097,-0.211 0.194,-0.229 0.087,-0.017 0.172,0.02 0.23,-0.063 0.065,-0.093 0.114,-0.217 0.238,-0.241 0.135,-0.026 0.281,0.021 0.412,-0.034 0.276,-0.114 0.479,-0.488 0.749,-0.61 0.386,-0.175 0.831,0.005 1.211,0.099 0.417,0.103 0.641,0.023 1.034,-0.015 0.649,-0.064 1.011,0.341 1.375,0.788 0.51,0.625 1.317,0.283 1.723,0.729 0.462,0.507 -0.009,1.181 -0.077,1.409 -0.237,0.8 0.062,1.35 1.595,1.473 0.709,0.056 1.076,0.42 1.135,0.49 0.619,0.731 -0.058,2.07 -0.013,2.844 0.041,0.715 0.805,0.575 1.314,0.927 0.486,0.336 0.752,0.74 1.152,1.163 0.042,0.044 0.083,0.085 0.126,0.124 0.391,0.358 0.82,0.519 1.295,0.792 0.306,0.177 0.599,0.428 0.638,0.796 0.04,0.382 -0.117,0.733 0.253,1.007 0.29,0.215 0.721,0.397 0.828,0.801 C 0.522,-0.456 0.322,-0.253 0,0" />
      </g>
      <g
         transform="translate(871.7506,734.8613)"
         id="g688">
        <path
           inkscape:connector-curvature="0"
           id="path690"
           style="fill:#581b00;fill-opacity:1;fill-rule:nonzero;stroke:none"
           d="m 0,0 c 0.39,-0.839 1.168,-0.67 1.475,-0.447 0.784,0.569 0.86,0.158 0.651,-0.062 l 0.193,0.032 C 2.414,-0.063 2.211,0.142 1.55,-0.19 1.092,-0.42 0.411,-0.287 -0.024,0.557 L 0,0 z" />
      </g>
      <g
         transform="translate(871.6887,732.6599)"
         id="g692">
        <path
           inkscape:connector-curvature="0"
           id="path694"
           style="fill:#581b00;fill-opacity:1;fill-rule:nonzero;stroke:none"
           d="M 0,0 C -0.167,-0.888 0.363,-1.397 1.322,-1.666 1.685,-1.768 2.569,-1.894 2.837,-2.163 3.252,-2.578 2.647,-2.989 2.859,-3.481 2.994,-3.795 3.35,-3.851 3.454,-4.19 3.611,-4.709 3.304,-4.915 3.116,-5.316 2.939,-5.694 3.083,-5.991 3.267,-6.297 c 0.175,-0.291 0.16,-0.965 -0.235,-1.142 0.258,0.45 -0.009,0.757 -0.206,1.154 -0.258,0.518 -0.115,0.842 0.189,1.314 0.208,0.324 0.207,0.629 -0.005,0.957 -0.158,0.246 -0.426,0.303 -0.472,0.606 -0.049,0.319 0.158,0.409 0.234,0.673 0.155,0.548 -1.339,0.808 -1.712,0.892 0.809,-0.424 0.426,-1.663 0.159,-2.14 C 1.055,-4.279 0.965,-4.361 0.766,-4.647 0.637,-4.831 0.493,-5.065 0.386,-5.229 L 0.091,-5.341 c 0.149,0.398 0.444,0.746 0.67,1.11 0.315,0.505 0.551,1.34 0.386,1.93 -0.123,0.445 -0.623,0.551 -0.92,0.846 -0.371,0.368 -0.378,1.282 -0.112,1.685" />
      </g>
      <g
         transform="translate(871.7959,726.3516)"
         id="g696">
        <path
           inkscape:connector-curvature="0"
           id="path698"
           style="fill:#581b00;fill-opacity:1;fill-rule:nonzero;stroke:none"
           d="m 0,0 c 0.119,-0.216 0.284,-0.404 0.281,-0.696 -0.006,-0.392 -0.333,-0.708 -0.317,-1.09 0.012,-0.306 0.209,-0.638 0.02,-0.924 -0.125,-0.19 -0.336,-0.209 -0.34,-0.472 0.142,0.209 0.541,0.163 0.721,0.37 0.307,0.351 0.016,0.611 -0.066,0.95 -0.106,0.435 0.218,0.716 0.279,1.126 C 0.64,-0.314 0.266,-0.131 0.13,0.195 L 0,0 z" />
      </g>
      <g
         transform="translate(873.4801,726.7365)"
         id="g700">
        <path
           inkscape:connector-curvature="0"
           id="path702"
           style="fill:#581b00;fill-opacity:1;fill-rule:nonzero;stroke:none"
           d="m 0,0 c -0.004,0.035 -0.012,0.069 -0.023,0.104 -0.046,0.134 -0.17,0.242 -0.267,0.341 -0.251,0.253 -0.388,0.499 -0.34,0.87 0.037,0.284 0.211,0.532 0.335,0.783 0.143,0.291 0.237,0.656 0.145,0.974 -0.062,0.21 -0.182,0.383 -0.312,0.555 -0.137,0.179 -0.312,0.25 -0.226,0.489 C -0.507,4.015 -0.166,3.738 -0.055,3.565 0.206,3.156 0.208,2.662 0.021,2.2 -0.131,1.827 -0.381,1.501 -0.265,1.075 -0.183,0.773 0.08,0.6 0.248,0.352 0.357,0.19 0.405,0.022 0.334,-0.16 0.2,-0.503 -0.028,-0.671 0.216,-1.019 0.472,-1.385 0.755,-1.409 0.648,-1.906 0.616,-2.055 0.607,-2.214 0.485,-2.324 0.424,-2.38 0.101,-2.429 0.1,-2.431 0.35,-2.014 0.426,-1.74 0.09,-1.391 -0.098,-1.196 -0.243,-0.97 -0.209,-0.689 -0.178,-0.435 0.033,-0.271 0,0" />
      </g>
      <g
         transform="translate(839.5386,687.4597)"
         id="g704">
        <path
           inkscape:connector-curvature="0"
           id="path706"
           style="fill:#581b00;fill-opacity:1;fill-rule:nonzero;stroke:none"
           d="m 0,0 c 5.645,0 10.08,-3.562 10.08,-9.409 0,-5.622 -4.181,-10.268 -10.231,-10.268 -6.872,0 -9.903,5.349 -9.903,9.864 C -10.054,-5.746 -6.924,0 0,0 m 0.529,-18.55 c 2.259,0 6.679,1.431 6.682,8.435 0.002,5.413 -3.421,9.091 -7.386,9.091 -4.19,0 -7.079,-2.784 -7.085,-8.084 -0.004,-5.445 3.271,-9.442 7.789,-9.442" />
      </g>
      <g
         transform="translate(856.0542,675.4279)"
         id="g708">
        <path
           inkscape:connector-curvature="0"
           id="path710"
           style="fill:#581b00;fill-opacity:1;fill-rule:nonzero;stroke:none"
           d="m 0,0 0,4.413 c 0,3.92 -0.06,7.205 -0.06,7.205 0.302,0 3.242,0.074 4.747,0.074 2.486,0 7.291,0.228 10.274,-2.859 1.256,-1.306 2.436,-3.389 2.436,-6.376 0,-3.162 -1.303,-5.594 -2.709,-7.076 -1.079,-1.131 -3.553,-2.885 -7.82,-2.885 -2.156,0 -6.795,0.299 -7.048,0.299 0,0 0.18,4.795 0.18,7.205 m 2.595,1.704 c 0,-2.659 0.028,-4.968 0.051,-5.441 0.025,-0.63 0.172,-1.465 0.373,-1.742 0.326,-0.48 0.965,-1.001 3.927,-1.001 2.338,0 4.195,0.68 5.672,2.163 1.307,1.277 2.01,3.687 2.01,5.996 0,3.186 -1.38,5.246 -2.405,6.325 -2.365,2.488 -4.925,2.668 -7.913,2.668 -0.5,0 -1.184,-0.078 -1.389,-0.177 C 2.698,10.394 2.623,10.264 2.623,9.995 2.595,9.141 2.595,6.747 2.595,4.815 l 0,-3.111 z" />
      </g>
      <g
         transform="translate(879.8898,675.4357)"
         id="g712">
        <path
           inkscape:connector-curvature="0"
           id="path714"
           style="fill:#581b00;fill-opacity:1;fill-rule:nonzero;stroke:none"
           d="m 0,0 0,4.414 c 0,3.919 -0.203,7.279 -0.203,7.279 0.351,-10e-4 0.986,-0.073 1.504,-0.076 0.377,-0.003 1.085,0.098 1.387,0.076 0,0 -0.092,-3.36 -0.092,-7.279 L 2.596,0 c 0,-2.411 0.282,-7.277 0.282,-7.277 C 2.335,-7.263 2.031,-7.195 1.301,-7.203 0.64,-7.211 0.238,-7.312 -0.211,-7.277 -0.211,-7.277 0,-2.411 0,0" />
      </g>
      <g
         transform="translate(820.7504,674.5544)"
         id="g716">
        <path
           inkscape:connector-curvature="0"
           id="path718"
           style="fill:#581b00;fill-opacity:1;fill-rule:nonzero;stroke:none"
           d="M 0,0 C 0,2.033 -0.005,3.012 -0.005,3.012 0.42,3.014 0.819,2.943 1.295,2.936 1.69,2.933 2.21,3.014 2.634,3.012 L 2.642,1.153 C 2.592,0.35 2.592,-0.405 2.592,-1.457 l 0,-2.81 c 0,-1.13 -0.025,-1.18 -0.326,-1.356 -1.609,-0.852 -4.107,-1.122 -5.566,-1.129 -2.385,-0.013 -6.079,0.415 -8.591,2.813 -1.469,1.4 -2.987,3.95 -2.989,7.023 -0.006,4.019 1.981,6.856 4.215,8.254 2.26,1.41 5.059,1.586 6.991,1.586 1.581,0 3.484,-0.327 3.96,-0.429 C 0.815,12.371 1.69,12.272 2.321,12.249 2.571,12.221 2.622,12.121 2.622,12.022 2.622,11.668 2.47,11.843 2.443,9.323 2.441,9.049 2.184,9.158 1.861,9.468 c 0,0 -0.334,0.253 -0.571,0.469 -0.848,0.762 -2.554,1.935 -5.793,1.935 -1.581,0 -3.281,-0.145 -5.067,-1.535 -1.465,-1.139 -2.531,-3.436 -2.531,-6.375 0,-3.536 1.779,-6.095 2.657,-6.951 1.984,-1.932 3.973,-2.521 6.323,-2.587 0.903,-0.024 2.027,0.108 2.619,0.427 C -0.178,-4.965 0,-4.695 0,-4.267 L 0,0 z" />
      </g>
      <g
         transform="translate(903.7565,687.1281)"
         id="g720">
        <path
           inkscape:connector-curvature="0"
           id="path722"
           style="fill:#581b00;fill-opacity:1;fill-rule:nonzero;stroke:none"
           d="m 0,0 c 0.165,-0.021 0.787,-0.073 1.088,-0.073 0.151,0 0.185,0.024 0.914,0.024 0,0 -7.79,-18.298 -7.933,-18.588 -0.242,-0.487 -0.427,-0.682 -0.586,-0.682 -0.305,-0.007 -0.473,0.351 -0.952,1.554 l -6.232,15.381 -0.962,2.387 c 0.466,0.019 1.294,-0.076 1.594,-0.076 0.256,0 1.272,0.073 1.582,0.076 0,0 0.645,-2.086 1.021,-3.062 l 4.608,-12.107 c 0.622,1.441 4.885,12.153 5.201,13.188 C -0.529,-1.603 0,0 0,0" />
      </g>
      <g
         transform="translate(919.6111,669.2281)"
         id="g724">
        <path
           inkscape:connector-curvature="0"
           id="path726"
           style="fill:#581b00;fill-opacity:1;fill-rule:nonzero;stroke:none"
           d="m 0,0 -2.183,5.715 c -0.054,0.101 -0.106,0.15 -0.23,0.15 l -5.397,0 c -0.123,0 -0.198,-0.074 -0.248,-0.201 L -9.53,1.684 c -0.224,-0.63 -0.975,-2.762 -0.975,-2.762 0,0 -0.505,0.023 -0.785,0.023 -0.272,0 -0.737,-0.049 -1.028,-0.023 l 1.088,2.762 5.912,15.551 c 0.303,0.829 0.518,0.981 0.666,0.981 0.152,0 0.384,-0.179 0.683,-0.96 C -3.59,16.301 0.388,6.031 1.901,2.207 L 3.138,-1.078 C 2.65,-1.081 2.206,-1.011 1.747,-1.011 1.291,-1.011 0.961,-1.044 0.365,-1.027 L 0,0 z m -2.785,6.992 c 0.121,0 0.121,0.077 0.1,0.177 l -2.33,6.756 c -0.099,0.197 -0.173,0.197 -0.283,0 L -7.549,7.169 c -0.05,-0.125 0,-0.177 0.075,-0.177 l 4.689,0 z" />
      </g>
      <g
         transform="translate(883.899,663.2371)"
         id="g728">
        <path
           inkscape:connector-curvature="0"
           id="path730"
           style="fill:#581b00;fill-opacity:1;fill-rule:nonzero;stroke:none"
           d="m 0,0 c 0.104,-0.088 0.163,-0.237 0.163,-0.447 0,-0.196 -0.064,-0.365 -0.187,-0.516 -0.127,-0.148 -0.28,-0.223 -0.462,-0.223 -0.2,0 -0.348,0.044 -0.454,0.136 -0.111,0.088 -0.163,0.241 -0.163,0.441 0,0.199 0.063,0.372 0.191,0.524 0.127,0.145 0.274,0.22 0.455,0.22 C -0.258,0.135 -0.107,0.089 0,0" />
      </g>
      <g
         transform="translate(844.5302,660.4968)"
         id="g732">
        <path
           inkscape:connector-curvature="0"
           id="path734"
           style="fill:#581b00;fill-opacity:1;fill-rule:nonzero;stroke:none"
           d="m 0,0 c -0.098,1.622 -0.602,2.646 -1.872,2.646 -1.265,0 -2.73,-1.372 -3.5,-3.375 -0.309,-0.803 -0.486,-1.618 -0.5,-2.349 -0.035,-1.783 0.849,-2.585 2.087,-2.585 1.155,0 2.293,0.927 2.859,1.643 0.243,0.302 0.466,0.604 0.663,0.909 l 0.176,-0.119 c -0.548,-1.08 -1.686,-2.26 -2.963,-2.801 -1.779,-0.774 -3.37,0.082 -3.884,1.469 -0.323,0.886 -0.244,2.245 0.292,3.509 0.321,0.768 0.765,1.452 1.321,2.054 0.555,0.603 1.207,1.084 1.947,1.451 1.055,0.514 2.277,0.671 3.243,0.436 C 0.167,2.816 0.44,2.719 0.692,2.593 0.585,2.159 0.218,0.431 0.137,0 L 0,0 z" />
      </g>
      <g
         transform="translate(856.5717,657.5127)"
         id="g736">
        <path
           inkscape:connector-curvature="0"
           id="path738"
           style="fill:#581b00;fill-opacity:1;fill-rule:nonzero;stroke:none"
           d="m 0,0 c -0.214,-0.663 -0.596,-1.281 -1.075,-1.832 -0.562,-0.648 -1.7,-1.77 -3.103,-1.306 -0.544,0.235 -0.588,0.712 -0.588,1.149 0,1.26 1.146,2.739 2.169,3.488 0.282,0.209 0.943,0.63 1.592,0.677 0.231,0.017 0.424,-0.028 0.572,-0.09 C -0.076,1.933 0.439,1.367 0,0 m -2.891,0.582 c -0.529,-0.888 -0.823,-2.188 -0.823,-2.726 0,-0.941 0.954,-0.859 1.34,-0.546 0.74,0.609 1.695,3.095 1.431,3.96 C -1.034,1.569 -1.347,1.771 -1.655,1.743 -2.127,1.701 -2.439,1.34 -2.891,0.582" />
      </g>
      <g
         transform="translate(866.4523,657.5127)"
         id="g740">
        <path
           inkscape:connector-curvature="0"
           id="path742"
           style="fill:#581b00;fill-opacity:1;fill-rule:nonzero;stroke:none"
           d="m 0,0 c -0.214,-0.663 -0.596,-1.281 -1.075,-1.832 -0.561,-0.648 -1.7,-1.77 -3.102,-1.306 -0.546,0.235 -0.589,0.712 -0.589,1.149 0,1.26 1.146,2.739 2.169,3.488 0.282,0.209 0.944,0.63 1.592,0.677 0.229,0.017 0.425,-0.028 0.572,-0.09 C -0.076,1.933 0.438,1.367 0,0 m -2.891,0.582 c -0.529,-0.888 -0.823,-2.188 -0.823,-2.726 0,-0.941 0.954,-0.859 1.341,-0.546 0.739,0.609 1.695,3.095 1.43,3.96 C -1.035,1.569 -1.347,1.771 -1.655,1.743 -2.127,1.701 -2.439,1.34 -2.891,0.582" />
      </g>
      <g
         transform="translate(859.3141,654.4194)"
         id="g744">
        <path
           inkscape:connector-curvature="0"
           id="path746"
           style="fill:#581b00;fill-opacity:1;fill-rule:nonzero;stroke:none"
           d="M 0,0 C 0.62,0.21 1.371,0.864 1.379,0.957 1.381,1.011 1.359,1.039 1.305,1.042 0.552,0.467 0.138,0.361 -0.332,0.475 -0.728,0.571 -0.972,0.844 -0.967,1.448 -0.953,2.862 0.092,5.27 1.151,4.708 1.27,4.645 1.352,4.536 1.397,4.388 1.234,4.295 1.071,3.908 1.333,3.686 1.632,3.454 2.307,3.48 2.307,4.388 2.307,5.256 1.521,5.433 0.67,5.089 0.159,4.883 -0.383,4.49 -0.824,3.995 -1.17,3.602 -1.546,3.047 -1.773,2.588 -1.996,2.134 -2.109,1.709 -2.109,1.314 -2.109,0.91 -1.989,0.567 -1.751,0.273 -1.293,-0.263 -0.551,-0.187 0,0" />
      </g>
      <g
         transform="translate(889.5369,659.4955)"
         id="g748">
        <path
           inkscape:connector-curvature="0"
           id="path750"
           style="fill:#581b00;fill-opacity:1;fill-rule:nonzero;stroke:none"
           d="M 0,0 1.001,0 0.26,-1.963 c 0,0 0.696,1.428 1.495,1.891 0.308,0.212 0.882,0.43 1.322,0.005 0.452,-0.557 0.262,-1.19 -0.113,-1.407 -0.332,-0.193 -0.776,-0.094 -0.813,0.402 -0.013,0.163 0.068,0.347 0.155,0.445 -0.059,0.061 -0.133,0.097 -0.225,0.111 -0.813,0.07 -1.569,-1.251 -1.805,-1.793 -0.47,-1.074 -0.98,-2.652 -1.014,-2.766 l -0.919,0 L 0,0 z" />
      </g>
      <g
         transform="translate(851.3015,655.4705)"
         id="g752">
        <path
           inkscape:connector-curvature="0"
           id="path754"
           style="fill:#581b00;fill-opacity:1;fill-rule:nonzero;stroke:none"
           d="m 0,0 c -0.151,-0.144 -1.448,-1.088 -1.565,-0.309 -0.027,0.181 0.023,0.39 0.148,0.793 0.101,0.341 0.531,1.742 0.551,1.812 0.088,0.284 0.239,1.121 -0.133,1.534 -1.189,1.344 -3.287,-1.16 -3.606,-2.014 0.413,1.106 2.117,5.668 2.522,6.736 l -1.038,0 -3.387,-9.602 0.919,0 c 0.062,0.267 0.45,1.347 0.68,1.89 0.325,0.778 0.898,1.609 1.681,2.318 0.452,0.41 1.012,0.453 1.326,0.173 0.277,-0.425 0.035,-0.951 -0.635,-3.23 -0.125,-0.413 -0.085,-0.939 0.149,-1.124 0.547,-0.433 1.342,-0.001 1.763,0.314 0.189,0.146 0.705,0.59 0.705,0.628 C 0.08,-0.027 0.038,0.037 0,0" />
      </g>
      <g
         transform="translate(884.7983,656.9696)"
         id="g756">
        <path
           inkscape:connector-curvature="0"
           id="path758"
           style="fill:#581b00;fill-opacity:1;fill-rule:nonzero;stroke:none"
           d="M 0,0 C 0.228,0.055 0.487,0.088 0.827,0.199 1.447,0.392 3.005,1.098 3.005,2.061 3.005,2.492 2.79,2.73 2.36,2.708 1.471,2.659 0.281,1.738 -0.447,0.733 c -0.652,-0.903 -0.926,-1.775 -0.89,-2.239 0.043,-0.539 0.423,-1.18 1.246,-1.18 0.399,0 0.91,0.128 1.512,0.544 0.2,0.136 0.69,0.541 0.695,0.578 10e-4,0.022 -0.032,0.095 -0.077,0.086 C 2.022,-1.48 1.861,-1.612 1.8,-1.652 1.402,-1.993 0.396,-2.355 -0.034,-1.796 -0.411,-1.314 -0.237,-0.624 0,0 M 0.294,0.77 C 0.458,1.16 0.747,1.612 1.076,1.924 1.239,2.066 1.437,2.15 1.608,2.149 2.092,2.145 2.141,1.707 1.8,1.279 1.345,0.706 0.553,0.319 0.093,0.242 0.137,0.376 0.203,0.552 0.294,0.77" />
      </g>
      <g
         transform="translate(876.5792,655.6014)"
         id="g760">
        <path
           inkscape:connector-curvature="0"
           id="path762"
           style="fill:#581b00;fill-opacity:1;fill-rule:nonzero;stroke:none"
           d="m 0,0 c -0.141,-0.406 -0.117,-0.927 0.108,-1.125 0.387,-0.355 1.137,-0.191 1.796,0.303 0.269,0.205 0.67,0.54 0.67,0.64 0,0.055 -0.029,0.081 -0.082,0.081 -0.007,0 -0.613,-0.687 -1.195,-0.673 -0.298,0.006 -0.378,0.157 -0.378,0.473 0,0.113 0.051,0.345 0.157,0.685 0,0 1.008,3.011 1.06,3.222 l 1.739,0 0.085,0.322 -1.718,0 L 2.99,6.1 1.944,5.844 C 1.801,5.413 0,0 0,0" />
      </g>
      <g
         transform="translate(875.946,655.4999)"
         id="g764">
        <path
           inkscape:connector-curvature="0"
           id="path766"
           style="fill:#581b00;fill-opacity:1;fill-rule:nonzero;stroke:none"
           d="m 0,0 c -0.009,0 -0.617,-0.687 -1.199,-0.673 -0.293,0.006 -0.38,0.157 -0.374,0.474 0.008,0.316 0.252,0.982 0.588,1.933 0.397,1.126 0.888,2.3 0.922,2.364 L -0.953,4.095 C -1.002,3.962 -1.067,3.821 -1.145,3.668 -1.377,4.417 -2.078,4.165 -2.446,3.996 -3.362,3.576 -4.366,2.662 -4.928,1.881 c -0.635,-0.893 -0.765,-1.4 -0.765,-2.135 0,-0.273 0.139,-1.267 1.436,-0.811 1.297,0.43 2.022,1.778 2.147,1.976 L -2.085,0.885 C -2.119,0.806 -2.173,0.696 -2.247,0.558 -2.319,0.417 -2.373,0.294 -2.439,0.101 c -0.154,-0.443 -0.1,-0.926 0.125,-1.125 0.787,-0.698 2.39,0.802 2.39,0.943 C 0.076,-0.026 0.053,0 0,0 m -1.957,1.595 c -0.08,-0.161 -0.622,-1.178 -1.158,-1.646 -0.436,-0.378 -0.852,-0.508 -0.939,-0.508 -0.727,0 -0.792,0.848 -0.114,2.236 0.137,0.28 0.298,0.537 0.457,0.796 0.469,0.75 1.082,1.376 1.691,1.179 0.766,-0.231 0.62,-0.826 0.063,-2.057" />
      </g>
      <g
         transform="translate(880.3755,655.5719)"
         id="g768">
        <path
           inkscape:connector-curvature="0"
           id="path770"
           style="fill:#581b00;fill-opacity:1;fill-rule:nonzero;stroke:none"
           d="m 0,0 c -0.121,-0.413 -0.121,-0.904 0.151,-1.124 0.171,-0.14 0.38,-0.192 0.612,-0.198 0.749,-0.021 1.856,1.018 1.856,1.14 0,0.054 -0.026,0.081 -0.079,0.081 -0.009,0 -0.616,-0.687 -1.197,-0.674 -0.298,0.007 -0.376,0.157 -0.376,0.474 0,0.113 0.05,0.343 0.155,0.684 0,0 1.311,3.42 1.407,3.692 l -1.043,0 C 1.264,3.408 0,0 0,0" />
      </g>
      <g
         transform="translate(867.2774,656.0294)"
         id="g772">
        <path
           inkscape:connector-curvature="0"
           id="path774"
           style="fill:#581b00;fill-opacity:1;fill-rule:nonzero;stroke:none"
           d="M 0,0 -0.125,-0.457 C -0.251,-0.869 -0.222,-1.385 0,-1.582 0.161,-1.729 0.348,-1.78 0.586,-1.78 c 0.866,0 1.856,1.079 1.856,1.14 0,0.054 -0.028,0.081 -0.082,0.081 -0.009,0 -0.615,-0.686 -1.198,-0.673 -0.295,0.006 -0.389,0.16 -0.394,0.438 0,0.114 0.072,0.379 0.174,0.719 L 1.176,0.718 C 1.297,1.094 3.665,7.849 3.717,8 L 2.705,8 C 2.479,7.282 0,0 0,0" />
      </g>
    </g>
  </g>
</svg>
