<svg width="54" height="54" viewBox="0 0 54 54" fill="none" xmlns="http://www.w3.org/2000/svg">
<rect x="0.5" y="0.5" width="53" height="53" rx="26.5" stroke="#D0D0D0"/>
<path fill-rule="evenodd" clip-rule="evenodd" d="M38.0441 27.2658C38.0441 26.4504 37.9709 25.6663 37.835 24.9136H27.0044V29.3619H33.1933C32.9267 30.7993 32.1165 32.0173 30.8986 32.8327V35.7181H34.6151C36.7896 33.7161 38.0441 30.768 38.0441 27.2658Z" fill="#4285F4"/>
<path fill-rule="evenodd" clip-rule="evenodd" d="M27.0046 38.5037C30.1095 38.5037 32.7126 37.474 34.6153 35.7177L30.8988 32.8323C29.8691 33.5223 28.5518 33.93 27.0046 33.93C24.0094 33.93 21.4743 31.9071 20.57 29.189H16.728V32.1684C18.6203 35.9268 22.5092 38.5037 27.0046 38.5037Z" fill="#34A853"/>
<path fill-rule="evenodd" clip-rule="evenodd" d="M20.57 29.1895C20.34 28.4995 20.2093 27.7624 20.2093 27.0045C20.2093 26.2466 20.34 25.5095 20.57 24.8196V21.8401H16.728C15.9492 23.3925 15.5049 25.1489 15.5049 27.0045C15.5049 28.8601 15.9492 30.6165 16.728 32.1689L20.57 29.1895Z" fill="#FBBC05"/>
<path fill-rule="evenodd" clip-rule="evenodd" d="M27.0046 20.0784C28.693 20.0784 30.2088 20.6586 31.4006 21.7981L34.6989 18.4998C32.7074 16.6442 30.1043 15.5046 27.0046 15.5046C22.5092 15.5046 18.6203 18.0816 16.728 21.8399L20.57 24.8194C21.4743 22.1013 24.0094 20.0784 27.0046 20.0784Z" fill="#EA4335"/>
</svg>
