<svg width="54" height="54" viewBox="0 0 54 54" fill="none" xmlns="http://www.w3.org/2000/svg">
<circle cx="27" cy="27" r="27" fill="#FEE500"/>
<path d="M27.078 13.031C18.6777 13.031 11.9033 18.4505 11.9033 25.0298C11.9033 29.3004 14.7215 33.0398 18.9487 35.1751L17.5179 40.5188C17.491 40.5989 17.4868 40.6849 17.506 40.7672C17.5251 40.8495 17.5668 40.9249 17.6263 40.9848C17.7132 41.0614 17.8249 41.1038 17.9407 41.104C18.0367 41.0963 18.1277 41.0584 18.2008 40.9957L24.3574 36.8444C25.2662 36.9698 26.1823 37.0349 27.0997 37.0394C35.4891 37.0394 42.2743 31.6199 42.2743 25.0298C42.2743 18.4396 35.4674 13.031 27.078 13.031Z" fill="#392020"/>
<path d="M17.2142 23.1328H15.5558C15.3503 23.1388 15.1473 23.0861 14.9705 22.9811C14.8921 22.9319 14.8246 22.867 14.7724 22.7905C14.7201 22.7141 14.6843 22.6276 14.667 22.5366C14.6618 22.4789 14.6618 22.421 14.667 22.3633C14.6619 22.2554 14.6828 22.1477 14.7281 22.0496C14.7734 21.9515 14.8417 21.8658 14.9272 21.7997C15.1161 21.6628 15.3442 21.5905 15.5775 21.5936H20.5743C20.7815 21.5864 20.9859 21.6432 21.1596 21.7563C21.24 21.8032 21.3088 21.8675 21.3613 21.9444C21.4138 22.0213 21.4486 22.1088 21.4631 22.2007C21.4684 22.2548 21.4684 22.3092 21.4631 22.3633C21.4682 22.4728 21.4473 22.5819 21.4021 22.6818C21.3569 22.7816 21.2886 22.8693 21.203 22.9377C21.0186 23.0744 20.7927 23.1433 20.5635 23.1328H18.9593V28.8342C18.9658 28.9557 18.947 29.0771 18.9041 29.1909C18.8612 29.3047 18.7951 29.4084 18.71 29.4954C18.6284 29.5785 18.5303 29.6436 18.4221 29.6865C18.3138 29.7295 18.1977 29.7492 18.0813 29.7446C17.8778 29.7504 17.6785 29.6854 17.5177 29.5604C17.3646 29.4384 17.2607 29.2651 17.2251 29.0726C17.2143 28.9935 17.2143 28.9133 17.2251 28.8342L17.2142 23.1328Z" fill="#FEE500"/>
<path d="M21.9413 22.0166C21.989 21.8382 22.101 21.6837 22.2557 21.583C22.4205 21.4895 22.6083 21.4445 22.7976 21.4529H23.2095C23.4103 21.4457 23.6092 21.4945 23.784 21.5938C23.9691 21.7183 24.1007 21.9079 24.1525 22.1249L26.3203 28.249C26.3765 28.4088 26.4235 28.5717 26.4612 28.7368C26.4649 28.8054 26.4649 28.8741 26.4612 28.9427C26.4649 29.0484 26.4454 29.1535 26.4042 29.2509C26.3631 29.3482 26.3011 29.4354 26.2227 29.5064C26.1468 29.5842 26.0556 29.6456 25.9549 29.6866C25.8542 29.7276 25.7461 29.7474 25.6374 29.7448C25.4703 29.7614 25.3024 29.7213 25.1608 29.6309C25.0192 29.5404 24.9122 29.4049 24.857 29.2463L24.4018 27.9131H21.5511L21.0959 29.2463C21.042 29.4081 20.9337 29.5462 20.7895 29.6371C20.6452 29.728 20.4738 29.7661 20.3046 29.7448C20.1213 29.7496 19.9418 29.6923 19.7952 29.5822C19.6523 29.4686 19.556 29.3068 19.5242 29.127C19.5185 29.0658 19.5185 29.004 19.5242 28.9427C19.5056 28.8351 19.5056 28.7252 19.5242 28.6176C19.5242 28.4984 19.6001 28.3682 19.6434 28.249L21.9413 22.0166ZM23.0252 23.4365L21.9955 26.6883H24.0441L23.0252 23.4365Z" fill="#FEE500"/>
<path d="M26.7094 22.3636C26.6984 22.1204 26.7842 21.8827 26.9479 21.7025C27.0311 21.6185 27.1311 21.5529 27.2412 21.5099C27.3514 21.467 27.4693 21.4476 27.5874 21.4531C27.7904 21.4507 27.9886 21.5155 28.151 21.6374C28.3016 21.7645 28.4016 21.9414 28.4328 22.1359C28.4435 22.2114 28.4435 22.2881 28.4328 22.3636V28.065H31.4136C31.6202 28.0623 31.8233 28.1186 31.9989 28.2275C32.0778 28.2761 32.1456 28.3409 32.1979 28.4175C32.2502 28.494 32.2858 28.5807 32.3024 28.6719C32.3024 28.6719 32.3024 28.7803 32.3024 28.8345C32.3075 28.9425 32.2866 29.05 32.2413 29.1481C32.196 29.2462 32.1277 29.3321 32.0423 29.3982C31.8533 29.535 31.6252 29.6072 31.3919 29.604H27.7283C27.495 29.6191 27.263 29.5583 27.0671 29.4307C26.8919 29.2997 26.7751 29.1051 26.742 28.8888C26.734 28.7697 26.734 28.6501 26.742 28.531L26.7094 22.3636Z" fill="#FEE500"/>
<path d="M32.4979 22.3636C32.4914 22.121 32.5765 21.885 32.7363 21.7024C32.8988 21.5548 33.1072 21.4676 33.3263 21.4558C33.5455 21.4439 33.7621 21.5081 33.9395 21.6373C34.0933 21.7633 34.1971 21.9401 34.2321 22.1359C34.2375 22.2117 34.2375 22.2878 34.2321 22.3636V25.0191L36.9744 21.8541C37.0801 21.7461 37.1923 21.6448 37.3104 21.5507C37.4217 21.4844 37.5494 21.4505 37.6789 21.453C37.8684 21.452 38.0536 21.5087 38.21 21.6156C38.2837 21.6653 38.3467 21.7293 38.3951 21.8038C38.4435 21.8783 38.4764 21.9617 38.4919 22.0492C38.4962 22.0707 38.4962 22.0929 38.4919 22.1143C38.4866 22.1393 38.4866 22.1651 38.4919 22.1901C38.4915 22.3042 38.4616 22.4163 38.4051 22.5154C38.3476 22.6203 38.2786 22.7183 38.1992 22.8079L36.3999 24.7807L38.5677 28.1408V28.2491C38.6803 28.4044 38.768 28.5764 38.8279 28.7587V28.8128C38.8404 28.9383 38.8223 29.0651 38.7751 29.1822C38.7279 29.2992 38.653 29.403 38.5569 29.4848C38.3761 29.6214 38.1549 29.694 37.9282 29.6908C37.7776 29.697 37.6281 29.6633 37.4947 29.5932C37.3503 29.4963 37.2313 29.3662 37.1478 29.2138L35.1318 25.9621L34.1671 26.9702V28.7802C34.1736 29.0228 34.0884 29.2588 33.9286 29.4414C33.843 29.5251 33.7411 29.5905 33.6292 29.6334C33.5174 29.6762 33.398 29.6958 33.2783 29.6908C33.0783 29.695 32.883 29.6298 32.7255 29.5065C32.5724 29.3844 32.4685 29.2113 32.4328 29.0188C32.4221 28.9397 32.4221 28.8593 32.4328 28.7802L32.4979 22.3636Z" fill="#FEE500"/>
</svg>
