<svg width="24" height="24" viewBox="0 0 24 24" fill="none" xmlns="http://www.w3.org/2000/svg">
<path d="M2.4 2.40002C1.76348 2.40002 1.15303 2.65288 0.702944 3.10297C0.252856 3.55306 0 4.1635 0 4.80002V9.60002C0.63652 9.60002 1.24697 9.85288 1.69706 10.303C2.14714 10.7531 2.4 11.3635 2.4 12C2.4 12.6365 2.14714 13.247 1.69706 13.6971C1.24697 14.1472 0.63652 14.4 0 14.4V19.2C0 19.8365 0.252856 20.447 0.702944 20.8971C1.15303 21.3472 1.76348 21.6 2.4 21.6H21.6C22.2365 21.6 22.847 21.3472 23.2971 20.8971C23.7471 20.447 24 19.8365 24 19.2V14.4C23.3635 14.4 22.753 14.1472 22.3029 13.6971C21.8529 13.247 21.6 12.6365 21.6 12C21.6 11.3635 21.8529 10.7531 22.3029 10.303C22.753 9.85288 23.3635 9.60002 24 9.60002V4.80002C24 4.1635 23.7471 3.55306 23.2971 3.10297C22.847 2.65288 22.2365 2.40002 21.6 2.40002H2.4ZM16.2 6.00002L18 7.80002L7.8 18L6 16.2L16.2 6.00002ZM8.172 6.04802C9.348 6.04802 10.296 6.99603 10.296 8.17203C10.296 8.73534 10.0722 9.27559 9.67389 9.67392C9.27557 10.0722 8.73532 10.296 8.172 10.296C6.996 10.296 6.048 9.34803 6.048 8.17203C6.048 7.60871 6.27178 7.06846 6.67011 6.67013C7.06843 6.2718 7.60868 6.04802 8.172 6.04802ZM15.828 13.704C17.004 13.704 17.952 14.652 17.952 15.828C17.952 16.3913 17.7282 16.9316 17.3299 17.3299C16.9316 17.7282 16.3913 17.952 15.828 17.952C14.652 17.952 13.704 17.004 13.704 15.828C13.704 15.2647 13.9278 14.7245 14.3261 14.3261C14.7244 13.9278 15.2647 13.704 15.828 13.704Z" fill="#1B544D"/>
</svg>
