<svg width="25" height="25" viewBox="0 0 25 25" fill="none" xmlns="http://www.w3.org/2000/svg">
<g opacity="0.12">
<path d="M19.1838 19.9384C17.4126 21.531 15.0695 22.5 12.5001 22.5C9.9307 22.5 7.58762 21.531 5.81641 19.9384C6.42473 18.5052 7.84503 17.5 9.50011 17.5H15.5001C17.1552 17.5 18.5755 18.5052 19.1838 19.9384Z" fill="#B3B3B3"/>
<path d="M12.5 14C14.7091 14 16.5 12.2091 16.5 10C16.5 7.79086 14.7091 6 12.5 6C10.2909 6 8.5 7.79086 8.5 10C8.5 12.2091 10.2909 14 12.5 14Z" fill="#B3B3B3"/>
</g>
<path d="M5.8163 19.9384C6.42462 18.5052 7.84492 17.5 9.5 17.5H15.5C17.1551 17.5 18.5754 18.5052 19.1837 19.9384M16.5 10C16.5 12.2091 14.7091 14 12.5 14C10.2909 14 8.5 12.2091 8.5 10C8.5 7.79086 10.2909 6 12.5 6C14.7091 6 16.5 7.79086 16.5 10ZM22.5 12.5C22.5 18.0228 18.0228 22.5 12.5 22.5C6.97715 22.5 2.5 18.0228 2.5 12.5C2.5 6.97715 6.97715 2.5 12.5 2.5C18.0228 2.5 22.5 6.97715 22.5 12.5Z" stroke="#B3B3B3" stroke-width="2" stroke-linecap="round" stroke-linejoin="round"/>
</svg>
