<svg width="25" height="24" viewBox="0 0 25 24" fill="none" xmlns="http://www.w3.org/2000/svg">
<path opacity="0.12" d="M14.7495 2H8.99395C8.81447 2 8.72473 2 8.64551 2.02733C8.57545 2.05149 8.51163 2.09093 8.45868 2.14279C8.39881 2.20143 8.35868 2.2817 8.27841 2.44223L4.07841 10.8422C3.88673 11.2256 3.79089 11.4173 3.81391 11.5731C3.83401 11.7091 3.90927 11.8309 4.02197 11.9097C4.15104 12 4.36534 12 4.79395 12H10.9995L7.99953 22L20.1926 9.35531C20.604 8.9287 20.8097 8.7154 20.8217 8.53288C20.8321 8.37446 20.7667 8.22049 20.6454 8.11803C20.5057 8 20.2094 8 19.6167 8H12.4995L14.7495 2Z" fill="#B3B3B3"/>
<path d="M14.7495 2H8.99395C8.81447 2 8.72473 2 8.64551 2.02733C8.57545 2.05149 8.51163 2.09093 8.45868 2.14279C8.39881 2.20143 8.35868 2.2817 8.27841 2.44223L4.07841 10.8422C3.88673 11.2256 3.79089 11.4173 3.81391 11.5731C3.83401 11.7091 3.90927 11.8309 4.02197 11.9097C4.15104 12 4.36534 12 4.79395 12H10.9995L7.99953 22L20.1926 9.35531C20.604 8.9287 20.8097 8.7154 20.8217 8.53288C20.8321 8.37446 20.7667 8.22049 20.6454 8.11803C20.5057 8 20.2094 8 19.6167 8H12.4995L14.7495 2Z" stroke="#B3B3B3" stroke-width="2" stroke-linecap="round" stroke-linejoin="round"/>
</svg>
