<svg width="24" height="24" viewBox="0 0 24 24" fill="none" xmlns="http://www.w3.org/2000/svg">
<g clip-path="url(#clip0_26_2092)">
<mask id="mask0_26_2092" style="mask-type:luminance" maskUnits="userSpaceOnUse" x="0" y="0" width="24" height="24">
<path d="M0 0H24V24H0V0Z" fill="white"/>
</mask>
<g mask="url(#mask0_26_2092)">
<path fill-rule="evenodd" clip-rule="evenodd" d="M21.3299 2.68799C22.7249 4.16799 23.5219 6.18999 23.8069 8.41099C24.0909 10.546 23.9769 11.998 23.9769 11.998C23.9769 11.998 24.0629 13.45 23.7779 15.585C23.4939 17.805 22.6959 19.828 21.3009 21.308C19.8209 22.703 17.7989 23.5 15.5789 23.785C13.4429 24.041 11.9909 23.985 11.9909 23.985C11.9909 23.985 10.5399 24.069 8.40389 23.785C6.18389 23.5 4.16189 22.703 2.68189 21.308C1.28689 19.828 0.488894 17.806 0.204894 15.585C-0.0521064 13.45 0.00489363 11.998 0.00489363 11.998C0.00489363 11.998 -0.0521064 10.546 0.232894 8.41099C0.517894 6.18999 1.31489 4.16899 2.70989 2.68799C4.18989 1.29299 6.21189 0.495988 8.43289 0.210988C10.5679 -0.0450122 12.0199 0.0119878 12.0199 0.0119878C12.0199 0.0119878 13.4719 -0.0730122 15.6069 0.211988C17.8269 0.495988 19.8489 1.29299 21.3299 2.68799ZM6.58189 8.49599H4.44689V14.788H5.61389V12.995H6.58189C6.92389 12.995 7.23689 12.937 7.49289 12.823C7.74889 12.709 8.00589 12.539 8.20489 12.34C8.41367 12.1386 8.57846 11.8962 8.68889 11.628C8.80289 11.343 8.85889 11.058 8.85889 10.745C8.86074 10.4427 8.80298 10.143 8.68889 9.86299C8.57846 9.59478 8.41367 9.35235 8.20489 9.15099C8.00353 8.94221 7.76111 8.77742 7.49289 8.66699C7.20347 8.5518 6.89439 8.49406 6.58289 8.49699L6.58189 8.49599ZM5.58589 11.884V9.54999H6.49589C6.66789 9.54999 6.83789 9.57799 6.98089 9.63499C7.12055 9.69392 7.24652 9.78107 7.35089 9.89099C7.43589 10.005 7.52089 10.119 7.57889 10.261C7.63589 10.404 7.66389 10.546 7.66389 10.717C7.66389 10.887 7.63589 11.03 7.57889 11.173C7.52779 11.3129 7.44828 11.4408 7.34536 11.5485C7.24245 11.6563 7.11836 11.7415 6.98089 11.799C6.82643 11.8578 6.66216 11.8867 6.49689 11.884H5.58589ZM10.6529 14.617C10.9669 14.731 11.2509 14.788 11.5649 14.788C11.9059 14.788 12.1909 14.731 12.4749 14.617C12.7599 14.475 13.0169 14.304 13.1869 14.076V14.788H14.3549V9.71999H13.1869V10.375C12.9879 10.175 12.7599 10.005 12.4759 9.89099C12.1866 9.77296 11.8763 9.71512 11.5639 9.72099C11.2229 9.72099 10.9379 9.77699 10.6249 9.89099C10.3399 10.005 10.0549 10.147 9.82789 10.375C9.59087 10.6037 9.39769 10.8738 9.25789 11.172C9.11589 11.485 9.05889 11.856 9.05889 12.254C9.05889 12.653 9.14489 13.023 9.28689 13.336C9.42889 13.649 9.62889 13.906 9.85689 14.133C10.0839 14.333 10.3689 14.503 10.6529 14.617ZM12.3619 13.621C12.1909 13.706 11.9919 13.735 11.7639 13.735C11.5597 13.7294 11.3578 13.6909 11.1659 13.621L11.1619 13.619C10.9919 13.534 10.8229 13.449 10.6819 13.308C10.5623 13.1571 10.4575 12.995 10.3689 12.824C10.2884 12.645 10.2494 12.4502 10.2549 12.254C10.2549 12.055 10.2829 11.856 10.3689 11.685C10.4259 11.515 10.5389 11.372 10.6819 11.229C10.8198 11.0922 10.9846 10.9856 11.1659 10.916C11.3659 10.831 11.5649 10.802 11.7639 10.802C11.9639 10.802 12.1619 10.831 12.3619 10.945C12.5609 11.03 12.7029 11.115 12.8459 11.258C12.9879 11.372 13.0729 11.543 13.1589 11.714C13.2439 11.884 13.2729 12.084 13.2729 12.283C13.2729 12.482 13.2439 12.681 13.1589 12.853C13.0817 13.0216 12.9758 13.1756 12.8459 13.308C12.7029 13.45 12.5329 13.536 12.3619 13.621ZM17.4009 13.194L15.9769 9.74899H14.7529L16.8029 14.561L15.7499 17.094H16.9449L19.9349 9.74899H18.7099L17.4009 13.194Z" fill="#424242"/>
</g>
</g>
<defs>
<clipPath id="clip0_26_2092">
<rect width="24" height="24" fill="white"/>
</clipPath>
</defs>
</svg>
