<svg width="25" height="24" viewBox="0 0 25 24" fill="none" xmlns="http://www.w3.org/2000/svg">
<g clip-path="url(#clip0_2569_6026)">
<path d="M22.5 24H2.5V22H22.5V24ZM24.5 16C24.5 14.346 23.154 13 21.5 13H16.5C16.096 13 15.848 12.777 15.735 12.644C15.623 12.511 15.446 12.228 15.515 11.83C16.094 8.49898 16.499 5.27998 16.499 4.00098C16.499 1.79498 14.705 0.000976562 12.499 0.000976562C10.293 0.000976562 8.499 1.79498 8.499 4.00098C8.499 5.27798 8.904 8.49798 9.484 11.83C9.553 12.228 9.376 12.511 9.264 12.644C9.152 12.777 8.904 13 8.499 13H3.5C1.846 13 0.5 14.346 0.5 16V20H24.5V16ZM2.5 16C2.5 15.449 2.949 15 3.5 15H8.5C9.387 15 10.224 14.61 10.795 13.931C11.366 13.251 11.607 12.361 11.455 11.486C10.901 8.30498 10.499 5.15598 10.499 3.99998C10.499 2.89698 11.396 1.99998 12.499 1.99998C13.602 1.99998 14.499 2.89698 14.499 3.99998C14.499 5.15898 14.098 8.30698 13.544 11.486C13.392 12.36 13.632 13.251 14.203 13.93C14.775 14.61 15.611 14.999 16.499 14.999H21.499C22.051 14.999 22.499 15.448 22.499 15.999V17.999H2.5V15.999V16Z" fill="#868793"/>
</g>
<defs>
<clipPath id="clip0_2569_6026">
<rect width="24" height="24" fill="white" transform="translate(0.5)"/>
</clipPath>
</defs>
</svg>
